<?xml version="1.0" encoding="UTF-8"?>
<svg version="1.1" xmlns="http://www.w3.org/2000/svg" width="346" height="146">
<path d="M0 0 C114.18 0 228.36 0 346 0 C346 48.18 346 96.36 346 146 C231.82 146 117.64 146 0 146 C0 97.82 0 49.64 0 0 Z " fill="#403234" transform="translate(0,0)"/>
<path d="M0 0 C113.85 0 227.7 0 345 0 C345 21.12 345 42.24 345 64 C341.04 64 337.08 64 333 64 C333 62.02 333 60.04 333 58 C332.34 58 331.68 58 331 58 C331 60.31 331 62.62 331 65 C327.07481905 66.30839365 323.36228197 66.10251381 319.2734375 66.0625 C317.38501027 66.05424476 315.4965825 66.04611335 313.6081543 66.03808594 C311.5304359 66.02543973 309.45271781 66.01274292 307.375 66 C292.80264657 65.92447166 278.24209587 65.97424964 263.67350769 66.30821228 C261.4353305 66.35915764 259.19711232 66.40757004 256.9588623 66.4552002 C255.47534064 66.48700676 253.99182013 66.51886699 252.50830078 66.55078125 C251.7772752 66.56649925 251.04624962 66.58221725 250.29307175 66.59841156 C245.90184591 66.69496536 241.51153959 66.81015092 237.12110233 66.93737411 C235.0288455 66.99485852 232.93661426 67.04316001 230.84403992 67.08746338 C228.26618244 67.14245036 225.68859192 67.21276773 223.11164856 67.30072021 C221.96709702 67.32104309 220.82254547 67.34136597 219.64331055 67.36230469 C218.64526901 67.38895203 217.64722748 67.41559937 216.61894226 67.4430542 C213.23319886 66.87027799 212.05524665 65.70098441 210 63 C210 62.01 210 61.02 210 60 C209.34 60 208.68 60 208 60 C208 59.34 208 58.68 208 58 C207.34 58 206.68 58 206 58 C205.67 56.68 205.34 55.36 205 54 C203.68 53.67 202.36 53.34 201 53 C201 54.98 201 56.96 201 59 C200.34 59 199.68 59 199 59 C199 59.66 199 60.32 199 61 C198.34 61 197.68 61 197 61 C196.67 62.65 196.34 64.3 196 66 C191.68724802 67.05995228 187.50175201 67.13525775 183.08862305 67.11352539 C181.91709938 67.11374443 181.91709938 67.11374443 180.72190857 67.1139679 C178.15181661 67.1132737 175.58179798 67.10550446 173.01171875 67.09765625 C171.22524556 67.09579032 169.43877186 67.09436724 167.65229797 67.09336853 C162.95875629 67.08955716 158.26524573 67.07973867 153.57171631 67.06866455 C148.77893495 67.05842075 143.98614854 67.05386455 139.19335938 67.04882812 C129.79555927 67.03811514 120.39778223 67.02105531 111 67 C110.67 66.01 110.34 65.02 110 64 C109.34 64 108.68 64 108 64 C108 64.66 108 65.32 108 66 C107.01 66 106.02 66 105 66 C105 65.34 105 64.68 105 64 C104.34 64 103.68 64 103 64 C102.34 61.69 101.68 59.38 101 57 C99.02 56.505 99.02 56.505 97 56 C97 55.01 97 54.02 97 53 C96.01 53 95.02 53 94 53 C94 52.34 94 51.68 94 51 C93.34 51 92.68 51 92 51 C92 50.01 92 49.02 92 48 C90.35 47.67 88.7 47.34 87 47 C87 45.68 87 44.36 87 43 C86.34 43 85.68 43 85 43 C85 42.34 85 41.68 85 41 C83.72125 40.7525 82.4425 40.505 81.125 40.25 C77.52390584 39.46296841 74.26986833 38.36938465 70.875 36.9375 C66.83852848 35.23727019 63.33700811 34.46138384 59 34 C58.67 33.67 58.34 33.34 58 33 C51.67312489 32.52931552 46.01728142 32.87625362 40 35 C34.22222222 37 34.22222222 37 31 37 C31 37.99 31 38.98 31 40 C29.80375 40.0825 28.6075 40.165 27.375 40.25 C23.09014813 40.75901609 20.47799261 42.43291021 17 45 C16.34 45 15.68 45 15 45 C15 45.99 15 46.98 15 48 C13.35 48 11.7 48 10 48 C10 48.66 10 49.32 10 50 C5.69767442 54.76744186 5.69767442 54.76744186 2 56 C2 55.01 2 54.02 2 53 C1.01 53.495 1.01 53.495 0 54 C0 36.18 0 18.36 0 0 Z M0 56 C2 57 2 57 2 57 Z " fill="#694C6A" transform="translate(1,0)"/>
<path d="M0 0 C0.33 0 0.66 0 1 0 C1.33 17.49 1.66 34.98 2 53 C2.66 52.34 3.32 51.68 4 51 C3.505 53.475 3.505 53.475 3 56 C5.33075929 55.04134491 5.33075929 55.04134491 7 52 C9.125 50.8125 9.125 50.8125 11 50 C11 49.34 11 48.68 11 48 C12.65 48 14.3 48 16 48 C16 47.01 16 46.02 16 45 C19.59888378 41.60211771 23.53884909 39.6697816 28.5 39.6875 C30.2325 39.8421875 30.2325 39.8421875 32 40 C32 39.01 32 38.02 32 37 C34.18795217 36.25579858 36.37834626 35.52135527 38.57421875 34.80078125 C40.51521785 34.16003275 42.44684636 33.49092443 44.375 32.8125 C49.24705656 31.72048732 54.02376029 31.62979532 59 32 C59.33 32.33 59.66 32.66 60 33 C61.47339898 33.30063292 62.95426595 33.56490867 64.4375 33.8125 C69.14777229 34.70873207 73.32000285 36.18416524 77.7265625 38.046875 C80.43843264 39.18381025 83.19685809 40.11479729 86 41 C86 41.66 86 42.32 86 43 C86.66 43 87.32 43 88 43 C88 44.32 88 45.64 88 47 C89.65 47.33 91.3 47.66 93 48 C93 48.99 93 49.98 93 51 C93.66 51 94.32 51 95 51 C95 51.66 95 52.32 95 53 C95.99 53 96.98 53 98 53 C98 53.99 98 54.98 98 56 C99.485 56.495 99.485 56.495 101 57 C101.38218767 58.65614657 101.71395102 60.32457024 102 62 C101.67 62.33 101.34 62.66 101 63 C100.95919217 64.99958364 100.95745644 67.00045254 101 69 C102.98 69.495 102.98 69.495 105 70 C105 70.66 105 71.32 105 72 C105.66 72 106.32 72 107 72 C106.67 70.68 106.34 69.36 106 68 C107.32 68 108.64 68 110 68 C110.33 68.99 110.66 69.98 111 71 C111.66 70.34 112.32 69.68 113 69 C115.68839385 68.73008094 118.29141936 68.91262643 121 69 C121 69.33 121 69.66 121 70 C126.28 70.33 131.56 70.66 137 71 C136.67 71.99 136.34 72.98 136 74 C134.62714844 74.07347656 134.62714844 74.07347656 133.2265625 74.1484375 C131.44378906 74.26058594 131.44378906 74.26058594 129.625 74.375 C127.84996094 74.47941406 127.84996094 74.47941406 126.0390625 74.5859375 C122.89437681 74.70217346 122.89437681 74.70217346 121 77 C122.04800781 77.13277344 123.09601563 77.26554687 124.17578125 77.40234375 C125.55470778 77.58057235 126.93361293 77.75896641 128.3125 77.9375 C129.00279297 78.02451172 129.69308594 78.11152344 130.40429688 78.20117188 C133.40142288 78.59210135 136.12450119 79.0415004 139 80 C139 81.98 139 83.96 139 86 C139.66 86 140.32 86 141 86 C141 84.35 141 82.7 141 81 C144.0836642 81.13931138 147.16683417 81.28759281 150.25 81.4375 C151.12269531 81.47681641 151.99539062 81.51613281 152.89453125 81.55664062 C153.73886719 81.59853516 154.58320313 81.64042969 155.453125 81.68359375 C156.22817383 81.72025146 157.00322266 81.75690918 157.80175781 81.79467773 C159.9574976 81.99603015 161.91801475 82.41729297 164 83 C164 82.01 164 81.02 164 80 C165.98 80 167.96 80 170 80 C170 80.33 170 80.66 170 81 C174.23582327 81.04938628 178.47149465 81.08571263 182.70751953 81.10986328 C184.14895547 81.11992963 185.59037095 81.1335838 187.03173828 81.15087891 C189.10193934 81.17510012 191.17187076 81.18647641 193.2421875 81.1953125 C194.4885498 81.20578613 195.73491211 81.21625977 197.01904297 81.22705078 C200.11771631 81.31652492 200.11771631 81.31652492 202 79 C201.01 75.535 201.01 75.535 200 72 C199.67 72 199.34 72 199 72 C199 70.35 199 68.7 199 67 C199.66 66.67 200.32 66.34 201 66 C201 66.66 201 67.32 201 68 C201.99 68 202.98 68 204 68 C204.33 66.68 204.66 65.36 205 64 C205.99 64 206.98 64 208 64 C208.33 65.65 208.66 67.3 209 69 C209.33 68.01 209.66 67.02 210 66 C209.46274105 69.37705625 208.88935377 72.696686 208 76 C210.97 76.99 210.97 76.99 214 78 C214 78.66 214 79.32 214 80 C214.66 79.67 215.32 79.34 216 79 C217.68899124 78.78843994 219.38488053 78.6308759 221.08203125 78.5 C222.14607178 78.41782227 223.2101123 78.33564453 224.30639648 78.25097656 C226.04191772 78.12674316 226.04191772 78.12674316 227.8125 78 C229.59346069 77.87189941 229.59346069 77.87189941 231.41040039 77.74121094 C240.58155072 77.11107247 249.75257375 76.62117843 258.9375 76.25 C260.80208862 76.16492188 260.80208862 76.16492188 262.7043457 76.078125 C263.86281006 76.036875 265.02127441 75.995625 266.21484375 75.953125 C267.74806274 75.89366699 267.74806274 75.89366699 269.31225586 75.83300781 C272.07838777 76.00487031 273.65407212 76.57237827 276 78 C275.01 78 274.02 78 273 78 C273 78.66 273 79.32 273 80 C274.175625 79.9175 275.35125 79.835 276.5625 79.75 C281.36548011 79.71575415 284.05599047 81.37066032 288 84 C288 84.66 288 85.32 288 86 C288.66 86 289.32 86 290 86 C290 86.66 290 87.32 290 88 C290.61488281 87.82082031 291.22976563 87.64164062 291.86328125 87.45703125 C293.07564453 87.13798828 293.07564453 87.13798828 294.3125 86.8125 C295.11300781 86.59207031 295.91351563 86.37164062 296.73828125 86.14453125 C297.48464844 86.09683594 298.23101562 86.04914063 299 86 C299.4434375 86.474375 299.886875 86.94875 300.34375 87.4375 C303.00006385 89.94345646 305.6506729 89.28484387 309.1875 89.1875 C311.09595703 89.14689453 311.09595703 89.14689453 313.04296875 89.10546875 C314.01878906 89.07066406 314.99460937 89.03585938 316 89 C316 89.66 316 90.32 316 91 C314.515 91.495 314.515 91.495 313 92 C312.67 92.99 312.34 93.98 312 95 C312.68707031 95.06058594 313.37414062 95.12117188 314.08203125 95.18359375 C315.43361328 95.30927734 315.43361328 95.30927734 316.8125 95.4375 C318.15248047 95.55931641 318.15248047 95.55931641 319.51953125 95.68359375 C322 96 322 96 325 97 C325.8125 98.9375 325.8125 98.9375 326 101 C323.23776722 103.76223278 320.79293383 103.57856291 317 104 C317.33 104.66 317.66 105.32 318 106 C311.42150508 106.95494281 305.58183362 106.8931507 299 106 C299 106.99 299 107.98 299 109 C305.93 109.33 312.86 109.66 320 110 C320.33 109.34 320.66 108.68 321 108 C322.98 108 324.96 108 327 108 C327 109.65 327 111.3 327 113 C323.95827281 113.0271045 320.91679003 113.04688964 317.875 113.0625 C317.0190625 113.07087891 316.163125 113.07925781 315.28125 113.08789062 C310.73321589 113.10538306 306.47616836 112.93192358 302 112 C302 112.66 302 113.32 302 114 C292.67338031 114.6173649 283.34751198 115.1203588 274 115.25 C272.84395264 115.2819043 272.84395264 115.2819043 271.66455078 115.31445312 C269.5 115.328125 269.5 115.328125 266 115 C263.67960686 111.51941029 264 111.01857088 264 107 C265.65 106.67 267.3 106.34 269 106 C269 106.99 269 107.98 269 109 C273.62 108.67 278.24 108.34 283 108 C283.33 107.01 283.66 106.02 284 105 C283.401875 104.71125 282.80375 104.4225 282.1875 104.125 C280 103 280 103 277 101 C274.37468476 100.83286431 274.37468476 100.83286431 272 101 C272 99.68 272 98.36 272 97 C273.81242052 96.97312721 275.62495233 96.95366285 277.4375 96.9375 C278.44683594 96.92589844 279.45617187 96.91429688 280.49609375 96.90234375 C283 97 283 97 284 98 C284.66 97.01 285.32 96.02 286 95 C289.96 95.495 289.96 95.495 294 96 C294.33 97.98 294.66 99.96 295 102 C295.66 100.68 296.32 99.36 297 98 C297.66 98 298.32 98 299 98 C298.67 96.35 298.34 94.7 298 93 C297.34 93 296.68 93 296 93 C296 91.68 296 90.36 296 89 C285.605 89.495 285.605 89.495 275 90 C275 90.66 275 91.32 275 92 C273.68 92 272.36 92 271 92 C272 89 272 89 273 88 C267.39 88 261.78 88 256 88 C256 88.66 256 89.32 256 90 C255.01 90.33 254.02 90.66 253 91 C252.19787372 92.87387216 252.19787372 92.87387216 251.8125 95.0625 C251.65394531 95.79597656 251.49539062 96.52945313 251.33203125 97.28515625 C251.22246094 97.85105469 251.11289063 98.41695313 251 99 C250.113125 98.79375 249.22625 98.5875 248.3125 98.375 C244.66516567 97.96209423 243.29882149 98.59800087 240 100 C236.01991246 100.32490511 233.42113409 100.10531329 230 98 C230 97.34 230 96.68 230 96 C228.6078125 95.814375 228.6078125 95.814375 227.1875 95.625 C224 95 224 95 221 93 C222.65 91.68 224.3 90.36 226 89 C218.68925318 87.33405548 211.47834967 86.48827713 204 86 C204 84.68 204 83.36 204 82 C203.34 82 202.68 82 202 82 C202 83.32 202 84.64 202 86 C187.81 86.33 173.62 86.66 159 87 C159.33 87.33 159.66 87.66 160 88 C160.04063832 89.66617115 160.042721 91.33388095 160 93 C159.01 93 158.02 93 157 93 C156.67 94.32 156.34 95.64 156 97 C155.34 96.67 154.68 96.34 154 96 C152.68 96 151.36 96 150 96 C150.99 94.02 150.99 94.02 152 92 C151.34 91.67 150.68 91.34 150 91 C150 90.01 150 89.02 150 88 C146.535 88.99 146.535 88.99 143 90 C142.67 91.32 142.34 92.64 142 94 C143.65 94.33 145.3 94.66 147 95 C147 95.99 147 96.98 147 98 C144.31146293 98.89617902 142.67533599 99.13234584 139.91015625 99.17578125 C139.12576172 99.19962891 138.34136719 99.22347656 137.53320312 99.24804688 C135.89023579 99.29090689 134.24692528 99.32221693 132.60351562 99.34179688 C127.67809421 99.44600815 127.67809421 99.44600815 123.62109375 102.04296875 C123.08613281 102.68878906 122.55117187 103.33460937 122 104 C121.01 104 120.02 104 119 104 C118.67 104.66 118.34 105.32 118 106 C117.01 105.01 116.02 104.02 115 103 C114.34 105.31 113.68 107.62 113 110 C112.17361624 107.10765685 112 105.11257569 112 102 C112.66 101.67 113.32 101.34 114 101 C108.39 101 102.78 101 97 101 C97 101.66 97 102.32 97 103 C95.35 103.33 93.7 103.66 92 104 C92 104.66 92 105.32 92 106 C93.98 106.99 93.98 106.99 96 108 C94.68 108.33 93.36 108.66 92 109 C92 109.66 92 110.32 92 111 C92.66 111.66 93.32 112.32 94 113 C89.05 113.495 89.05 113.495 84 114 C84 114.66 84 115.32 84 116 C85.134375 115.979375 86.26875 115.95875 87.4375 115.9375 C91 116 91 116 92 117 C92 119.33333333 92 121.66666667 92 124 C92.33 124.66 92.66 125.32 93 126 C93.99 126 94.98 126 96 126 C96 127.32 96 128.64 96 130 C98.97 129.67 101.94 129.34 105 129 C105 129.99 105 130.98 105 132 C105.66 132 106.32 132 107 132 C107 131.34 107 130.68 107 130 C107.99 130 108.98 130 110 130 C110 129.01 110 128.02 110 127 C111.98 127.495 111.98 127.495 114 128 C114 127.34 114 126.68 114 126 C114.99 126 115.98 126 117 126 C117.495 124.515 117.495 124.515 118 123 C120.0625 122.3125 120.0625 122.3125 122 122 C119.525 124.97 119.525 124.97 117 128 C120.63 128.99 124.26 129.98 128 131 C128.66 129.35 129.32 127.7 130 126 C129.34 125.34 128.68 124.68 128 124 C131.21451269 122.39274365 134.43612536 122.94251815 138 123 C138 122.34 138 121.68 138 121 C139.32 120.67 140.64 120.34 142 120 C142.33 120.66 142.66 121.32 143 122 C143.33 118.7 143.66 115.4 144 112 C146.66305904 113.33152952 147.24864056 115.22232228 148.51171875 117.8203125 C149.22230004 120.99234736 148.50199163 123.81710045 148 127 C148.84445175 126.99666908 148.84445175 126.99666908 149.70596313 126.99327087 C155.57854578 126.97110446 161.45111648 126.95604603 167.32373047 126.94506836 C169.51383955 126.9400474 171.70394529 126.93322934 173.89404297 126.92456055 C177.04655788 126.91239696 180.19902836 126.90674923 183.3515625 126.90234375 C184.8144017 126.89460182 184.8144017 126.89460182 186.30679321 126.88670349 C190.98880819 126.88631931 195.39501684 127.02573929 200 128 C200 128.33 200 128.66 200 129 C184.16 129.33 168.32 129.66 152 130 C152 130.66 152 131.32 152 132 C151.34 132 150.68 132 150 132 C149.67 132.66 149.34 133.32 149 134 C148.34 133.67 147.68 133.34 147 133 C146.375 130.4375 146.375 130.4375 146 128 C145.01 128 144.02 128 143 128 C143.99 130.475 143.99 130.475 145 133 C134.50900456 137.68382011 120.16533168 137.03006031 109 135 C108.67 135.99 108.34 136.98 108 138 C94.23020864 139.58114661 80.51226595 140.33375209 66.66381836 140.65795898 C59.09801584 140.80593023 59.09801584 140.80593023 51.58203125 141.58984375 C48.31373415 141.96407624 45.62250502 141.78936095 42.38818359 141.29785156 C36.89762221 140.61307494 31.33785694 140.56937365 25.8125 140.375 C24.55501953 140.3234375 23.29753906 140.271875 22.00195312 140.21875 C20.1853418 140.15300781 20.1853418 140.15300781 18.33203125 140.0859375 C17.23608643 140.0451709 16.1401416 140.0044043 15.01098633 139.96240234 C12.19212112 139.99760102 9.73396319 140.34339206 7 141 C7 140.01 7 139.02 7 138 C5.02 138 3.04 138 1 138 C1 140.64 1 143.28 1 146 C0.67 146 0.34 146 0 146 C0 97.82 0 49.64 0 0 Z M207 78 C206.67 78.66 206.34 79.32 206 80 C206.66 80 207.32 80 208 80 C207.67 79.34 207.34 78.68 207 78 Z M286 103 C285.67 104.32 285.34 105.64 285 107 C286.32 107.33 287.64 107.66 289 108 C288.67 106.35 288.34 104.7 288 103 C287.34 103 286.68 103 286 103 Z " fill="#372B2E" transform="translate(0,0)"/>
<path d="M0 0 C0.99 0.495 0.99 0.495 2 1 C2.02696009 3.7708983 2.04681952 6.5415345 2.0625 9.3125 C2.07087891 10.09818359 2.07925781 10.88386719 2.08789062 11.69335938 C2.09111328 12.45068359 2.09433594 13.20800781 2.09765625 13.98828125 C2.10289307 14.68477783 2.10812988 15.38127441 2.11352539 16.09887695 C2 18 2 18 1 21 C1.66 20.67 2.32 20.34 3 20 C6.47381658 19.76052359 9.95633814 19.81480999 13.4375 19.8125 C14.88866211 19.79413086 14.88866211 19.79413086 16.36914062 19.77539062 C17.76229492 19.77249023 17.76229492 19.77249023 19.18359375 19.76953125 C20.46061157 19.76336792 20.46061157 19.76336792 21.76342773 19.75708008 C24 20 24 20 27 22 C27.33 21.34 27.66 20.68 28 20 C28.11269443 26.1105424 27.89604368 31.95170514 27 38 C28.32 38.33 29.64 38.66 31 39 C30.67 41.31 30.34 43.62 30 46 C30.2475 45.360625 30.495 44.72125 30.75 44.0625 C32 42 32 42 34.125 41.25 C34.74375 41.1675 35.3625 41.085 36 41 C36.103125 40.360625 36.20625 39.72125 36.3125 39.0625 C36.539375 38.381875 36.76625 37.70125 37 37 C41.05047576 35.64984141 43.7920168 36.37915002 48 37 C47.814375 36.278125 47.62875 35.55625 47.4375 34.8125 C46.98004693 31.87173027 47.26483643 29.85896942 48 27 C49.32 27.33 50.64 27.66 52 28 C52.45375 27.195625 52.9075 26.39125 53.375 25.5625 C57.16782534 21.85998002 60.87266134 22.10763497 66 22 C65.34 24.64 64.68 27.28 64 30 C63.505 29.01 63.505 29.01 63 28 C59.75016865 29.08784968 59.75016865 29.08784968 57 31 C61.00254456 31.09181134 61.00254456 31.09181134 65 31 C65.495 30.505 65.495 30.505 66 30 C67.51928038 29.92820036 69.04167482 29.91607993 70.5625 29.9375 C71.38878906 29.94652344 72.21507813 29.95554687 73.06640625 29.96484375 C74.02353516 29.98224609 74.02353516 29.98224609 75 30 C75 30.66 75 31.32 75 32 C76.65 31.67 78.3 31.34 80 31 C80 29.02 80 27.04 80 25 C85.28 25 90.56 25 96 25 C95.67 25.66 95.34 26.32 95 27 C94.01 27 93.02 27 92 27 C92 27.66 92 28.32 92 29 C92.99 29.99 92.99 29.99 94 31 C90.7 31.33 87.4 31.66 84 32 C84 32.66 84 33.32 84 34 C85.7015625 33.9690625 85.7015625 33.9690625 87.4375 33.9375 C91 34 91 34 92 35 C92 37.33333333 92 39.66666667 92 42 C92.33 42.66 92.66 43.32 93 44 C93.99 44 94.98 44 96 44 C96 45.32 96 46.64 96 48 C100.455 47.505 100.455 47.505 105 47 C105 47.99 105 48.98 105 50 C105.66 50 106.32 50 107 50 C107 49.34 107 48.68 107 48 C107.99 48 108.98 48 110 48 C110 47.01 110 46.02 110 45 C111.98 45.495 111.98 45.495 114 46 C114 45.34 114 44.68 114 44 C114.99 44 115.98 44 117 44 C117.33 43.01 117.66 42.02 118 41 C120.0625 40.3125 120.0625 40.3125 122 40 C120.35 41.98 118.7 43.96 117 46 C120.63 46.99 124.26 47.98 128 49 C128.66 47.35 129.32 45.7 130 44 C129.34 43.34 128.68 42.68 128 42 C131.21451269 40.39274365 134.43612536 40.94251815 138 41 C138 40.34 138 39.68 138 39 C139.32 38.67 140.64 38.34 142 38 C142.33 38.66 142.66 39.32 143 40 C143.33 36.7 143.66 33.4 144 30 C146.66305904 31.33152952 147.24864056 33.22232228 148.51171875 35.8203125 C149.22230004 38.99234736 148.50199163 41.81710045 148 45 C148.84445175 44.99666908 148.84445175 44.99666908 149.70596313 44.99327087 C155.57854578 44.97110446 161.45111648 44.95604603 167.32373047 44.94506836 C169.51383955 44.9400474 171.70394529 44.93322934 173.89404297 44.92456055 C177.04655788 44.91239696 180.19902836 44.90674923 183.3515625 44.90234375 C184.8144017 44.89460182 184.8144017 44.89460182 186.30679321 44.88670349 C190.98880819 44.88631931 195.39501684 45.02573929 200 46 C200 46.33 200 46.66 200 47 C184.16 47.33 168.32 47.66 152 48 C152 48.66 152 49.32 152 50 C151.34 50 150.68 50 150 50 C149.67 50.66 149.34 51.32 149 52 C148.34 51.67 147.68 51.34 147 51 C146.375 48.4375 146.375 48.4375 146 46 C145.01 46 144.02 46 143 46 C143.99 48.475 143.99 48.475 145 51 C134.50900456 55.68382011 120.16533168 55.03006031 109 53 C108.67 53.99 108.34 54.98 108 56 C94.23020864 57.58114661 80.51226595 58.33375209 66.66381836 58.65795898 C59.09801584 58.80593023 59.09801584 58.80593023 51.58203125 59.58984375 C48.31373415 59.96407624 45.62250502 59.78936095 42.38818359 59.29785156 C36.89762221 58.61307494 31.33785694 58.56937365 25.8125 58.375 C23.9262793 58.29765625 23.9262793 58.29765625 22.00195312 58.21875 C20.79087891 58.17492187 19.57980469 58.13109375 18.33203125 58.0859375 C16.68811401 58.0247876 16.68811401 58.0247876 15.01098633 57.96240234 C12.19212112 57.99760102 9.73396319 58.34339206 7 59 C7 58.01 7 57.02 7 56 C5.02 56 3.04 56 1 56 C1 58.64 1 61.28 1 64 C0.67 64 0.34 64 0 64 C0 42.88 0 21.76 0 0 Z " fill="#1D0910" transform="translate(0,82)"/>
<path d="M0 0 C0.99 0 1.98 0 3 0 C3.495 2.475 3.495 2.475 4 5 C4.33 4.01 4.66 3.02 5 2 C4.46274105 5.37705625 3.88935377 8.696686 3 12 C4.98 12.66 6.96 13.32 9 14 C9 14.66 9 15.32 9 16 C9.66 15.67 10.32 15.34 11 15 C12.68899124 14.78843994 14.38488053 14.6308759 16.08203125 14.5 C17.14607178 14.41782227 18.2101123 14.33564453 19.30639648 14.25097656 C20.46341064 14.1681543 21.6204248 14.08533203 22.8125 14 C23.99980713 13.91459961 25.18711426 13.82919922 26.41040039 13.74121094 C35.58155072 13.11107247 44.75257375 12.62117843 53.9375 12.25 C55.18055908 12.19328125 56.42361816 12.1365625 57.7043457 12.078125 C59.44204224 12.01625 59.44204224 12.01625 61.21484375 11.953125 C62.74806274 11.89366699 62.74806274 11.89366699 64.31225586 11.83300781 C67.07838777 12.00487031 68.65407212 12.57237827 71 14 C70.01 14 69.02 14 68 14 C68 14.66 68 15.32 68 16 C69.175625 15.9175 70.35125 15.835 71.5625 15.75 C76.36548011 15.71575415 79.05599047 17.37066032 83 20 C83 20.66 83 21.32 83 22 C83.66 22 84.32 22 85 22 C85 22.66 85 23.32 85 24 C85.61488281 23.82082031 86.22976563 23.64164063 86.86328125 23.45703125 C87.67152344 23.24433594 88.47976563 23.03164062 89.3125 22.8125 C90.11300781 22.59207031 90.91351563 22.37164062 91.73828125 22.14453125 C92.85783203 22.07298828 92.85783203 22.07298828 94 22 C94.4434375 22.474375 94.886875 22.94875 95.34375 23.4375 C98.00006385 25.94345646 100.6506729 25.28484387 104.1875 25.1875 C105.45980469 25.16042969 106.73210937 25.13335937 108.04296875 25.10546875 C109.01878906 25.07066406 109.99460937 25.03585938 111 25 C111 25.66 111 26.32 111 27 C110.01 27.33 109.02 27.66 108 28 C107.67 28.99 107.34 29.98 107 31 C108.03060547 31.09087891 108.03060547 31.09087891 109.08203125 31.18359375 C110.43361328 31.30927734 110.43361328 31.30927734 111.8125 31.4375 C112.70582031 31.51871094 113.59914063 31.59992188 114.51953125 31.68359375 C117 32 117 32 120 33 C120.8125 34.9375 120.8125 34.9375 121 37 C118.23776722 39.76223278 115.79293383 39.57856291 112 40 C112.33 40.66 112.66 41.32 113 42 C106.42150508 42.95494281 100.58183362 42.8931507 94 42 C94 42.99 94 43.98 94 45 C100.93 45.33 107.86 45.66 115 46 C115.33 45.34 115.66 44.68 116 44 C117.98 44 119.96 44 122 44 C122 45.65 122 47.3 122 49 C118.95827281 49.0271045 115.91679003 49.04688964 112.875 49.0625 C112.0190625 49.07087891 111.163125 49.07925781 110.28125 49.08789062 C105.73321589 49.10538306 101.47616836 48.93192358 97 48 C97 48.66 97 49.32 97 50 C87.67338031 50.6173649 78.34751198 51.1203588 69 51.25 C67.84395264 51.2819043 67.84395264 51.2819043 66.66455078 51.31445312 C64.5 51.328125 64.5 51.328125 61 51 C58.67960686 47.51941029 59 47.01857088 59 43 C60.65 42.67 62.3 42.34 64 42 C64 42.99 64 43.98 64 45 C68.62 44.67 73.24 44.34 78 44 C78.33 43.01 78.66 42.02 79 41 C78.401875 40.71125 77.80375 40.4225 77.1875 40.125 C75 39 75 39 72 37 C69.37468476 36.83286431 69.37468476 36.83286431 67 37 C67 35.68 67 34.36 67 33 C68.81242052 32.97312721 70.62495233 32.95366285 72.4375 32.9375 C73.44683594 32.92589844 74.45617187 32.91429687 75.49609375 32.90234375 C78 33 78 33 79 34 C79.66 33.01 80.32 32.02 81 31 C83.64 31.33 86.28 31.66 89 32 C89.33 33.98 89.66 35.96 90 38 C90.66 36.68 91.32 35.36 92 34 C92.66 34 93.32 34 94 34 C93.67 32.35 93.34 30.7 93 29 C92.34 29 91.68 29 91 29 C91 27.68 91 26.36 91 25 C80.605 25.495 80.605 25.495 70 26 C70 26.66 70 27.32 70 28 C68.68 28 67.36 28 66 28 C67 25 67 25 68 24 C62.39 24 56.78 24 51 24 C51 24.66 51 25.32 51 26 C49.515 26.495 49.515 26.495 48 27 C47.19787372 28.87387216 47.19787372 28.87387216 46.8125 31.0625 C46.65394531 31.79597656 46.49539062 32.52945313 46.33203125 33.28515625 C46.22246094 33.85105469 46.11289063 34.41695312 46 35 C45.113125 34.79375 44.22625 34.5875 43.3125 34.375 C39.66516567 33.96209423 38.29882149 34.59800087 35 36 C31.01991246 36.32490511 28.42113409 36.10531329 25 34 C25 33.34 25 32.68 25 32 C24.071875 31.87625 23.14375 31.7525 22.1875 31.625 C19 31 19 31 16 29 C17.65 27.68 19.3 26.36 21 25 C13.68925318 23.33405548 6.47834967 22.48827713 -1 22 C-1 20.68 -1 19.36 -1 18 C-1.66 18 -2.32 18 -3 18 C-3 19.32 -3 20.64 -3 22 C-22.14 22 -41.28 22 -61 22 C-60.34 21.67 -59.68 21.34 -59 21 C-59 20.01 -59 19.02 -59 18 C-56.75006641 17.97292861 -54.50003905 17.95357171 -52.25 17.9375 C-50.99703125 17.92589844 -49.7440625 17.91429688 -48.453125 17.90234375 C-45.71463499 17.97978973 -43.58119707 18.17219185 -41 19 C-41 18.01 -41 17.02 -41 16 C-39.02 16 -37.04 16 -35 16 C-35 16.33 -35 16.66 -35 17 C-30.76417673 17.04938628 -26.52850535 17.08571263 -22.29248047 17.10986328 C-20.85104453 17.11992963 -19.40962905 17.1335838 -17.96826172 17.15087891 C-15.89806066 17.17510012 -13.82812924 17.18647641 -11.7578125 17.1953125 C-10.5114502 17.20578613 -9.26508789 17.21625977 -7.98095703 17.22705078 C-4.88228369 17.31652492 -4.88228369 17.31652492 -3 15 C-3.66 12.69 -4.32 10.38 -5 8 C-5.33 8 -5.66 8 -6 8 C-6 6.35 -6 4.7 -6 3 C-5.34 2.67 -4.68 2.34 -4 2 C-4 2.66 -4 3.32 -4 4 C-3.01 4 -2.02 4 -1 4 C-0.67 2.68 -0.34 1.36 0 0 Z M2 14 C1.67 14.66 1.34 15.32 1 16 C1.66 16 2.32 16 3 16 C2.67 15.34 2.34 14.68 2 14 Z M81 39 C80.67 40.32 80.34 41.64 80 43 C81.32 43.33 82.64 43.66 84 44 C83.67 42.35 83.34 40.7 83 39 C82.34 39 81.68 39 81 39 Z " fill="#2E1D1F" transform="translate(205,64)"/>
<path d="M0 0 C1.65 0.33 3.3 0.66 5 1 C5 2.32 5 3.64 5 5 C5.66 5 6.32 5 7 5 C7 5.66 7 6.32 7 7 C7.66 7 8.32 7 9 7 C9.495 8.485 9.495 8.485 10 10 C12.21455354 12.16679712 13.53000602 12.942219 16.62567139 13.32279968 C18.127258 13.28615959 18.127258 13.28615959 19.65917969 13.2487793 C21.38078056 13.21840073 21.38078056 13.21840073 23.13716125 13.18740845 C25.01059456 13.13137955 25.01059456 13.13137955 26.921875 13.07421875 C28.92776946 13.03376112 30.93366408 12.99331052 32.9395647 12.95315933 C35.075843 12.90757385 37.21182048 12.85458577 39.34786987 12.79934692 C45.98289318 12.6279595 52.61877019 12.49761567 59.25466728 12.36525536 C60.74738224 12.33522023 62.24008491 12.30456869 63.73277473 12.27330971 C73.79599537 12.06276317 83.85196406 11.95275381 93.91796875 11.9921875 C95.04375336 11.99646255 96.16953796 12.00073761 97.32943726 12.00514221 C102.57044097 12.02991533 107.81098414 12.07146657 113.05175781 12.12573242 C114.89778542 12.13737255 116.74381402 12.14885721 118.58984375 12.16015625 C119.4231572 12.17364105 120.25647064 12.18712585 121.11503601 12.20101929 C123.0778153 12.20975564 125.04056637 12.11488579 127 12 C127.66 11.34 128.32 10.68 129 10 C129.33 10.99 129.66 11.98 130 13 C128.89118958 15.15238953 128.89118958 15.15238953 127 17 C124.60746765 17.52571106 124.60746765 17.52571106 121.7409668 17.56176758 C120.66521896 17.5847139 119.58947113 17.60766022 118.48112488 17.63130188 C117.31559586 17.63566757 116.15006683 17.64003326 114.94921875 17.64453125 C113.74368851 17.66343918 112.53815826 17.68234711 111.2960968 17.701828 C108.73649381 17.73839155 106.17674105 17.76549204 103.61694336 17.78393555 C99.74085666 17.81211213 95.86593625 17.86715722 91.99023438 17.92773438 C89.49741596 17.95993102 87.00457694 17.99057705 84.51171875 18.01953125 C83.36845627 18.0340181 82.22519379 18.04850494 81.04728699 18.06343079 C72.9898353 18.1155704 65.02804537 17.67657467 57 17 C56.87625 17.61875 56.7525 18.2375 56.625 18.875 C56 21 56 21 54 23 C44.77800683 25.18778126 35.11569652 25.54318919 25.6875 26.125 C24.34957533 26.21171584 23.01168434 26.29895303 21.67382812 26.38671875 C18.44950999 26.59624123 15.22495624 26.80058427 12 27 C11.505 26.01 11.505 26.01 11 25 C9.35 25 7.7 25 6 25 C5.19032562 22.08517222 4.78154007 20.53886783 5.9375 17.6875 C6.288125 17.130625 6.63875 16.57375 7 16 C6.01 15.67 5.02 15.34 4 15 C4.66 15 5.32 15 6 15 C6 13.68 6 12.36 6 11 C5.01 11 4.02 11 3 11 C2.67 12.32 2.34 13.64 2 15 C0.68 14.67 -0.64 14.34 -2 14 C-1.835 14.515625 -1.67 15.03125 -1.5 15.5625 C-0.84951 18.73363876 -0.9379266 21.77218334 -1 25 C-0.34 25.33 0.32 25.66 1 26 C-0.05297852 27.47729492 -0.05297852 27.47729492 -2 29 C-5.21459961 29.37231445 -5.21459961 29.37231445 -9.15234375 29.36328125 C-9.84888565 29.36377975 -10.54542755 29.36427826 -11.26307678 29.36479187 C-12.73490249 29.36245363 -14.20673237 29.35273966 -15.6784668 29.33618164 C-17.92598435 29.31262072 -20.17231244 29.31561808 -22.41992188 29.32226562 C-34.4177159 29.27551759 -34.4177159 29.27551759 -38 27 C-38 27.99 -38 28.98 -38 30 C-41.27116732 29.86111494 -44.541834 29.71269508 -47.8125 29.5625 C-48.74126953 29.52318359 -49.67003906 29.48386719 -50.62695312 29.44335938 C-51.51962891 29.40146484 -52.41230469 29.35957031 -53.33203125 29.31640625 C-54.15421143 29.27974854 -54.9763916 29.24309082 -55.82348633 29.20532227 C-58 29 -58 29 -61 28 C-61 29.65 -61 31.3 -61 33 C-61.66 33 -62.32 33 -63 33 C-63 31.02 -63 29.04 -63 27 C-69.27 26.34 -75.54 25.68 -82 25 C-81.67 23.68 -81.34 22.36 -81 21 C-80.41992188 21.01160156 -79.83984375 21.02320312 -79.2421875 21.03515625 C-74.73125577 21.08726272 -70.40758483 21.10189621 -66 20 C-65.67 19.34 -65.34 18.68 -65 18 C-70.61 18 -76.22 18 -82 18 C-82 17.67 -82 17.34 -82 17 C-87.32170494 16.70437633 -87.32170494 16.70437633 -92 19 C-92 17.68 -92 16.36 -92 15 C-93.32 15 -94.64 15 -96 15 C-95.67 16.32 -95.34 17.64 -95 19 C-95.66 19 -96.32 19 -97 19 C-97 18.34 -97 17.68 -97 17 C-98.65 16.67 -100.3 16.34 -102 16 C-102.12529002 10.48723898 -102.12529002 10.48723898 -101.4375 7.8125 C-100.77806294 5.7824796 -100.77806294 5.7824796 -102 3 C-100.02 3.99 -100.02 3.99 -98 5 C-98 6.98 -98 8.96 -98 11 C-97.34 11 -96.68 11 -96 11 C-96 11.66 -96 12.32 -96 13 C-95.01 13 -94.02 13 -93 13 C-93 12.34 -93 11.68 -93 11 C-92.34 11 -91.68 11 -91 11 C-90.67 11.66 -90.34 12.32 -90 13 C-61.95 13 -33.9 13 -5 13 C-4.67 11.35 -4.34 9.7 -4 8 C-3.34 8 -2.68 8 -2 8 C-2 7.34 -2 6.68 -2 6 C-1.34 6 -0.68 6 0 6 C0 4.02 0 2.04 0 0 Z M5 25 C5.33 25.66 5.66 26.32 6 27 C5.34 26.67 4.68 26.34 4 26 C4.33 25.67 4.66 25.34 5 25 Z " fill="#473636" transform="translate(202,53)"/>
<path d="M0 0 C0.66 0 1.32 0 2 0 C2 1.98 2 3.96 2 6 C5.96 6 9.92 6 14 6 C14 24.15 14 42.3 14 61 C12.68 60.34 11.36 59.68 10 59 C10.33 58.67 10.66 58.34 11 58 C10.30132812 57.89042969 9.60265625 57.78085938 8.8828125 57.66796875 C7.51769531 57.43013672 7.51769531 57.43013672 6.125 57.1875 C5.22007812 57.03667969 4.31515625 56.88585937 3.3828125 56.73046875 C1 56 1 56 -1 53 C-1.38969971 53.48895752 -1.77939941 53.97791504 -2.1809082 54.48168945 C-4.59787463 56.4990179 -5.98830755 56.34702357 -9.10546875 56.29296875 C-10.08837891 56.28330078 -11.07128906 56.27363281 -12.08398438 56.26367188 C-13.10814453 56.23853516 -14.13230469 56.21339844 -15.1875 56.1875 C-16.22326172 56.17396484 -17.25902344 56.16042969 -18.32617188 56.14648438 C-20.88463699 56.11111389 -23.4420578 56.06175544 -26 56 C-24 54 -24 54 -22.02880859 53.86474609 C-21.24328613 53.91711426 -20.45776367 53.96948242 -19.6484375 54.0234375 C-18.79765625 54.075 -17.946875 54.1265625 -17.0703125 54.1796875 C-16.18085938 54.24414062 -15.29140625 54.30859375 -14.375 54.375 C-13.02921875 54.46007812 -13.02921875 54.46007812 -11.65625 54.546875 C-9.43671376 54.68854753 -7.21827598 54.8399704 -5 55 C-5 53.35 -5 51.7 -5 50 C-6.98 50 -8.96 50 -11 50 C-11.33 50.99 -11.66 51.98 -12 53 C-14.56280208 52.85845864 -17.12515485 52.71191438 -19.6875 52.5625 C-20.40873047 52.52318359 -21.12996094 52.48386719 -21.87304688 52.44335938 C-25.66707282 52.21814322 -29.28651492 51.87160695 -33 51 C-33 50.01 -33 49.02 -33 48 C-32.11957031 48.01160156 -31.23914063 48.02320313 -30.33203125 48.03515625 C-29.17058594 48.04417969 -28.00914062 48.05320313 -26.8125 48.0625 C-25.66394531 48.07410156 -24.51539063 48.08570313 -23.33203125 48.09765625 C-20.40699414 48.01192832 -17.83683709 47.67849023 -15 47 C-15.66 46.34 -16.32 45.68 -17 45 C-12.545 44.505 -12.545 44.505 -8 44 C-7.67 42.35 -7.34 40.7 -7 39 C-11.29 38.34 -15.58 37.68 -20 37 C-19.67 35.68 -19.34 34.36 -19 33 C-18.01 33 -17.02 33 -16 33 C-16 32.34 -16 31.68 -16 31 C-20.62 31 -25.24 31 -30 31 C-30.33 31.66 -30.66 32.32 -31 33 C-31 32.01 -31 31.02 -31 30 C-32.65614657 29.61781233 -34.32457024 29.28604898 -36 29 C-36.495 29.495 -36.495 29.495 -37 30 C-38.66617115 30.04063832 -40.33388095 30.042721 -42 30 C-42 29.34 -42 28.68 -42 28 C-42.66 28 -43.32 28 -44 28 C-44 27.34 -44 26.68 -44 26 C-44.5775 25.87625 -45.155 25.7525 -45.75 25.625 C-48 25 -48 25 -49.75 23.9375 C-53.18266365 22.50722348 -56.30017984 22.87667266 -60 23 C-60 21.68 -60 20.36 -60 19 C-67.59 19 -75.18 19 -83 19 C-83 18.67 -83 18.34 -83 18 C-81.906875 17.938125 -80.81375 17.87625 -79.6875 17.8125 C-78.470625 17.544375 -77.25375 17.27625 -76 17 C-75.56784683 16.1708609 -75.13569366 15.3417218 -74.69044495 14.48745728 C-73 12 -73 12 -69.995224 11.38095093 C-68.76437576 11.38333771 -67.53352753 11.38572449 -66.26538086 11.38818359 C-65.24541771 11.37968636 -65.24541771 11.37968636 -64.20484924 11.37101746 C-61.9576201 11.35751388 -59.71200241 11.37845621 -57.46484375 11.3984375 C-55.90449414 11.39293938 -54.34415175 11.38481663 -52.78382874 11.37417603 C-48.67613257 11.35126915 -44.56896816 11.35552031 -40.46124268 11.36798096 C-33.88259322 11.38627752 -27.30425413 11.37642652 -20.7256794 11.34212112 C-18.4242989 11.33599593 -16.12357899 11.34930184 -13.82225037 11.36410522 C-12.41657335 11.36115846 -11.01089758 11.35750451 -9.60522461 11.35302734 C-8.37517197 11.35700531 -7.14511932 11.36098328 -5.87779236 11.36508179 C-4.92812088 11.2446048 -3.9784494 11.12412781 -3 11 C-1.06604999 8.09907498 -0.69868059 7.10325263 -0.375 3.8125 C-0.189375 1.9253125 -0.189375 1.9253125 0 0 Z " fill="#3C2B2D" transform="translate(332,58)"/>
<path d="M0 0 C0.99 0.495 0.99 0.495 2 1 C2.02696009 3.7708983 2.04681952 6.5415345 2.0625 9.3125 C2.07087891 10.09818359 2.07925781 10.88386719 2.08789062 11.69335938 C2.09111328 12.45068359 2.09433594 13.20800781 2.09765625 13.98828125 C2.10289307 14.68477783 2.10812988 15.38127441 2.11352539 16.09887695 C2 18 2 18 1 21 C1.66 20.67 2.32 20.34 3 20 C6.47381658 19.76052359 9.95633814 19.81480999 13.4375 19.8125 C14.88866211 19.79413086 14.88866211 19.79413086 16.36914062 19.77539062 C17.76229492 19.77249023 17.76229492 19.77249023 19.18359375 19.76953125 C20.46061157 19.76336792 20.46061157 19.76336792 21.76342773 19.75708008 C24 20 24 20 27 22 C27.33 21.34 27.66 20.68 28 20 C28.11269443 26.1105424 27.89604368 31.95170514 27 38 C28.32 38.33 29.64 38.66 31 39 C30.34 41.31 29.68 43.62 29 46 C28.34 46 27.68 46 27 46 C26.67 46.66 26.34 47.32 26 48 C25.34 47.01 24.68 46.02 24 45 C23.67 45.33 23.34 45.66 23 46 C17.72048114 46.42040613 12.77520694 46.54677703 8 44 C8 44.99 8 45.98 8 47 C5.36 47.33 2.72 47.66 0 48 C0 32.16 0 16.32 0 0 Z " fill="#27191E" transform="translate(0,82)"/>
<path d="M0 0 C5.28 0 10.56 0 16 0 C15.67 0.66 15.34 1.32 15 2 C14.01 2 13.02 2 12 2 C12 2.66 12 3.32 12 4 C12.66 4.66 13.32 5.32 14 6 C10.7 6.33 7.4 6.66 4 7 C4 7.66 4 8.32 4 9 C6.31 9 8.62 9 11 9 C11.33 9.99 11.66 10.98 12 12 C8.7 12 5.4 12 2 12 C2 17.94 2 23.88 2 30 C1.01 30 0.02 30 -1 30 C-1 29.34 -1 28.68 -1 28 C-3.31 28 -5.62 28 -8 28 C-8 28.66 -8 29.32 -8 30 C-10.64 30 -13.28 30 -16 30 C-15.86185777 26.0205267 -15.71320326 22.04151585 -15.5625 18.0625 C-15.52318359 16.92619141 -15.48386719 15.78988281 -15.44335938 14.61914062 C-15.40146484 13.53955078 -15.35957031 12.45996094 -15.31640625 11.34765625 C-15.27974854 10.34742432 -15.24309082 9.34719238 -15.20532227 8.31665039 C-15 6 -15 6 -14 5 C-12.48071962 4.92820036 -10.95832518 4.91607993 -9.4375 4.9375 C-8.61121094 4.94652344 -7.78492187 4.95554687 -6.93359375 4.96484375 C-6.29550781 4.97644531 -5.65742187 4.98804687 -5 5 C-5 5.66 -5 6.32 -5 7 C-3.35 6.67 -1.7 6.34 0 6 C0 4.02 0 2.04 0 0 Z " fill="#1A030B" transform="translate(80,107)"/>
<path d="M0 0 C2 2 4 4 6 6 C7.77171362 6.06437148 9.54606944 6.05688213 11.31860352 6.02172852 C12.46656403 6.0016272 13.61452454 5.98152588 14.79727173 5.96081543 C16.06171112 5.9337854 17.32615051 5.90675537 18.62890625 5.87890625 C20.64131728 5.84278593 22.65372846 5.80667312 24.66614532 5.77087975 C26.81798409 5.73181748 28.9697682 5.6904688 31.12155151 5.64846802 C38.54176807 5.50392987 45.96222077 5.37366823 53.3828125 5.25 C54.50056092 5.23121638 54.50056092 5.23121638 55.64089012 5.2120533 C65.73806301 5.04547164 75.8308196 4.96400307 85.9296875 5 C87.0547319 5.00378159 88.17977631 5.00756317 89.33891296 5.01145935 C94.57654114 5.03318622 99.81363911 5.07090879 105.05102539 5.12524414 C106.89729728 5.13702284 108.74357002 5.14866879 110.58984375 5.16015625 C111.83983658 5.18039856 111.83983658 5.18039856 113.11508179 5.2010498 C115.07784629 5.20976003 117.04058125 5.11488492 119 5 C119.66 4.34 120.32 3.68 121 3 C121.495 4.485 121.495 4.485 122 6 C120.84754944 8.15238953 120.84754944 8.15238953 119 10 C116.90354919 10.52571106 116.90354919 10.52571106 114.43920898 10.56176758 C113.03550301 10.59611908 113.03550301 10.59611908 111.60343933 10.63116455 C110.57801529 10.63557556 109.55259125 10.63998657 108.49609375 10.64453125 C106.87233574 10.67350494 106.87233574 10.67350494 105.21577454 10.70306396 C101.62296988 10.76028186 98.03066126 10.78722644 94.4375 10.8125 C91.94237407 10.84362658 89.44725682 10.87545607 86.95214844 10.90795898 C60.39834855 11.20054106 33.85167792 10.69172952 7.30609131 10.04469299 C5.20440274 10.00396141 3.10208323 10 1 10 C0.67 6.7 0.34 3.4 0 0 Z " fill="#453A42" transform="translate(210,60)"/>
<path d="M0 0 C2.97 0 5.94 0 9 0 C9 7.26 9 14.52 9 22 C11.31 22.33 13.62 22.66 16 23 C16 22.34 16 21.68 16 21 C18.31 21 20.62 21 23 21 C23 21.66 23 22.32 23 23 C23.99 23 24.98 23 26 23 C26 17.06 26 11.12 26 5 C29.3 5 32.6 5 36 5 C35 8 35 8 33.9765625 9.828125 C32.7701445 12.51119863 32.58410221 14.822569 32.375 17.75 C32.30023438 18.73484375 32.22546875 19.7196875 32.1484375 20.734375 C32.09945312 21.48203125 32.05046875 22.2296875 32 23 C34.56280208 22.85845864 37.12515485 22.71191438 39.6875 22.5625 C40.40873047 22.52318359 41.12996094 22.48386719 41.87304688 22.44335938 C45.66707282 22.21814322 49.28651492 21.87160695 53 21 C52.505 22.485 52.505 22.485 52 24 C38.23020864 25.58114661 24.51226595 26.33375209 10.66381836 26.65795898 C3.22099427 26.79025609 3.22099427 26.79025609 -4.16796875 27.5859375 C-9.52917609 28.16523208 -14.65015025 27.60150238 -20 27.0625 C-21.06089844 26.96259766 -22.12179688 26.86269531 -23.21484375 26.75976562 C-25.81073641 26.51420821 -28.40560004 26.26078061 -31 26 C-31 25.67 -31 25.34 -31 25 C-19.97636372 24.08949317 -9.05694276 23.8860109 2 24 C2 19.38 2 14.76 2 10 C1.34 10 0.68 10 0 10 C0 6.7 0 3.4 0 0 Z " fill="#24171D" transform="translate(56,114)"/>
<path d="M0 0 C0.99 0.33 1.98 0.66 3 1 C3 1.66 3 2.32 3 3 C3.66 3 4.32 3 5 3 C5 5.31 5 7.62 5 10 C5.66 10 6.32 10 7 10 C7 10.66 7 11.32 7 12 C6.34 12 5.68 12 5 12 C5 12.66 5 13.32 5 14 C5.94230469 13.81566406 6.88460938 13.63132812 7.85546875 13.44140625 C12.74425489 12.74335998 17.43560572 13.36646002 22.3125 13.9375 C24.10019385 14.13471889 25.88795131 14.33136239 27.67578125 14.52734375 C28.45864502 14.61749756 29.24150879 14.70765137 30.0480957 14.80053711 C32.00459487 15.03388648 32.00459487 15.03388648 34 15 C34.33 14.34 34.66 13.68 35 13 C36.98 13 38.96 13 41 13 C41 14.65 41 16.3 41 18 C37.95827281 18.0271045 34.91679003 18.04688964 31.875 18.0625 C31.0190625 18.07087891 30.163125 18.07925781 29.28125 18.08789062 C24.73321589 18.10538306 20.47616836 17.93192358 16 17 C16 17.66 16 18.32 16 19 C6.67338031 19.6173649 -2.65248802 20.1203588 -12 20.25 C-12.77069824 20.27126953 -13.54139648 20.29253906 -14.33544922 20.31445312 C-16.5 20.328125 -16.5 20.328125 -20 20 C-22.32039314 16.51941029 -22 16.01857088 -22 12 C-20.35 11.67 -18.7 11.34 -17 11 C-17 11.99 -17 12.98 -17 14 C-12.38 13.67 -7.76 13.34 -3 13 C-2.67 12.01 -2.34 11.02 -2 10 C-2.8971875 9.566875 -2.8971875 9.566875 -3.8125 9.125 C-6 8 -6 8 -9 6 C-11.62531524 5.83286431 -11.62531524 5.83286431 -14 6 C-14 4.68 -14 3.36 -14 2 C-12.18757948 1.97312721 -10.37504767 1.95366285 -8.5625 1.9375 C-7.55316406 1.92589844 -6.54382813 1.91429688 -5.50390625 1.90234375 C-3 2 -3 2 -2 3 C-1.34 2.01 -0.68 1.02 0 0 Z M0 8 C-0.33 9.32 -0.66 10.64 -1 12 C0.32 12.33 1.64 12.66 3 13 C2.67 11.35 2.34 9.7 2 8 C1.34 8 0.68 8 0 8 Z " fill="#2E2023" transform="translate(286,95)"/>
<path d="M0 0 C-1.32 0.33 -2.64 0.66 -4 1 C-4 1.66 -4 2.32 -4 3 C-4.99 3 -5.98 3 -7 3 C-7.33 4.98 -7.66 6.96 -8 9 C-7.01 9 -6.02 9 -5 9 C-5 9.66 -5 10.32 -5 11 C-3.453125 10.7215625 -3.453125 10.7215625 -1.875 10.4375 C1.76148442 10.02692918 4.45437009 10.221691 8 11 C8 11.66 8 12.32 8 13 C7.01 13.33 6.02 13.66 5 14 C4.19787372 15.87387216 4.19787372 15.87387216 3.8125 18.0625 C3.65394531 18.79597656 3.49539062 19.52945313 3.33203125 20.28515625 C3.22246094 20.85105469 3.11289063 21.41695312 3 22 C2.113125 21.79375 1.22625 21.5875 0.3125 21.375 C-3.33483433 20.96209423 -4.70117851 21.59800087 -8 23 C-11.98008754 23.32490511 -14.57886591 23.10531329 -18 21 C-18 20.34 -18 19.68 -18 19 C-18.928125 18.87625 -19.85625 18.7525 -20.8125 18.625 C-24 18 -24 18 -27 16 C-25.35 14.68 -23.7 13.36 -22 12 C-24.64 11.34 -27.28 10.68 -30 10 C-30 9.67 -30 9.34 -30 9 C-25.71 9.33 -21.42 9.66 -17 10 C-16.34 8.68 -15.68 7.36 -15 6 C-13.375 4.25 -13.375 4.25 -12 3 C-14.31 2.67 -16.62 2.34 -19 2 C-19 1.67 -19 1.34 -19 1 C-16.77100213 0.83109082 -14.54179338 0.66496313 -12.3125 0.5 C-10.45044922 0.36078125 -10.45044922 0.36078125 -8.55078125 0.21875 C-5.68500671 0.04220063 -2.86900043 -0.04388528 0 0 Z " fill="#302122" transform="translate(248,77)"/>
<path d="M0 0 C1.98 0.99 1.98 0.99 4 2 C4 3.98 4 5.96 4 8 C4.66 8 5.32 8 6 8 C6 8.66 6 9.32 6 10 C6.99 10 7.98 10 9 10 C9 9.34 9 8.68 9 8 C9.66 8 10.32 8 11 8 C11.33 8.66 11.66 9.32 12 10 C40.05 10 68.1 10 97 10 C96.67 11.98 96.34 13.96 96 16 C95.505 15.01 95.505 15.01 95 14 C91.37 14 87.74 14 84 14 C84 14.66 84 15.32 84 16 C73.44 16 62.88 16 52 16 C52 15.34 52 14.68 52 14 C46.50074579 13.95059071 41.00162058 13.91427605 35.50219727 13.89013672 C33.63108062 13.88007433 31.75997972 13.86642309 29.88891602 13.84912109 C27.20064409 13.82488316 24.51257994 13.81351937 21.82421875 13.8046875 C20.56782845 13.78920364 20.56782845 13.78920364 19.28605652 13.77340698 C14.34900507 13.76695383 14.34900507 13.76695383 10 16 C10 14.68 10 13.36 10 12 C8.68 12 7.36 12 6 12 C6.33 13.32 6.66 14.64 7 16 C6.34 16 5.68 16 5 16 C5 15.34 5 14.68 5 14 C3.35 13.67 1.7 13.34 0 13 C-0.12529002 7.48723898 -0.12529002 7.48723898 0.5625 4.8125 C1.22193706 2.7824796 1.22193706 2.7824796 0 0 Z " fill="#49444B" transform="translate(100,56)"/>
<path d="M0 0 C-0.99 0.33 -1.98 0.66 -3 1 C-3 1.66 -3 2.32 -3 3 C-0.69 3.66 1.62 4.32 4 5 C4 6.32 4 7.64 4 9 C-1.21979128 9.1799928 -5.07262981 8.97094808 -10 7 C-10 7.66 -10 8.32 -10 9 C-12.7902667 9.9300889 -14.76529542 10.18698769 -17.66796875 10.31640625 C-19.00698242 10.37924805 -19.00698242 10.37924805 -20.37304688 10.44335938 C-21.76620117 10.50233398 -21.76620117 10.50233398 -23.1875 10.5625 C-24.12787109 10.60568359 -25.06824219 10.64886719 -26.03710938 10.69335938 C-28.35792854 10.79938665 -30.67885325 10.90145029 -33 11 C-33 10.34 -33 9.68 -33 9 C-33.99 9 -34.98 9 -36 9 C-35.67 7.02 -35.34 5.04 -35 3 C-34.01 3 -33.02 3 -32 3 C-32 2.34 -32 1.68 -32 1 C-27.44881013 -0.26508089 -22.94791712 -0.39215863 -18.25 -0.625 C-16.94675781 -0.70234375 -16.94675781 -0.70234375 -15.6171875 -0.78125 C-10.25754223 -1.05486552 -5.30396152 -0.82643121 0 0 Z " fill="#2C1516" transform="translate(276,77)"/>
<path d="M0 0 C3 3.75 3 3.75 3 6 C3.99 6 4.98 6 6 6 C6 7.32 6 8.64 6 10 C10.455 9.505 10.455 9.505 15 9 C15 9.99 15 10.98 15 12 C15.66 12 16.32 12 17 12 C17 11.34 17 10.68 17 10 C17.99 10 18.98 10 20 10 C20 9.01 20 8.02 20 7 C21.32 7.33 22.64 7.66 24 8 C24 7.34 24 6.68 24 6 C24.99 6 25.98 6 27 6 C27.33 5.01 27.66 4.02 28 3 C30.0625 2.3125 30.0625 2.3125 32 2 C30.35 3.98 28.7 5.96 27 8 C29.475 10.475 29.475 10.475 32 13 C31 14 31 14 27.5625 14.1875 C24 14 24 14 22 12 C22 12.99 22 13.98 22 15 C14.09388645 17.63537118 6.23134837 17.17981101 -2 17 C-2.3690205 5.47835991 -2.3690205 5.47835991 0 0 Z " fill="#0C0306" transform="translate(90,120)"/>
<path d="M0 0 C2.97 0 5.94 0 9 0 C9 7.26 9 14.52 9 22 C11.31 22.33 13.62 22.66 16 23 C16.33 22.34 16.66 21.68 17 21 C17.99 21.66 18.98 22.32 20 23 C20 23.66 20 24.32 20 25 C8.12 25 -3.76 25 -16 25 C-16 24.67 -16 24.34 -16 24 C-10.06 24 -4.12 24 2 24 C2 19.38 2 14.76 2 10 C1.34 10 0.68 10 0 10 C0 6.7 0 3.4 0 0 Z " fill="#22131A" transform="translate(56,114)"/>
<path d="M0 0 C2 2 4 4 6 6 C8.02576314 6.06441554 10.05383991 6.05686983 12.08032227 6.02172852 C13.38159561 6.00163223 14.68286896 5.98153595 16.02357483 5.96083069 C17.45452069 5.93363013 18.88546445 5.90631936 20.31640625 5.87890625 C21.77228579 5.85461521 23.22817285 5.83077116 24.68406677 5.80735779 C28.52286319 5.74441559 32.36152707 5.67537792 36.20019531 5.60510254 C40.11452174 5.53451036 44.02894241 5.46963893 47.94335938 5.40429688 C55.62901046 5.27515399 63.31453057 5.13957639 71 5 C71 5.66 71 6.32 71 7 C64.73 7.33 58.46 7.66 52 8 C52 8.33 52 8.66 52 9 C47.16328499 10.25460629 42.42232738 10.12672101 37.46484375 10.09765625 C36.09133507 10.09553383 36.09133507 10.09553383 34.69007874 10.09336853 C31.77251877 10.087788 28.85503657 10.07525084 25.9375 10.0625 C23.97070425 10.05748142 22.00390728 10.05291914 20.03710938 10.04882812 C15.70533561 10.03901587 11.37360167 10.02482124 7.04185486 10.00672913 C5.02791293 10.00009199 3.01395287 10 1 10 C0.67 6.7 0.34 3.4 0 0 Z " fill="#48414B" transform="translate(210,60)"/>
<path d="M0 0 C2.76276177 0.52268466 5.3260876 1.10869587 8 2 C8.33 1.34 8.66 0.68 9 0 C9 0.66 9 1.32 9 2 C11.64 1.34 14.28 0.68 17 0 C17.66 3.3 18.32 6.6 19 10 C15.8815675 11.0394775 13.72524414 11.11494838 10.45703125 11.09765625 C9.38388672 11.09443359 8.31074219 11.09121094 7.20507812 11.08789062 C6.08552734 11.07951172 4.96597656 11.07113281 3.8125 11.0625 C2.68134766 11.05798828 1.55019531 11.05347656 0.38476562 11.04882812 C-2.41020927 11.03703498 -5.2050782 11.0205765 -8 11 C-8 8.69 -8 6.38 -8 4 C-5.36 3.67 -2.72 3.34 0 3 C0 2.01 0 1.02 0 0 Z " fill="#0C0204" transform="translate(8,126)"/>
<path d="M0 0 C4.93216988 0.38683685 8.81600986 1.31029205 13 4 C13.875 6.1875 13.875 6.1875 14 8 C4.8996069 12.06297042 -9.4067456 12.8508256 -19 10 C-19 9.01 -19 8.02 -19 7 C-16.03 7.33 -13.06 7.66 -10 8 C-11.98 7.34 -13.96 6.68 -16 6 C-16 5.67 -16 5.34 -16 5 C-14.39592672 4.97291433 -12.7917215 4.95356517 -11.1875 4.9375 C-10.29417969 4.92589844 -9.40085937 4.91429687 -8.48046875 4.90234375 C-6 5 -6 5 -3 6 C-2.690625 5.195625 -2.38125 4.39125 -2.0625 3.5625 C-1 1 -1 1 0 0 Z " fill="#170307" transform="translate(131,125)"/>
<path d="M0 0 C1.5778125 0.01353516 1.5778125 0.01353516 3.1875 0.02734375 C5.75024878 0.05064147 8.31249512 0.08334888 10.875 0.125 C7.875 2.125 7.875 2.125 5.875 2.125 C5.565625 2.74375 5.25625 3.3625 4.9375 4 C4.25 5.375 3.5625 6.75 2.875 8.125 C-5.7524658 8.33205918 -13.72128191 8.33962689 -22.125 6.125 C-22.125 4.805 -22.125 3.485 -22.125 2.125 C-14.6693133 0.29156665 -7.65775043 -0.12665491 0 0 Z " fill="#261012" transform="translate(228.125,78.875)"/>
<path d="M0 0 C0.99 0.66 1.98 1.32 3 2 C3.3984375 4.05859375 3.3984375 4.05859375 3.375 6.4375 C3.38273437 7.21996094 3.39046875 8.00242187 3.3984375 8.80859375 C3 11 3 11 1.82421875 12.796875 C-0.77584147 14.51168988 -2.50519758 14.1585329 -5.5625 13.8125 C-7.01849609 13.66748047 -7.01849609 13.66748047 -8.50390625 13.51953125 C-11 13 -11 13 -13 11 C-12.63723355 8.17042171 -11.90305236 5.70915709 -11 3 C-7.50187831 1.10912341 -5.74058949 0.96811324 -2 2 C-1.34 1.34 -0.68 0.68 0 0 Z " fill="#55435B" transform="translate(299,50)"/>
<path d="M0 0 C0.33 2.31 0.66 4.62 1 7 C-0.33804688 7.03867188 -0.33804688 7.03867188 -1.703125 7.078125 C-2.87359375 7.13484375 -4.0440625 7.1915625 -5.25 7.25 C-6.99023438 7.31960937 -6.99023438 7.31960937 -8.765625 7.390625 C-12.52147654 8.0982492 -13.50059482 9.23517126 -16 12 C-16.99 12 -17.98 12 -19 12 C-19.33 12.66 -19.66 13.32 -20 14 C-20.99 13.01 -21.98 12.02 -23 11 C-23.99 14.465 -23.99 14.465 -25 18 C-25.82638376 15.10765685 -26 13.11257569 -26 10 C-25.01 9.34 -24.02 8.68 -23 8 C-23.99 7.67 -24.98 7.34 -26 7 C-26 6.34 -26 5.68 -26 5 C-24.68 5 -23.36 5 -22 5 C-21.67 4.01 -21.34 3.02 -21 2 C-20.38125 2.33 -19.7625 2.66 -19.125 3 C-17.08981656 4.14193235 -17.08981656 4.14193235 -15 4 C-15 4.66 -15 5.32 -15 6 C-13.35 5.67 -11.7 5.34 -10 5 C-10 3.68 -10 2.36 -10 1 C-6.52674819 -0.1577506 -3.63932552 -0.06866652 0 0 Z " fill="#302224" transform="translate(138,92)"/>
<path d="M0 0 C0.99 0 1.98 0 3 0 C3.33 1.65 3.66 3.3 4 5 C4.33 4.01 4.66 3.02 5 2 C4.46274105 5.37705625 3.88935377 8.696686 3 12 C4.98 12.66 6.96 13.32 9 14 C9 14.66 9 15.32 9 16 C5.04 16.495 5.04 16.495 1 17 C1 18.32 1 19.64 1 21 C2.65 21 4.3 21 6 21 C6 21.33 6 21.66 6 22 C3.69 22 1.38 22 -1 22 C-1 20.68 -1 19.36 -1 18 C-1.66 18 -2.32 18 -3 18 C-3 19.32 -3 20.64 -3 22 C-4.65 22 -6.3 22 -8 22 C-6.68 21.67 -5.36 21.34 -4 21 C-4.20625 20.38125 -4.4125 19.7625 -4.625 19.125 C-4.810625 18.073125 -4.810625 18.073125 -5 17 C-4.34 16.34 -3.68 15.68 -3 15 C-3.66 12.69 -4.32 10.38 -5 8 C-5.33 8 -5.66 8 -6 8 C-6 6.35 -6 4.7 -6 3 C-5.34 2.67 -4.68 2.34 -4 2 C-4 2.66 -4 3.32 -4 4 C-3.01 4 -2.02 4 -1 4 C-0.67 2.68 -0.34 1.36 0 0 Z M2 14 C1.67 14.66 1.34 15.32 1 16 C1.66 16 2.32 16 3 16 C2.67 15.34 2.34 14.68 2 14 Z " fill="#38292A" transform="translate(205,64)"/>
<path d="M0 0 C-1.32 0.33 -2.64 0.66 -4 1 C-4 1.66 -4 2.32 -4 3 C-4.99 3 -5.98 3 -7 3 C-7.33 4.98 -7.66 6.96 -8 9 C-7.01 9.33 -6.02 9.66 -5 10 C-8.63 10 -12.26 10 -16 10 C-15.67 12.97 -15.34 15.94 -15 19 C-19.54805635 19.17835515 -22.8794254 18.99785435 -27 17 C-25.35 15.35 -23.7 13.7 -22 12 C-24.64 11.34 -27.28 10.68 -30 10 C-30 9.67 -30 9.34 -30 9 C-25.71 9.33 -21.42 9.66 -17 10 C-16.34 8.68 -15.68 7.36 -15 6 C-13.375 4.25 -13.375 4.25 -12 3 C-14.31 2.67 -16.62 2.34 -19 2 C-19 1.67 -19 1.34 -19 1 C-16.77100213 0.83109082 -14.54179338 0.66496313 -12.3125 0.5 C-10.45044922 0.36078125 -10.45044922 0.36078125 -8.55078125 0.21875 C-5.68500671 0.04220063 -2.86900043 -0.04388528 0 0 Z " fill="#2F1B1D" transform="translate(248,77)"/>
<path d="M0 0 C0 1.65 0 3.3 0 5 C-0.66 5 -1.32 5 -2 5 C-2.185625 6.299375 -2.37125 7.59875 -2.5625 8.9375 C-2.66691406 9.66839844 -2.77132813 10.39929688 -2.87890625 11.15234375 C-2.91886719 11.76207031 -2.95882813 12.37179688 -3 13 C-1.26394487 14.73605513 1.20549496 14.65611982 3.5625 15.0625 C5.08037109 15.32740234 5.08037109 15.32740234 6.62890625 15.59765625 C7.41136719 15.73042969 8.19382812 15.86320312 9 16 C9.33 15.01 9.66 14.02 10 13 C11.32 13.33 12.64 13.66 14 14 C13.67 14.99 13.34 15.98 13 17 C12.34 16.67 11.68 16.34 11 16 C11 16.66 11 17.32 11 18 C6.71 18 2.42 18 -2 18 C-2.66 16.68 -3.32 15.36 -4 14 C-5.32594105 13.63837971 -6.65938457 13.30271961 -8 13 C-8.33 12.01 -8.66 11.02 -9 10 C-8.67 9.34 -8.34 8.68 -8 8 C-8.66 8 -9.32 8 -10 8 C-10 6.02 -10 4.04 -10 2 C-10.66 1.67 -11.32 1.34 -12 1 C-7.67265609 -1.22923777 -4.71599818 -0.92470553 0 0 Z " fill="#5B435F" transform="translate(290,48)"/>
<path d="M0 0 C0.99 0.33 1.98 0.66 3 1 C3 1.66 3 2.32 3 3 C3.99 2.34 4.98 1.68 6 1 C6.99 1.33 7.98 1.66 9 2 C9 2.99 9 3.98 9 5 C9.185625 5.66 9.37125 6.32 9.5625 7 C10 9 10 9 9 12 C7.625 13.6875 7.625 13.6875 6 15 C5.01 15 4.02 15 3 15 C3 15.66 3 16.32 3 17 C0.69 17 -1.62 17 -4 17 C-3.125 10.125 -3.125 10.125 -2 9 C-2.020625 8.05125 -2.04125 7.1025 -2.0625 6.125 C-2 3 -2 3 0 0 Z " fill="#342225" transform="translate(111,111)"/>
<path d="M0 0 C0.33 0 0.66 0 1 0 C1 1.65 1 3.3 1 5 C0.34 5 -0.32 5 -1 5 C-1 5.66 -1 6.32 -1 7 C-1.66 7 -2.32 7 -3 7 C-3.33 8.65 -3.66 10.3 -4 12 C-8.31275198 13.05995228 -12.49824799 13.13525775 -16.91137695 13.11352539 C-18.08290062 13.11374443 -18.08290062 13.11374443 -19.27809143 13.1139679 C-21.84818339 13.1132737 -24.41820202 13.10550446 -26.98828125 13.09765625 C-28.77475444 13.09579032 -30.56122814 13.09436724 -32.34770203 13.09336853 C-37.04124371 13.08955716 -41.73475427 13.07973867 -46.42828369 13.06866455 C-51.22106505 13.05842075 -56.01385146 13.05386455 -60.80664062 13.04882812 C-70.20444073 13.03811514 -79.60221777 13.02105531 -89 13 C-89.33 12.34 -89.66 11.68 -90 11 C-65.91 11 -41.82 11 -17 11 C-17 10.67 -17 10.34 -17 10 C-16.27554688 10.11601563 -15.55109375 10.23203125 -14.8046875 10.3515625 C-11.61684875 10.64909412 -9.1277916 10.7303909 -6 10 C-3.24956313 6.98509804 -1.7169502 3.66981722 0 0 Z " fill="#4F4E5E" transform="translate(201,54)"/>
<path d="M0 0 C1.65 0.33 3.3 0.66 5 1 C5 2.32 5 3.64 5 5 C5.66 5 6.32 5 7 5 C8.59138085 9.17737474 9.21278058 12.53160785 9 17 C7.35 16.67 5.7 16.34 4 16 C4.66 15.67 5.32 15.34 6 15 C6 13.68 6 12.36 6 11 C5.01 11 4.02 11 3 11 C2.67 12.32 2.34 13.64 2 15 C0.68 14.67 -0.64 14.34 -2 14 C-2.66 15.65 -3.32 17.3 -4 19 C-4.66 18.67 -5.32 18.34 -6 18 C-5.54177532 14.53058454 -5.10868317 11.32604951 -4 8 C-3.34 8 -2.68 8 -2 8 C-2 7.34 -2 6.68 -2 6 C-1.34 6 -0.68 6 0 6 C0 4.02 0 2.04 0 0 Z " fill="#372E33" transform="translate(202,53)"/>
<path d="M0 0 C0.66 0 1.32 0 2 0 C2 1.98 2 3.96 2 6 C5.96 6 9.92 6 14 6 C14.28571429 13.42857143 14.28571429 13.42857143 12 17 C9.36 17 6.72 17 4 17 C2.39644899 13.49223216 1.77963136 10.85645121 2 7 C1.34 7 0.68 7 0 7 C0 4.69 0 2.38 0 0 Z " fill="#3D363B" transform="translate(332,58)"/>
<path d="M0 0 C1.98 0 3.96 0 6 0 C6.495 0.99 6.495 0.99 7 2 C10.89609609 1.86070975 14.79179962 1.71242069 18.6875 1.5625 C20.34168945 1.50352539 20.34168945 1.50352539 22.02929688 1.44335938 C23.6293457 1.38051758 23.6293457 1.38051758 25.26171875 1.31640625 C26.73064575 1.26141968 26.73064575 1.26141968 28.22924805 1.20532227 C30.89465177 1.00780667 33.39469788 0.58426967 36 0 C35.67 0.99 35.34 1.98 35 3 C21.23020864 4.58114661 7.51226595 5.33375209 -6.33618164 5.65795898 C-13.77900573 5.79025609 -13.77900573 5.79025609 -21.16796875 6.5859375 C-26.52917609 7.16523208 -31.65015025 6.60150238 -37 6.0625 C-38.06089844 5.96259766 -39.12179688 5.86269531 -40.21484375 5.75976562 C-42.81073641 5.51420821 -45.40560004 5.26078061 -48 5 C-48 4.67 -48 4.34 -48 4 C-31.17 4 -14.34 4 3 4 C2.01 2.68 1.02 1.36 0 0 Z " fill="#2D2025" transform="translate(73,135)"/>
<path d="M0 0 C1.98 0 3.96 0 6 0 C6.33 0.66 6.66 1.32 7 2 C8.7325 1.7215625 8.7325 1.7215625 10.5 1.4375 C14.86389648 0.8764276 18.66733065 1.30367814 23 2 C20.66785852 3.20628008 18.50357861 4.1654738 16 5 C16.99 5.33 17.98 5.66 19 6 C19 6.66 19 7.32 19 8 C12.73 8 6.46 8 0 8 C0 5.36 0 2.72 0 0 Z " fill="#302428" transform="translate(1,138)"/>
<path d="M0 0 C2.97 0.495 2.97 0.495 6 1 C6 1.66 6 2.32 6 3 C7.32 3 8.64 3 10 3 C10 2.34 10 1.68 10 1 C10.66 1 11.32 1 12 1 C12 5.62 12 10.24 12 15 C10.68 14.34 9.36 13.68 8 13 C8.33 12.67 8.66 12.34 9 12 C5.7 11.34 2.4 10.68 -1 10 C-0.67 6.7 -0.34 3.4 0 0 Z " fill="#33292B" transform="translate(334,104)"/>
<path d="M0 0 C1.9660954 0.19711823 3.93223891 0.39375746 5.8984375 0.58984375 C7.18886963 0.72507446 7.18886963 0.72507446 8.50537109 0.86303711 C10.60203497 1.09372961 10.60203497 1.09372961 12.625 1.0625 C12.955 0.4025 13.285 -0.2575 13.625 -0.9375 C15.605 -0.9375 17.585 -0.9375 19.625 -0.9375 C19.625 0.7125 19.625 2.3625 19.625 4.0625 C15.19589728 4.11223511 10.76694603 4.14837704 6.33764648 4.17236328 C4.83338587 4.18237124 3.32914447 4.1959818 1.82495117 4.21337891 C-0.34721643 4.23785809 -2.51912504 4.24903523 -4.69140625 4.2578125 C-5.99537354 4.26828613 -7.29934082 4.27875977 -8.64282227 4.28955078 C-12.58798432 4.04954289 -15.63962372 3.28437181 -19.375 2.0625 C-19.375 1.4025 -19.375 0.7425 -19.375 0.0625 C-12.72144202 -1.06749857 -6.69041183 -0.71334855 0 0 Z " fill="#19080B" transform="translate(307.375,108.9375)"/>
<path d="M0 0 C5.28 0 10.56 0 16 0 C15.67 0.66 15.34 1.32 15 2 C14.01 2 13.02 2 12 2 C12 2.66 12 3.32 12 4 C12.66 4.66 13.32 5.32 14 6 C10.7 6.33 7.4 6.66 4 7 C4 7.66 4 8.32 4 9 C6.31 9 8.62 9 11 9 C11.33 9.66 11.66 10.32 12 11 C8.04 11 4.08 11 0 11 C0 10.01 0 9.02 0 8 C-1.32 7.67 -2.64 7.34 -4 7 C-2.68 6.67 -1.36 6.34 0 6 C0 4.02 0 2.04 0 0 Z " fill="#201219" transform="translate(80,107)"/>
<path d="M0 0 C20.79 0 41.58 0 63 0 C63 0.99 63 1.98 63 3 C52.44 3 41.88 3 31 3 C31 2.34 31 1.68 31 1 C20.77 1 10.54 1 0 1 C0 0.67 0 0.34 0 0 Z " fill="#483E3D" transform="translate(121,69)"/>
<path d="M0 0 C1.32 0 2.64 0 4 0 C4 0.99 4 1.98 4 3 C4.75925781 3.04898438 5.51851562 3.09796875 6.30078125 3.1484375 C7.29464844 3.22320312 8.28851563 3.29796875 9.3125 3.375 C10.79169922 3.47941406 10.79169922 3.47941406 12.30078125 3.5859375 C15 4 15 4 18 6 C18.1875 8.625 18.1875 8.625 18 11 C17.01 11 16.02 11 15 11 C14.67 12.32 14.34 13.64 14 15 C13.34 14.67 12.68 14.34 12 14 C10.68 14 9.36 14 8 14 C8.66 12.68 9.32 11.36 10 10 C9.34 9.67 8.68 9.34 8 9 C8 8.01 8 7.02 8 6 C5.69 6.66 3.38 7.32 1 8 C-1 5 -1 5 -0.625 2.3125 C-0.41875 1.549375 -0.2125 0.78625 0 0 Z " fill="#342224" transform="translate(142,82)"/>
<path d="M0 0 C9.43004057 0.0196664 18.77953151 0.44079215 28.18359375 1.1328125 C28.18359375 1.7928125 28.18359375 2.4528125 28.18359375 3.1328125 C22.51045678 4.18827984 17.03327076 4.17983724 11.26953125 4.0703125 C8.43004168 4.12782115 5.93901143 4.47724844 3.18359375 5.1328125 C3.18359375 4.1428125 3.18359375 3.1528125 3.18359375 2.1328125 C1.20359375 2.1328125 -0.77640625 2.1328125 -2.81640625 2.1328125 C-2.81640625 4.7728125 -2.81640625 7.4128125 -2.81640625 10.1328125 C-3.14640625 10.1328125 -3.47640625 10.1328125 -3.81640625 10.1328125 C-3.84329841 8.65374358 -3.86275246 7.17453767 -3.87890625 5.6953125 C-3.89050781 4.87160156 -3.90210938 4.04789063 -3.9140625 3.19921875 C-3.76114446 -0.03652697 -3.27630344 0.15449975 0 0 Z " fill="#221318" transform="translate(3.81640625,135.8671875)"/>
<path d="M0 0 C2.64 0 5.28 0 8 0 C8 1.32 8 2.64 8 4 C8.66 4 9.32 4 10 4 C10.33 5.65 10.66 7.3 11 9 C10.34 9 9.68 9 9 9 C8.34 10.65 7.68 12.3 7 14 C6.67 14 6.34 14 6 14 C6 11.69 6 9.38 6 7 C5.236875 7.226875 4.47375 7.45375 3.6875 7.6875 C2.800625 7.790625 1.91375 7.89375 1 8 C-0.8125 6.5625 -0.8125 6.5625 -2 5 C-1.01 5 -0.02 5 1 5 C1 4.34 1 3.68 1 3 C-0.98 3.33 -2.96 3.66 -5 4 C-5 3.34 -5 2.68 -5 2 C-3.35 2 -1.7 2 0 2 C0 1.34 0 0.68 0 0 Z " fill="#372E2E" transform="translate(288,89)"/>
<path d="M0 0 C3.3 0 6.6 0 10 0 C10.33 0.66 10.66 1.32 11 2 C14.63 1.67 18.26 1.34 22 1 C22 1.99 22 2.98 22 4 C22.99 4.33 23.98 4.66 25 5 C4.01240402 7.08387478 4.01240402 7.08387478 -3 5 C-3 4.01 -3 3.02 -3 2 C-0.03 2.33 2.94 2.66 6 3 C4.02 2.34 2.04 1.68 0 1 C0 0.67 0 0.34 0 0 Z " fill="#29161C" transform="translate(115,130)"/>
<path d="M0 0 C0.66 0.33 1.32 0.66 2 1 C0.35 2.65 -1.3 4.3 -3 6 C-1.35 7.65 0.3 9.3 2 11 C1 12 1 12 -2.4375 12.1875 C-6 12 -6 12 -8 10 C-8 10.99 -8 11.98 -8 13 C-9.32 12.67 -10.64 12.34 -12 12 C-12.33 10.68 -12.66 9.36 -13 8 C-12.01 8 -11.02 8 -10 8 C-10 7.01 -10 6.02 -10 5 C-8.68 5.33 -7.36 5.66 -6 6 C-6 5.34 -6 4.68 -6 4 C-5.01 4 -4.02 4 -3 4 C-2.67 3.01 -2.34 2.02 -2 1 C-1.34 0.67 -0.68 0.34 0 0 Z " fill="#1D0B10" transform="translate(120,122)"/>
<path d="M0 0 C2.64 0 5.28 0 8 0 C8 2.64 8 5.28 8 8 C1.9453125 8.9765625 1.9453125 8.9765625 0 9 C-0.66 8.34 -1.32 7.68 -2 7 C-1.6730244 4.38419521 -1.17960932 2.35921863 0 0 Z " fill="#CE1747" transform="translate(288,54)"/>
<path d="M0 0 C0.66 0 1.32 0 2 0 C2 1.65 2 3.3 2 5 C2.66 5.33 3.32 5.66 4 6 C4 7.32 4 8.64 4 10 C6.64 10 9.28 10 12 10 C12 8.68 12 7.36 12 6 C12.66 6 13.32 6 14 6 C14 8.64 14 11.28 14 14 C8.72 14 3.44 14 -2 14 C-2 13.67 -2 13.34 -2 13 C2.62 13 7.24 13 12 13 C12 12.34 12 11.68 12 11 C7.38 11 2.76 11 -2 11 C-1.34 7.37 -0.68 3.74 0 0 Z " fill="#2B1C1F" transform="translate(332,65)"/>
<path d="M0 0 C-0.66 2.64 -1.32 5.28 -2 8 C-2.33 7.34 -2.66 6.68 -3 6 C-5.91517292 7.07401108 -7.77810176 7.77810176 -10 10 C-11.32 10 -12.64 10 -14 10 C-13.47437173 6.21547645 -12.73485867 3.73485867 -10 1 C-6.6569338 -0.05570512 -3.48792595 -0.09965503 0 0 Z " fill="#220D12" transform="translate(66,104)"/>
<path d="M0 0 C6.6 0 13.2 0 20 0 C20 0.66 20 1.32 20 2 C15.53665816 3.72293135 11.89798769 4.22240791 7.125 4.125 C5.39636719 4.09792969 5.39636719 4.09792969 3.6328125 4.0703125 C2.76398438 4.04710938 1.89515625 4.02390625 1 4 C0.67 2.68 0.34 1.36 0 0 Z " fill="#1B0B0E" transform="translate(266,110)"/>
<path d="M0 0 C0.66 0.33 1.32 0.66 2 1 C2.625 3.0625 2.625 3.0625 3 5 C4.65 5.33 6.3 5.66 8 6 C8 6.66 8 7.32 8 8 C5.36 8.33 2.72 8.66 0 9 C0 10.32 0 11.64 0 13 C1.65 13 3.3 13 5 13 C5 13.33 5 13.66 5 14 C2.69 14 0.38 14 -2 14 C-2 12.68 -2 11.36 -2 10 C-2.66 10 -3.32 10 -4 10 C-4 11.32 -4 12.64 -4 14 C-5.65 14 -7.3 14 -9 14 C-7.68 13.67 -6.36 13.34 -5 13 C-5.33 11.68 -5.66 10.36 -6 9 C-5.195625 8.443125 -4.39125 7.88625 -3.5625 7.3125 C-0.75771784 4.78135513 -0.30618405 3.67420866 0 0 Z M1 6 C0.67 6.66 0.34 7.32 0 8 C0.66 8 1.32 8 2 8 C1.67 7.34 1.34 6.68 1 6 Z " fill="#332122" transform="translate(206,72)"/>
<path d="M0 0 C1.32 0 2.64 0 4 0 C3.67 1.98 3.34 3.96 3 6 C-3.86747109 7.10765663 -9.26718787 6.700773 -16 5 C-16 3.68 -16 2.36 -16 1 C-14.68 1 -13.36 1 -12 1 C-12 1.99 -12 2.98 -12 4 C-10.02 3.67 -8.04 3.34 -6 3 C-6 2.34 -6 1.68 -6 1 C-4.68 1.33 -3.36 1.66 -2 2 C-2.66 2 -3.32 2 -4 2 C-4 2.66 -4 3.32 -4 4 C-2.35 4 -0.7 4 1 4 C0.67 2.68 0.34 1.36 0 0 Z " fill="#1F070B" transform="translate(222,80)"/>
<path d="M0 0 C1 1 1 1 1.1875 3.4375 C1 6 1 6 -1 8 C-3.5 8.25 -3.5 8.25 -6 8 C-6.66 7.34 -7.32 6.68 -8 6 C-7.75 2.9375 -7.75 2.9375 -7 0 C-4.31633121 -1.3418344 -2.84719317 -0.73004953 0 0 Z " fill="#F5D3EC" transform="translate(279,34)"/>
<path d="M0 0 C1.98 0.99 1.98 0.99 4 2 C4 3.98 4 5.96 4 8 C4.66 8 5.32 8 6 8 C6.66 9.32 7.32 10.64 8 12 C7.34 12 6.68 12 6 12 C6.33 13.32 6.66 14.64 7 16 C6.34 16 5.68 16 5 16 C5 15.34 5 14.68 5 14 C3.35 13.67 1.7 13.34 0 13 C-0.12529002 7.48723898 -0.12529002 7.48723898 0.5625 4.8125 C1.22193706 2.7824796 1.22193706 2.7824796 0 0 Z " fill="#4C3B43" transform="translate(100,56)"/>
<path d="M0 0 C2.875 0.3125 2.875 0.3125 6 1 C8 4 8 4 8 8 C4.625 8.625 4.625 8.625 1 9 C0.34 8.34 -0.32 7.68 -1 7 C-0.625 3.375 -0.625 3.375 0 0 Z " fill="#0B0303" transform="translate(334,104)"/>
<path d="M0 0 C11.52164009 -0.18451025 11.52164009 -0.18451025 17 1 C16.67 2.65 16.34 4.3 16 6 C15.34 6 14.68 6 14 6 C14 5.34 14 4.68 14 4 C11.69 4.66 9.38 5.32 7 6 C7 5.34 7 4.68 7 4 C6.01 4 5.02 4 4 4 C4 3.34 4 2.68 4 2 C2.68 2 1.36 2 0 2 C0 1.34 0 0.68 0 0 Z " fill="#3F2E2F" transform="translate(232,87)"/>
<path d="M0 0 C3.96 0 7.92 0 12 0 C11.67 0.99 11.34 1.98 11 3 C10.01 3 9.02 3 8 3 C7.34 4.32 6.68 5.64 6 7 C5.34 7 4.68 7 4 7 C4 6.34 4 5.68 4 5 C1.36 4.67 -1.28 4.34 -4 4 C-4 3.34 -4 2.68 -4 2 C-2.68 2 -1.36 2 0 2 C0 1.34 0 0.68 0 0 Z " fill="#280F10" transform="translate(252,77)"/>
<path d="M0 0 C1 3 1 3 -1 9 C-5.95 9 -10.9 9 -16 9 C-16 9.66 -16 10.32 -16 11 C-19.63 10.34 -23.26 9.68 -27 9 C-27 8.67 -27 8.34 -27 8 C-19.74 8 -12.48 8 -5 8 C-5 6.35 -5 4.7 -5 3 C-4.360625 2.87625 -3.72125 2.7525 -3.0625 2.625 C-2.381875 2.41875 -1.70125 2.2125 -1 2 C-0.67 1.34 -0.34 0.68 0 0 Z " fill="#3F3539" transform="translate(43,93)"/>
<path d="M0 0 C3.63 0.66 7.26 1.32 11 2 C11 2.66 11 3.32 11 4 C11.99 4 12.98 4 14 4 C14 4.66 14 5.32 14 6 C12.35 6 10.7 6 9 6 C9 6.66 9 7.32 9 8 C7.68 8 6.36 8 5 8 C6 5 6 5 7 4 C5.3603125 4.061875 5.3603125 4.061875 3.6875 4.125 C0 4 0 4 -3 2 C-2.01 2 -1.02 2 0 2 C0 1.34 0 0.68 0 0 Z " fill="#352427" transform="translate(266,84)"/>
<path d="M0 0 C0.103125 0.639375 0.20625 1.27875 0.3125 1.9375 C0.539375 2.618125 0.76625 3.29875 1 4 C1.99 4.33 2.98 4.66 4 5 C4 5.99 4 6.98 4 8 C1.125 8.1875 1.125 8.1875 -2 8 C-2.66 7.01 -3.32 6.02 -4 5 C-2.68 3.35 -1.36 1.7 0 0 Z M-9 3 C-7.0625 3.375 -7.0625 3.375 -5 4 C-3.73762269 6.52475462 -3.90143596 8.31200466 -3.9375 11.125 C-3.94652344 12.03507812 -3.95554687 12.94515625 -3.96484375 13.8828125 C-3.97644531 14.58148438 -3.98804687 15.28015625 -4 16 C-4.33 16 -4.66 16 -5 16 C-5.33 13.03 -5.66 10.06 -6 7 C-6.99 7.33 -7.98 7.66 -9 8 C-9 6.35 -9 4.7 -9 3 Z " fill="#2F1E23" transform="translate(97,72)"/>
<path d="M0 0 C0.33 1.98 0.66 3.96 1 6 C1.66 5.34 2.32 4.68 3 4 C3.66 4.33 4.32 4.66 5 5 C4.65978036 8.17538332 3.97533396 9.02276865 1.5625 11.25 C-1 13 -1 13 -3 13 C-3 12.34 -3 11.68 -3 11 C-2.34 11 -1.68 11 -1 11 C-1 10.34 -1 9.68 -1 9 C-1.66 9 -2.32 9 -3 9 C-3 6.69 -3 4.38 -3 2 C-3.66 1.67 -4.32 1.34 -5 1 C-3 0 -3 0 0 0 Z " fill="#312325" transform="translate(294,96)"/>
<path d="M0 0 C1.6045556 0.14148989 3.20863767 0.28835686 4.8125 0.4375 C5.70582031 0.51871094 6.59914063 0.59992188 7.51953125 0.68359375 C10 1 10 1 13 2 C13.8125 3.9375 13.8125 3.9375 14 6 C13.34 6.66 12.68 7.32 12 8 C10.68 8 9.36 8 8 8 C8 7.34 8 6.68 8 6 C5.36 5.34 2.72 4.68 0 4 C3.81075533 3.04731117 4.54637532 3.04727595 8 4 C8.33 3.67 8.66 3.34 9 3 C4.545 2.01 4.545 2.01 0 1 C0 0.67 0 0.34 0 0 Z " fill="#29171A" transform="translate(312,95)"/>
<path d="M0 0 C2.31 0 4.62 0 7 0 C7.33 2.31 7.66 4.62 8 7 C5.03 7 2.06 7 -1 7 C-0.67 4.69 -0.34 2.38 0 0 Z " fill="#1A070B" transform="translate(131,92)"/>
<path d="M0 0 C1.16144531 0.00902344 2.32289063 0.01804687 3.51953125 0.02734375 C4.39996094 0.03894531 5.28039062 0.05054687 6.1875 0.0625 C6.1875 0.3925 6.1875 0.7225 6.1875 1.0625 C4.5375 1.3925 2.8875 1.7225 1.1875 2.0625 C0.8575 3.0525 0.5275 4.0425 0.1875 5.0625 C-1.4625 5.0625 -3.1125 5.0625 -4.8125 5.0625 C-4.8125 4.4025 -4.8125 3.7425 -4.8125 3.0625 C-5.4725 2.7325 -6.1325 2.4025 -6.8125 2.0625 C-6.8125 2.7225 -6.8125 3.3825 -6.8125 4.0625 C-8.7925 4.3925 -10.7725 4.7225 -12.8125 5.0625 C-12.4825 3.7425 -12.1525 2.4225 -11.8125 1.0625 C-7.81454108 0.10630267 -4.10446078 -0.0414592 0 0 Z " fill="#2B1216" transform="translate(222.8125,78.9375)"/>
<path d="M0 0 C0.33 0 0.66 0 1 0 C1.17942163 3.94727588 1.09350689 6.5980513 -1 10 C-3.64 10 -6.28 10 -9 10 C-9.5625 8.0625 -9.5625 8.0625 -10 6 C-9 5 -9 5 -7.15234375 4.90234375 C-5.1015625 4.93489583 -3.05078125 4.96744792 -1 5 C-0.67 3.35 -0.34 1.7 0 0 Z " fill="#392E2F" transform="translate(345,65)"/>
<path d="M0 0 C2.0625 0.4375 2.0625 0.4375 4 1 C4.08333357 5.8333472 3.95261487 10.23692563 3 15 C1.01953125 13.8515625 1.01953125 13.8515625 -1 12 C-1.42578125 9.3359375 -1.42578125 9.3359375 -1.3125 6.375 C-1.28800781 5.39273438 -1.26351562 4.41046875 -1.23828125 3.3984375 C-1 1 -1 1 0 0 Z " fill="#200A11" transform="translate(66,112)"/>
<path d="M0 0 C3.96 0.99 3.96 0.99 8 2 C8.33 3.32 8.66 4.64 9 6 C8 7 8 7 5.1875 7.1875 C2.13301456 7.00782439 0.56204656 6.57664404 -2 5 C-2 4.34 -2 3.68 -2 3 C-1.34 2.67 -0.68 2.34 0 2 C0 1.34 0 0.68 0 0 Z " fill="#362629" transform="translate(232,93)"/>
<path d="M0 0 C0.33 0.66 0.66 1.32 1 2 C1.99 2 2.98 2 4 2 C4 3.32 4 4.64 4 6 C8.455 5.505 8.455 5.505 13 5 C13 5.99 13 6.98 13 8 C12.38511719 8.06058594 11.77023438 8.12117187 11.13671875 8.18359375 C9.92435547 8.30927734 9.92435547 8.30927734 8.6875 8.4375 C7.88699219 8.51871094 7.08648437 8.59992188 6.26171875 8.68359375 C3.83912821 8.95265693 3.83912821 8.95265693 1 10 C0 9 0 9 -0.09765625 6.93359375 C-0.08605469 6.10988281 -0.07445313 5.28617188 -0.0625 4.4375 C-0.05347656 3.61121094 -0.04445313 2.78492187 -0.03515625 1.93359375 C-0.02355469 1.29550781 -0.01195313 0.65742187 0 0 Z " fill="#18060D" transform="translate(92,124)"/>
<path d="M0 0 C0.66 0 1.32 0 2 0 C2 1.32 2 2.64 2 4 C2.99 4.33 3.98 4.66 5 5 C5 5.66 5 6.32 5 7 C1.62902617 8.49821059 -0.20442119 9 -4 9 C-4 7.02 -4 5.04 -4 3 C-3.01 2.67 -2.02 2.34 -1 2 C-0.67 1.34 -0.34 0.68 0 0 Z " fill="#2B171C" transform="translate(92,96)"/>
<path d="M0 0 C2.3828125 0.0234375 2.3828125 0.0234375 5.125 0.375 C6.03507812 0.48585938 6.94515625 0.59671875 7.8828125 0.7109375 C8.93082031 0.85402344 8.93082031 0.85402344 10 1 C10 1.99 10 2.98 10 4 C8.7625 4.12375 7.525 4.2475 6.25 4.375 C3.1237803 4.75746305 0.71120763 5.30549523 -2 7 C-2.125 4.625 -2.125 4.625 -2 2 C-1.34 1.34 -0.68 0.68 0 0 Z " fill="#271019" transform="translate(38,118)"/>
<path d="M0 0 C5.53846154 -0.36923077 5.53846154 -0.36923077 7.875 1.5 C8.24625 1.995 8.6175 2.49 9 3 C4.84027538 4.1622419 0.79177667 4.18385673 -3.5 4.1875 C-4.25925781 4.19974609 -5.01851562 4.21199219 -5.80078125 4.22460938 C-9.6769826 4.23479204 -12.72090235 4.20641411 -16 2 C-14.083412 1.97287847 -12.1667127 1.95354903 -10.25 1.9375 C-8.64898437 1.92009766 -8.64898437 1.92009766 -7.015625 1.90234375 C-4.46631499 1.98489913 -2.42066409 2.25382442 0 3 C0 2.01 0 1.02 0 0 Z " fill="#331F21" transform="translate(164,80)"/>
<path d="M0 0 C1.32 0 2.64 0 4 0 C4 2.97 4 5.94 4 9 C2.35 8.67 0.7 8.34 -1 8 C-1.04241723 5.66705225 -1.04092937 3.33297433 -1 1 C-0.67 0.67 -0.34 0.34 0 0 Z " fill="#292327" transform="translate(84,128)"/>
<path d="M0 0 C-0.639375 0.103125 -1.27875 0.20625 -1.9375 0.3125 C-2.618125 0.539375 -3.29875 0.76625 -4 1 C-4.33 1.99 -4.66 2.98 -5 4 C-8.3 4 -11.6 4 -15 4 C-14.67 3.01 -14.34 2.02 -14 1 C-12.41913952 0.63495397 -10.83516093 0.28339494 -9.25 -0.0625 C-8.36828125 -0.25972656 -7.4865625 -0.45695312 -6.578125 -0.66015625 C-4.01320972 -0.99825872 -2.42908361 -0.81158635 0 0 Z " fill="#2A1D24" transform="translate(96,108)"/>
<path d="M0 0 C3.63 0 7.26 0 11 0 C11 1.32 11 2.64 11 4 C7.37 4 3.74 4 0 4 C0 2.68 0 1.36 0 0 Z " fill="#241618" transform="translate(272,97)"/>
<path d="M0 0 C1.32 0.33 2.64 0.66 4 1 C4.33 2.65 4.66 4.3 5 6 C4.34 6 3.68 6 3 6 C2.34 7.65 1.68 9.3 1 11 C0.67 11 0.34 11 0 11 C0 8.69 0 6.38 0 4 C-1.32 3.67 -2.64 3.34 -4 3 C-3.01 3 -2.02 3 -1 3 C-0.67 2.01 -0.34 1.02 0 0 Z " fill="#3E3435" transform="translate(294,92)"/>
<path d="M0 0 C1.32 0.33 2.64 0.66 4 1 C3.67 1.99 3.34 2.98 3 4 C2.34 3.67 1.68 3.34 1 3 C1 3.66 1 4.32 1 5 C-3.29 5 -7.58 5 -12 5 C-9.4013299 2.4013299 -7.60157242 2.36750739 -4 2 C-3.01 2.33 -2.02 2.66 -1 3 C-0.67 2.01 -0.34 1.02 0 0 Z " fill="#4F4657" transform="translate(300,61)"/>
<path d="M0 0 C0.99 0.33 1.98 0.66 3 1 C3 6.61 3 12.22 3 18 C2.01 17.67 1.02 17.34 0 17 C0 11.39 0 5.78 0 0 Z " fill="#6A4257" transform="translate(1,0)"/>
<path d="M0 0 C0.33 0.66 0.66 1.32 1 2 C1.66 2 2.32 2 3 2 C3 4.31 3 6.62 3 9 C3.66 9 4.32 9 5 9 C5 9.66 5 10.32 5 11 C4.34 11 3.68 11 3 11 C3 11.66 3 12.32 3 13 C2.34 13 1.68 13 1 13 C-0.97387813 8.23947038 -1.0070238 5.03511899 0 0 Z " fill="#251619" transform="translate(288,96)"/>
<path d="M0 0 C0.33 0.99 0.66 1.98 1 3 C3.31 3.33 5.62 3.66 8 4 C6.68 4.33 5.36 4.66 4 5 C4 6.98 4 8.96 4 11 C3.01 11 2.02 11 1 11 C0.67 9.35 0.34 7.7 0 6 C-0.33 6 -0.66 6 -1 6 C-1.042721 4.33388095 -1.04063832 2.66617115 -1 1 C-0.67 0.67 -0.34 0.34 0 0 Z " fill="#180B0D" transform="translate(200,66)"/>
<path d="M0 0 C2.31 0.33 4.62 0.66 7 1 C7 2.65 7 4.3 7 6 C5.02 6.33 3.04 6.66 1 7 C1 6.01 1 5.02 1 4 C0.34 4 -0.32 4 -1 4 C-0.67 2.68 -0.34 1.36 0 0 Z " fill="#4F495F" transform="translate(283,47)"/>
<path d="M0 0 C6.35987804 -0.20190089 11.85221129 0.3722167 18 2 C18 2.33 18 2.66 18 3 C15.93757383 3.02717692 13.87504297 3.0464758 11.8125 3.0625 C10.66394531 3.07410156 9.51539063 3.08570312 8.33203125 3.09765625 C5.40699414 3.01192832 2.83683709 2.67849023 0 2 C0 1.34 0 0.68 0 0 Z " fill="#402F32" transform="translate(299,107)"/>
<path d="M0 0 C0.99 0 1.98 0 3 0 C3 0.99 3 1.98 3 3 C3.66 3 4.32 3 5 3 C5 2.34 5 1.68 5 1 C7.31 1 9.62 1 12 1 C11.01 1.495 11.01 1.495 10 2 C10 2.99 10 3.98 10 5 C9.34 5 8.68 5 8 5 C8 4.34 8 3.68 8 3 C6.35 3.66 4.7 4.32 3 5 C3.33 6.65 3.66 8.3 4 10 C3.34 10 2.68 10 2 10 C1.77213542 7.98177083 1.54427083 5.96354167 1.31640625 3.9453125 C1.08707039 1.92595684 1.08707039 1.92595684 0 0 Z " fill="#322225" transform="translate(132,99)"/>
<path d="M0 0 C1.65 0 3.3 0 5 0 C5 1.32 5 2.64 5 4 C5.66 4 6.32 4 7 4 C7 5.32 7 6.64 7 8 C6.01 8.33 5.02 8.66 4 9 C4 8.34 4 7.68 4 7 C3.01 6.67 2.02 6.34 1 6 C0.67 4.02 0.34 2.04 0 0 Z " fill="#2C2122" transform="translate(336,98)"/>
<path d="M0 0 C2.31 0 4.62 0 7 0 C7.33 1.65 7.66 3.3 8 5 C5.36 5 2.72 5 0 5 C0 3.35 0 1.7 0 0 Z " fill="#3B2B2E" transform="translate(224,105)"/>
<path d="M0 0 C2.64 0.33 5.28 0.66 8 1 C8 1.66 8 2.32 8 3 C11.3 3 14.6 3 18 3 C18 3.33 18 3.66 18 4 C11.4 4 4.8 4 -2 4 C-1.34 3.67 -0.68 3.34 0 3 C0 2.01 0 1.02 0 0 Z " fill="#261315" transform="translate(146,82)"/>
<path d="M0 0 C1.98 0 3.96 0 6 0 C5.67 0.99 5.34 1.98 5 3 C9.455 2.505 9.455 2.505 14 2 C14.33 2.66 14.66 3.32 15 4 C9.72 4 4.44 4 -1 4 C-0.67 2.68 -0.34 1.36 0 0 Z " fill="#321D22" transform="translate(176,82)"/>
<path d="M0 0 C5.91492272 0.45224761 11.35199888 1.1582605 17 3 C17 3.66 17 4.32 17 5 C18.32 5.33 19.64 5.66 21 6 C17.35159941 7.21613353 16.65577512 6.6586565 13.25 5.125 C10.10462563 3.78027186 7.34298994 2.7416366 3.9375 2.375 C2.968125 2.25125 1.99875 2.1275 1 2 C0.67 1.34 0.34 0.68 0 0 Z " fill="#534651" transform="translate(59,32)"/>
<path d="M0 0 C2.64 0.33 5.28 0.66 8 1 C8 2.32 8 3.64 8 5 C5.36 5 2.72 5 0 5 C0 3.35 0 1.7 0 0 Z " fill="#1A0607" transform="translate(272,81)"/>
<path d="M0 0 C4.875 4.75 4.875 4.75 6 7 C7.89533342 7.46523063 7.89533342 7.46523063 10.0625 7.625 C11.361875 7.74875 12.66125 7.8725 14 8 C14 8.33 14 8.66 14 9 C13.31292969 8.98839844 12.62585938 8.97679688 11.91796875 8.96484375 C11.01691406 8.95582031 10.11585938 8.94679688 9.1875 8.9375 C8.29417969 8.92589844 7.40085938 8.91429688 6.48046875 8.90234375 C3.86586209 8.88990033 3.86586209 8.88990033 1 10 C0.67 6.7 0.34 3.4 0 0 Z " fill="#4D4954" transform="translate(210,60)"/>
<path d="M0 0 C3.4375 1.25 3.4375 1.25 7 3 C7.9375 5.1875 7.9375 5.1875 8 7 C6.02 7.33 4.04 7.66 2 8 C2 6.02 2 4.04 2 2 C1.34 2 0.68 2 0 2 C0 1.34 0 0.68 0 0 Z " fill="#200B10" transform="translate(137,126)"/>
<path d="M0 0 C2.96175123 0.61277612 4.38058783 1.25372522 7 3 C7.68268138 4.32520503 8.3507041 5.65812182 9 7 C9.66 7.33 10.32 7.66 11 8 C11.625 10.0625 11.625 10.0625 12 12 C11.34 12 10.68 12 10 12 C10 11.01 10 10.02 10 9 C9.01 9 8.02 9 7 9 C7 8.34 7 7.68 7 7 C6.34 7 5.68 7 5 7 C5 6.01 5 5.02 5 4 C3.35 3.67 1.7 3.34 0 3 C0 2.01 0 1.02 0 0 Z " fill="#4E4550" transform="translate(88,44)"/>
<path d="M0 0 C0.66 0 1.32 0 2 0 C2 0.66 2 1.32 2 2 C2.99 2.33 3.98 2.66 5 3 C4.67 3.99 4.34 4.98 4 6 C4.66 6.33 5.32 6.66 6 7 C5.34 7 4.68 7 4 7 C3.67 7.66 3.34 8.32 3 9 C2.34 8.67 1.68 8.34 1 8 C0.66666667 6.33333333 0.33333333 4.66666667 0 3 C-0.66 2.67 -1.32 2.34 -2 2 C-1.34 1.34 -0.68 0.68 0 0 Z " fill="#301E22" transform="translate(146,125)"/>
<path d="M0 0 C-9.1 7 -9.1 7 -12 7 C-12 6.01 -12 5.02 -12 4 C-10.390625 2.578125 -10.390625 2.578125 -8.25 1.25 C-7.55390625 0.80140625 -6.8578125 0.3528125 -6.140625 -0.109375 C-3.61526236 -1.16007332 -2.52143975 -0.93134261 0 0 Z " fill="#453B45" transform="translate(28,41)"/>
<path d="M0 0 C0.33 0 0.66 0 1 0 C1 1.98 1 3.96 1 6 C0.34 6 -0.32 6 -1 6 C-2.37310707 7.29233607 -3.71034824 8.62437146 -5 10 C-5.8125 8.3125 -5.8125 8.3125 -6 6 C-3.625 3.3125 -3.625 3.3125 -1 1 C-0.67 0.67 -0.34 0.34 0 0 Z " fill="#3E3536" transform="translate(6,58)"/>
<path d="M0 0 C1.65 0 3.3 0 5 0 C5.99 3.3 6.98 6.6 8 10 C7.34 10 6.68 10 6 10 C5.67 8.68 5.34 7.36 5 6 C3.68 5.67 2.36 5.34 1 5 C0.67 3.35 0.34 1.7 0 0 Z " fill="#575064" transform="translate(201,48)"/>
<path d="M0 0 C0.99 0 1.98 0 3 0 C3 1.32 3 2.64 3 4 C2.34 4 1.68 4 1 4 C0.67 2.68 0.34 1.36 0 0 Z M-4 1 C-3.01 1.33 -2.02 1.66 -1 2 C-1 2.66 -1 3.32 -1 4 C-0.34 4.33 0.32 4.66 1 5 C0.67 7.31 0.34 9.62 0 12 C-0.33 12 -0.66 12 -1 12 C-1.33 9.36 -1.66 6.72 -2 4 C-2.66 4 -3.32 4 -4 4 C-4 3.01 -4 2.02 -4 1 Z " fill="#413335" transform="translate(106,68)"/>
<path d="M0 0 C1.4540625 0.0309375 1.4540625 0.0309375 2.9375 0.0625 C-2.64448121 3.7838208 -6.27717531 6.0625 -13.0625 6.0625 C-13.0625 5.4025 -13.0625 4.7425 -13.0625 4.0625 C-12.42441406 3.85753906 -11.78632812 3.65257812 -11.12890625 3.44140625 C-10.30261719 3.17199219 -9.47632813 2.90257812 -8.625 2.625 C-7.80128906 2.35816406 -6.97757813 2.09132812 -6.12890625 1.81640625 C-1.21841398 0.02486559 -1.21841398 0.02486559 0 0 Z " fill="#4A414B" transform="translate(45.0625,32.9375)"/>
<path d="M0 0 C0 3.63 0 7.26 0 11 C-1.32 10.67 -2.64 10.34 -4 10 C-3.01 10 -2.02 10 -1 10 C-1 7.36 -1 4.72 -1 2 C-3.64 2 -6.28 2 -9 2 C-5.43554666 -1.30041976 -5.26882404 -1.05376481 0 0 Z " fill="#733652" transform="translate(297,52)"/>
<path d="M0 0 C0.99 0.33 1.98 0.66 3 1 C3 1.66 3 2.32 3 3 C3.99 2.34 4.98 1.68 6 1 C6.99 1.33 7.98 1.66 9 2 C7.68 2.99 6.36 3.98 5 5 C4.34 4.67 3.68 4.34 3 4 C2.67 5.65 2.34 7.3 2 9 C1.67 9 1.34 9 1 9 C1 6.69 1 4.38 1 2 C0.34 1.67 -0.32 1.34 -1 1 C-0.67 0.67 -0.34 0.34 0 0 Z " fill="#2D1B1C" transform="translate(111,111)"/>
<path d="M0 0 C2.475 0.99 2.475 0.99 5 2 C5 3.32 5 4.64 5 6 C2.03 5.505 2.03 5.505 -1 5 C-0.67 3.35 -0.34 1.7 0 0 Z " fill="#16050B" transform="translate(10,115)"/>
<path d="M0 0 C3.63 0 7.26 0 11 0 C10.67 0.66 10.34 1.32 10 2 C8.68 2 7.36 2 6 2 C6.99 2.99 7.98 3.98 9 5 C8.01 5.495 8.01 5.495 7 6 C7 5.34 7 4.68 7 4 C6.01 4 5.02 4 4 4 C4 3.34 4 2.68 4 2 C2.68 2 1.36 2 0 2 C0 1.34 0 0.68 0 0 Z " fill="#392627" transform="translate(232,87)"/>
<path d="M0 0 C2.97 0.495 2.97 0.495 6 1 C6 1.66 6 2.32 6 3 C6.66 3.33 7.32 3.66 8 4 C2.25 5.125 2.25 5.125 0 4 C0 2.68 0 1.36 0 0 Z " fill="#4B3E48" transform="translate(80,40)"/>
<path d="M0 0 C0.33 0.99 0.66 1.98 1 3 C1.99 3.33 2.98 3.66 4 4 C2.5629191 4.05422947 1.12524538 4.09289723 -0.3125 4.125 C-1.11300781 4.14820313 -1.91351563 4.17140625 -2.73828125 4.1953125 C-5 4 -5 4 -8 2 C-5.36 1.34 -2.72 0.68 0 0 Z " fill="#301E21" transform="translate(136,131)"/>
<path d="M0 0 C2.64 0 5.28 0 8 0 C8 0.99 8 1.98 8 3 C5.36 3 2.72 3 0 3 C0 2.01 0 1.02 0 0 Z " fill="#2A1D26" transform="translate(56,116)"/>
<path d="M0 0 C-2.49505962 2.49505962 -3.67328888 2.35948376 -7.125 2.625 C-8.03507813 2.69976562 -8.94515625 2.77453125 -9.8828125 2.8515625 C-10.93082031 2.92503906 -10.93082031 2.92503906 -12 3 C-12 2.34 -12 1.68 -12 1 C-8.0186217 -0.3271261 -4.14954773 -0.06915913 0 0 Z " fill="#1B0505" transform="translate(260,78)"/>
<path d="M0 0 C2.64 0 5.28 0 8 0 C7.67 1.98 7.34 3.96 7 6 C6.34 6 5.68 6 5 6 C5 5.34 5 4.68 5 4 C2.525 3.01 2.525 3.01 0 2 C0 1.34 0 0.68 0 0 Z " fill="#5D435F" transform="translate(272,42)"/>
<path d="M0 0 C2.97 0.495 2.97 0.495 6 1 C4.75 3 4.75 3 3 5 C1.68 5 0.36 5 -1 5 C-0.67 3.35 -0.34 1.7 0 0 Z " fill="#27151B" transform="translate(53,109)"/>
<path d="M0 0 C0.99 0 1.98 0 3 0 C3 2.64 3 5.28 3 8 C2.34 7.34 1.68 6.68 1 6 C0.34 6.66 -0.32 7.32 -1 8 C-0.67 5.36 -0.34 2.72 0 0 Z " fill="#28161A" transform="translate(102,80)"/>
<path d="M0 0 C1.98 0.99 1.98 0.99 4 2 C3.690625 2.495 3.38125 2.99 3.0625 3.5 C1.58355618 6.97986781 1.37597149 10.24028509 1 14 C0.67 14 0.34 14 0 14 C0 9.38 0 4.76 0 0 Z " fill="#302529" transform="translate(0,66)"/>
<path d="M0 0 C0.66 0.33 1.32 0.66 2 1 C1.67 2.65 1.34 4.3 1 6 C2.98 6.66 4.96 7.32 7 8 C4 10 4 10 1.875 9.75 C0 9 0 9 -1 7 C-1.125 3.9375 -1.125 3.9375 -1 1 C-0.67 0.67 -0.34 0.34 0 0 Z " fill="#783657" transform="translate(286,55)"/>
<path d="M0 0 C0.33 0.66 0.66 1.32 1 2 C-4.75 3.125 -4.75 3.125 -7 2 C-7 1.34 -7 0.68 -7 0 C-4.30234372 -1.34882814 -2.84835666 -0.80338265 0 0 Z " fill="#EACEE5" transform="translate(279,34)"/>
<path d="M0 0 C1.98 0 3.96 0 6 0 C6 1.65 6 3.3 6 5 C4.68 4.67 3.36 4.34 2 4 C2 3.01 2 2.02 2 1 C1.34 0.67 0.68 0.34 0 0 Z " fill="#100103" transform="translate(321,108)"/>
<path d="M0 0 C2.1519437 3.22791555 2.20086443 4.28400809 2 8 C1.01 8 0.02 8 -1 8 C-1.04241723 5.66705225 -1.04092937 3.33297433 -1 1 C-0.67 0.67 -0.34 0.34 0 0 Z " fill="#352224" transform="translate(105,113)"/>
<path d="M0 0 C0.99 0.33 1.98 0.66 3 1 C2.43628586 4.26954202 1.50037734 5.82575883 -1 8 C-1.66 7.67 -2.32 7.34 -3 7 C-2.01 4.69 -1.02 2.38 0 0 Z " fill="#38282B" transform="translate(296,100)"/>
<path d="M0 0 C2.31 0.66 4.62 1.32 7 2 C7 2.66 7 3.32 7 4 C4.36 3.67 1.72 3.34 -1 3 C-0.67 2.01 -0.34 1.02 0 0 Z " fill="#2E2123" transform="translate(313,99)"/>
<path d="M0 0 C1.65 0 3.3 0 5 0 C5 1.32 5 2.64 5 4 C3.35 4 1.7 4 0 4 C0 2.68 0 1.36 0 0 Z " fill="#FA1031" transform="translate(289,56)"/>
<path d="M0 0 C0.33 0.66 0.66 1.32 1 2 C1.99 2 2.98 2 4 2 C4 3.65 4 5.3 4 7 C2.68 6.67 1.36 6.34 0 6 C0 4.02 0 2.04 0 0 Z " fill="#241017" transform="translate(92,124)"/>
<path d="M0 0 C0.66 0 1.32 0 2 0 C2.33 2.31 2.66 4.62 3 7 C2.01 7 1.02 7 0 7 C0 4.69 0 2.38 0 0 Z " fill="#1A0A0D" transform="translate(146,118)"/>
<path d="M0 0 C2.94887797 0.50842724 5.37371875 1.59306362 8 3 C6.02 3 4.04 3 2 3 C1.67 3.99 1.34 4.98 1 6 C0.67 5.34 0.34 4.68 0 4 C0.33 3.34 0.66 2.68 1 2 C0.34 1.67 -0.32 1.34 -1 1 C-0.67 0.67 -0.34 0.34 0 0 Z " fill="#301E22" transform="translate(319,105)"/>
<path d="M0 0 C1.22589844 0.15275391 1.22589844 0.15275391 2.4765625 0.30859375 C3.41628906 0.43427734 3.41628906 0.43427734 4.375 0.5625 C4.375 0.8925 4.375 1.2225 4.375 1.5625 C-3.25 2.8125 -3.25 2.8125 -6.625 0.5625 C-4.10446405 -0.69776798 -2.7707902 -0.35624445 0 0 Z " fill="#1C0809" transform="translate(246.625,84.4375)"/>
<path d="M0 0 C0.66 0.33 1.32 0.66 2 1 C0.35 3.64 -1.3 6.28 -3 9 C-3.66 8.34 -4.32 7.68 -5 7 C-3.47793991 4.37098712 -2.15634036 2.15634036 0 0 Z " fill="#423A3B" transform="translate(48,84)"/>
<path d="M0 0 C3.68754757 0.49831724 5.60490662 1.10067643 8 4 C7.67 4.99 7.34 5.98 7 7 C4.66666667 4.66666667 2.33333333 2.33333333 0 0 Z " fill="#3C282C" transform="translate(139,126)"/>
<path d="M0 0 C0 1.32 0 2.64 0 4 C-1.32 4.33 -2.64 4.66 -4 5 C-4.33 3.68 -4.66 2.36 -5 1 C-2 0 -2 0 0 0 Z " fill="#302426" transform="translate(269,106)"/>
<path d="M0 0 C0.99 0.33 1.98 0.66 3 1 C3.33 1.99 3.66 2.98 4 4 C2.35 4.33 0.7 4.66 -1 5 C-1 4.34 -1 3.68 -1 3 C-1.99 2.67 -2.98 2.34 -4 2 C-2.68 2 -1.36 2 0 2 C0 1.34 0 0.68 0 0 Z " fill="#322123" transform="translate(300,88)"/>
<path d="M0 0 C-0.33 1.65 -0.66 3.3 -1 5 C-2.32 5 -3.64 5 -5 5 C-4.625 3.0625 -4.625 3.0625 -4 1 C-2 0 -2 0 0 0 Z " fill="#1B0608" transform="translate(232,82)"/>
<path d="M0 0 C0.99 0.33 1.98 0.66 3 1 C3.33 1.99 3.66 2.98 4 4 C1.69 3.67 -0.62 3.34 -3 3 C-2.01 2.01 -1.02 1.02 0 0 Z " fill="#230F11" transform="translate(296,86)"/>
</svg>
