<?xml version="1.0" standalone="no"?>
<!DOCTYPE svg PUBLIC "-//W3C//DTD SVG 20010904//EN"
 "http://www.w3.org/TR/2001/REC-SVG-20010904/DTD/svg10.dtd">
<svg version="1.0" xmlns="http://www.w3.org/2000/svg"
 width="500.000000pt" height="500.000000pt" viewBox="0 0 500.000000 500.000000"
 preserveAspectRatio="xMidYMid meet">

<g transform="translate(0.000000,500.000000) scale(0.100000,-0.100000)"
fill="#000000" stroke="none">
<path d="M2503 3410 c-9 -25 -17 -30 -44 -30 l-32 0 22 -23 c18 -20 20 -28 11
-52 -14 -36 -8 -41 28 -20 26 16 31 16 60 1 40 -21 45 -20 32 3 -14 28 -12 52
7 73 15 17 15 18 -11 18 -22 0 -30 7 -39 30 -6 17 -14 30 -17 30 -3 0 -11 -13
-17 -30z"/>
<path d="M2337 3335 c-12 -17 -28 -25 -47 -25 -32 0 -36 -6 -21 -29 7 -10 3
-24 -10 -43 -24 -33 -22 -33 19 -13 28 15 34 15 62 0 l30 -16 0 30 c0 20 8 36
28 50 l27 20 -27 1 c-23 0 -28 4 -28 25 0 31 -10 31 -33 0z"/>
<path d="M2670 3337 c0 -24 -4 -27 -32 -27 l-33 0 33 -21 c24 -16 32 -28 32
-50 l0 -30 30 16 c27 14 33 14 60 0 42 -21 47 -19 20 10 -21 22 -22 29 -12 45
17 27 16 30 -15 30 -16 0 -39 11 -55 27 l-28 27 0 -27z"/>
<path d="M2430 3189 c-19 -5 -46 -6 -60 -4 -17 4 -21 3 -11 -3 11 -8 11 -10 0
-15 -12 -4 -12 -6 0 -6 18 -1 -58 -56 -90 -65 -23 -7 -22 -6 6 19 19 16 23 23
11 19 -15 -6 -17 -4 -11 6 12 20 -45 -23 -79 -59 -17 -17 -26 -31 -22 -31 5 0
2 -8 -5 -17 -13 -16 -12 -17 3 -5 10 8 17 17 16 20 -2 18 3 26 10 14 6 -9 13
-8 28 5 30 28 68 26 47 -3 -5 -5 1 0 12 12 11 12 39 25 63 29 42 7 43 6 33
-13 -19 -35 -12 -39 9 -4 15 24 27 32 49 32 23 0 31 -5 34 -22 l4 -23 2 23 c1
18 7 22 35 22 30 0 35 -4 39 -27 l4 -28 2 27 c1 19 7 28 24 31 19 4 19 4 -5 6
-14 0 -29 7 -31 14 -4 10 -6 10 -6 0 -1 -7 -13 -13 -27 -13 -24 0 -25 3 -19
27 9 38 14 41 32 18 13 -16 15 -17 10 -2 -15 42 51 -8 95 -73 10 -14 15 -18
12 -8 -4 10 1 18 13 21 16 4 15 5 -3 6 -11 0 -33 15 -49 31 -29 30 -21 39 17
19 26 -14 89 -22 68 -9 -13 9 -13 10 0 10 13 0 13 1 0 10 -21 13 -39 12 -20
-1 12 -9 12 -10 -3 -5 -10 3 -26 6 -35 7 -16 0 -16 1 0 7 26 10 -162 11 -202
1z m54 -33 c-5 -23 -11 -27 -38 -25 -17 1 -38 -1 -46 -4 -28 -10 -70 -17 -70
-12 0 7 92 65 103 65 5 0 3 -7 -4 -16 -10 -12 -4 -11 21 4 19 12 36 20 38 18
1 -2 0 -16 -4 -30z m-239 -56 c-16 -16 -34 -30 -39 -30 -12 1 49 60 61 60 4 0
-6 -13 -22 -30z"/>
<path d="M3255 3180 c132 -8 193 -26 225 -68 11 -13 21 -34 21 -46 1 -16 2
-17 6 -4 9 33 -24 74 -79 98 -44 20 -73 24 -173 26 l-120 2 120 -8z"/>
<path d="M2304 3164 c-18 -14 -18 -14 6 -3 31 14 36 19 24 19 -6 0 -19 -7 -30
-16z"/>
<path d="M3020 3169 c-23 -5 -10 -5 35 -2 39 3 72 7 74 9 7 7 -72 2 -109 -7z"/>
<path d="M3125 3164 c-83 -11 -177 -27 -243 -41 -40 -8 -75 -13 -78 -11 -2 3
37 14 88 24 51 10 85 20 76 22 -9 2 -54 -6 -100 -17 -64 -15 -86 -17 -97 -8
-12 10 -13 9 -7 -2 6 -9 4 -12 -5 -9 -8 3 -14 10 -14 16 0 5 -3 13 -6 16 -3 3
-6 -1 -6 -10 0 -9 11 -23 24 -31 19 -13 21 -18 11 -25 -10 -8 -10 -9 1 -6 15
4 30 -6 80 -54 23 -22 28 -24 27 -10 -1 15 11 17 87 20 70 2 96 -1 132 -17 25
-11 45 -25 45 -31 0 -6 -14 0 -31 12 -27 20 -43 23 -132 24 l-102 2 100 -7
c97 -6 155 -25 155 -50 0 -30 -14 -41 -55 -41 -40 0 -44 2 -50 30 -5 25 -12
30 -35 30 -16 0 -32 -4 -35 -10 -6 -10 -43 6 -56 24 -4 4 -10 3 -13 -3 -4 -6
-25 -11 -46 -11 -33 0 -42 5 -54 28 -8 16 -22 35 -32 42 -9 8 -4 -3 10 -25
l27 -40 -24 -6 c-38 -10 -78 1 -87 25 -7 18 -9 18 -9 3 -1 -15 -8 -18 -48 -15
-44 3 -48 5 -54 33 l-7 30 -1 -27 c-1 -26 -4 -28 -46 -28 -44 0 -45 1 -45 32
0 63 -11 19 -18 -73 l-7 -94 -57 -3 c-52 -3 -57 -1 -61 20 l-4 23 -2 -22 c-1
-16 -7 -23 -22 -23 -18 0 -20 4 -14 23 4 12 8 37 9 55 1 26 5 32 22 32 17 0
21 -5 18 -27 -3 -25 -3 -24 6 4 9 27 16 32 48 36 20 2 -5 2 -57 -1 -89 -4 -94
-4 -88 14 6 17 5 16 -8 -2 -11 -15 -23 -19 -50 -16 -23 3 -32 8 -28 16 5 8 3
8 -8 0 -8 -6 -39 -12 -69 -13 -88 -4 -120 -28 -120 -92 0 -20 -5 -29 -16 -29
-11 0 -15 -8 -12 -32 l3 -32 -117 3 c-116 2 -117 2 -134 -24 -21 -32 -6 -75
26 -75 37 0 21 -31 -52 -98 -116 -109 -149 -177 -112 -231 18 -26 88 -61 119
-60 11 0 -1 7 -26 15 -60 18 -99 55 -99 92 0 30 44 105 82 138 12 10 2 -6 -21
-38 -23 -31 -44 -71 -47 -90 -5 -30 -2 -38 25 -61 46 -38 123 -51 276 -44 125
6 311 37 425 71 73 22 87 20 117 -11 21 -22 23 -24 14 -6 -18 35 -4 49 75 73
41 12 125 42 186 66 113 45 136 46 123 5 -7 -22 -18 -25 -50 -11 -18 7 -17 9
13 20 18 7 31 14 28 17 -2 3 -20 -3 -38 -11 -19 -9 -94 -39 -168 -66 -74 -27
-130 -49 -123 -50 6 0 14 -10 16 -22 l4 -23 2 23 c1 16 11 27 36 38 46 19 45
19 40 -18 -4 -32 -4 -31 7 4 10 32 18 40 56 53 25 8 47 13 50 10 9 -9 -42 -99
-78 -136 -41 -43 -68 -53 -50 -18 6 11 9 28 7 37 -4 13 -5 13 -6 -4 0 -11 -7
-29 -15 -40 -14 -18 -15 -17 -31 16 l-16 35 7 -34 6 -34 -38 24 c-28 16 -35
18 -25 6 16 -20 5 -21 -28 -3 -14 8 -32 11 -40 8 -9 -3 -13 -1 -8 3 4 5 0 17
-10 27 -15 17 -15 18 3 19 10 0 15 2 9 5 -5 2 -50 -7 -100 -20 -49 -13 -83
-25 -75 -25 8 -1 29 3 46 8 23 7 35 4 53 -10 15 -13 32 -17 50 -13 18 4 22 3
13 -4 -11 -7 -10 -10 3 -16 9 -3 21 -4 26 -1 5 3 26 3 46 -1 35 -7 36 -8 13
-15 -35 -10 104 0 168 12 28 6 52 14 52 19 0 5 7 7 16 3 13 -5 13 -7 2 -14 -7
-5 -8 -9 -3 -9 6 0 16 4 24 9 11 7 9 10 -8 16 l-22 7 25 19 c33 26 58 24 26
-2 -21 -17 -22 -19 -3 -10 28 14 36 14 27 -1 -4 -8 -3 -10 2 -5 5 5 9 14 9 20
0 5 6 12 14 15 9 3 11 0 6 -9 -5 -7 6 -3 23 10 18 12 30 26 27 30 -2 5 7 19
20 31 25 23 36 15 13 -8 -7 -7 -9 -12 -6 -12 4 0 17 14 29 32 13 17 17 28 10
23 -9 -5 -12 -3 -9 6 3 8 10 13 15 12 6 -1 15 8 21 21 8 18 7 23 -4 23 -7 0
-11 -4 -9 -8 3 -4 -8 -20 -23 -37 -23 -25 -31 -28 -48 -19 -17 9 -18 9 -5 -6
12 -15 12 -20 -2 -35 -9 -9 -16 -21 -16 -27 0 -5 -5 -11 -12 -14 -7 -2 -9 1
-4 9 5 8 -1 7 -16 -3 -13 -9 -27 -17 -31 -17 -14 0 -9 23 9 44 15 18 14 18 -8
-1 -14 -13 -31 -23 -38 -23 -7 0 -10 -4 -6 -10 6 -10 -56 -54 -94 -65 -22 -7
-22 -5 9 34 18 23 43 42 54 42 15 1 16 3 5 6 -15 4 -15 8 0 48 18 52 32 60 77
45 31 -10 33 -14 23 -33 l-12 -22 21 20 c11 11 19 22 18 25 0 3 5 19 12 36
l14 32 109 1 c75 0 119 5 139 14 24 13 29 13 34 1 4 -11 28 -14 99 -14 81 0
98 3 122 22 25 19 27 26 23 70 -4 34 -2 48 8 48 14 0 22 19 17 40 -3 12 -20
14 -91 12 -96 -3 -112 -6 -112 -22 0 -6 26 -10 63 -10 76 0 101 -14 92 -52
-13 -51 -39 -63 -133 -63 -75 0 -87 2 -90 18 -3 15 6 17 81 17 63 0 88 4 97
15 16 20 4 24 -80 27 -61 3 -65 4 -68 28 -2 15 6 34 19 48 19 22 28 23 115 20
52 -2 94 0 94 4 0 9 -38 19 -75 22 -19 1 -22 3 -12 11 134 101 200 172 212
225 16 74 -56 112 -220 116 -60 1 -123 0 -140 -2z m-290 -92 c20 -18 36 -35
34 -37 -2 -2 -26 17 -54 42 -27 24 -43 41 -34 36 9 -4 33 -23 54 -41z m-292
-79 c-13 -2 -35 -2 -50 0 -16 2 -5 4 22 4 28 0 40 -2 28 -4z m-335 -30 c3 -10
-18 -13 -81 -13 -47 0 -92 -3 -101 -6 -35 -13 -13 -24 50 -24 83 0 109 -12 92
-43 -21 -40 -39 -46 -135 -47 -75 0 -93 3 -93 15 0 11 19 15 92 17 62 2 93 7
96 16 3 9 -16 12 -72 12 -62 0 -78 3 -83 16 -8 21 7 45 38 62 32 16 191 12
197 -5z m57 -15 c-4 -18 -14 -42 -21 -53 -8 -11 -14 -23 -14 -27 0 -5 39 -8
86 -8 76 0 85 -2 74 -15 -10 -11 -36 -15 -111 -15 -55 0 -99 3 -99 8 0 4 14
37 32 75 35 72 65 92 53 35z m425 17 c0 -12 -19 -15 -110 -15 -101 0 -122 5
-103 23 3 4 53 7 110 7 85 0 103 -3 103 -15z m238 -2 c3 -10 -18 -13 -80 -13
-95 0 -115 -9 -124 -57 l-6 -33 87 0 c77 0 86 -2 75 -15 -18 -21 -182 -21
-200 0 -17 20 7 80 44 112 26 22 36 23 114 21 57 -2 87 -7 90 -15z m72 7 c0
-6 -12 -40 -27 -75 -19 -44 -34 -65 -45 -65 -24 0 -23 7 12 84 18 40 35 66 45
66 8 0 15 -5 15 -10z m179 -16 c-5 -15 -13 -32 -17 -38 -4 -6 -12 -27 -17 -46
-7 -25 -17 -36 -33 -38 -20 -3 -21 -1 -12 23 5 14 10 28 10 31 0 2 -23 4 -51
4 -72 0 -61 24 13 28 51 3 57 5 68 32 8 18 20 30 31 30 16 0 17 -4 8 -26z
m-606 -50 c-1 -5 -5 -17 -8 -26 -6 -15 -1 -18 35 -18 29 0 40 -4 38 -12 -3 -9
-37 -14 -111 -16 -91 -2 -107 0 -107 13 0 11 11 15 48 15 43 0 48 3 61 31 8
19 19 29 30 26 9 -2 15 -7 14 -13z m-63 -14 c0 -5 -11 -10 -25 -10 -14 0 -25
5 -25 10 0 6 11 10 25 10 14 0 25 -4 25 -10z m150 -5 c0 -10 -10 -15 -30 -15
-20 0 -30 5 -30 15 0 10 10 15 30 15 20 0 30 -5 30 -15z m163 0 c1 -5 -15 -11
-35 -13 -36 -3 -52 10 -25 22 19 8 57 2 60 -9z m87 0 c0 -10 -11 -15 -35 -15
-24 0 -35 5 -35 15 0 10 11 15 35 15 24 0 35 -5 35 -15z m121 -45 c12 0 16 -5
13 -15 -6 -14 -64 -22 -64 -9 0 16 24 48 28 36 2 -6 12 -12 23 -12z m49 -4 c0
-2 -8 -10 -17 -17 -16 -13 -17 -12 -4 4 13 16 21 21 21 13z m-386 -45 c17 -18
16 -20 -19 -46 -19 -15 -37 -26 -39 -24 -7 7 6 59 15 59 5 0 9 7 9 15 0 20 13
19 34 -4z m-790 -16 c-5 -12 -27 -15 -110 -15 -95 0 -116 5 -97 23 3 4 53 7
109 7 88 0 103 -2 98 -15z m55 3 c0 -7 -13 -44 -28 -83 -21 -52 -34 -71 -50
-73 l-21 -3 21 48 c47 110 53 123 66 123 7 0 13 -6 12 -12z m150 -70 c-27 -76
-41 -97 -63 -98 -8 0 -3 29 10 64 5 13 -2 16 -45 16 -28 0 -51 2 -51 4 0 27
16 36 67 36 52 0 55 2 66 30 7 17 19 30 29 30 15 0 14 -9 -13 -82z m250 69 c8
-10 6 -23 -9 -52 -11 -22 -20 -47 -20 -56 0 -24 -35 -64 -48 -55 -9 5 -9 13
-2 26 5 10 10 21 10 24 0 3 -31 6 -70 6 -65 0 -70 -1 -76 -24 -6 -26 -30 -41
-39 -26 -3 5 2 27 11 49 l16 41 83 0 c60 0 86 4 95 15 21 25 1 35 -76 35 -68
0 -85 6 -67 23 13 13 180 8 192 -6z m249 1 c-6 -16 -208 -24 -208 -9 0 16 21
19 118 20 71 1 93 -2 90 -11z m200 -70 c11 -45 18 -86 16 -90 -10 -17 -35 -7
-44 17 -8 20 -16 25 -44 25 -27 0 -34 3 -30 15 4 8 17 15 30 15 19 0 24 5 24
24 0 14 -4 27 -8 30 -4 2 -35 -22 -67 -55 -68 -67 -91 -83 -107 -73 -18 12
152 172 183 173 25 1 28 -4 47 -81z m291 68 c18 -21 -3 -89 -39 -129 -27 -31
-31 -32 -119 -35 -76 -3 -91 -2 -91 11 0 26 39 107 51 107 11 0 9 -28 -6 -62
-6 -16 0 -18 63 -18 43 0 74 5 78 12 5 8 2 9 -10 5 -10 -4 -15 -3 -11 3 3 6
12 10 20 10 19 0 39 61 23 72 -16 10 -168 11 -168 1 0 -5 -9 -19 -20 -33 l-20
-25 0 44 c0 41 1 43 25 39 14 -3 28 -1 31 3 9 16 180 11 193 -5z m-1032 -28
c-3 -7 -5 -2 -5 12 0 14 2 19 5 13 2 -7 2 -19 0 -25z m773 -10 c0 -47 -14 -42
-25 10 -5 25 -3 32 9 32 12 0 16 -10 16 -42z m-1050 -18 c0 -43 -60 -127 -73
-103 -8 14 44 113 59 113 8 0 14 -4 14 -10z m790 -10 c0 -19 -7 -20 -90 -20
-49 0 -90 -2 -90 -4 0 -2 -3 -11 -6 -20 -5 -14 6 -16 80 -16 47 0 86 -4 86 -9
0 -24 -33 -32 -125 -30 -108 2 -105 -2 -70 82 l15 37 100 0 c93 0 100 -1 100
-20z m50 -4 c0 -3 -4 -8 -10 -11 -5 -3 -10 -1 -10 4 0 6 5 11 10 11 6 0 10 -2
10 -4z m-630 -76 c11 0 22 -11 28 -29 8 -23 17 -29 48 -33 56 -7 80 1 93 29
15 32 23 23 45 -42 15 -47 15 -51 -1 -62 -28 -21 -40 -15 -66 28 -19 31 -26
37 -31 24 -7 -20 1 -38 14 -30 5 3 14 -5 21 -17 12 -22 11 -22 -6 -8 -10 8
-16 10 -12 3 5 -7 -1 -13 -15 -16 -13 -2 -3 -5 22 -5 61 -1 114 10 117 26 2 6
-1 12 -6 12 -10 0 -41 72 -41 95 0 26 45 18 58 -10 8 -17 20 -25 37 -25 14 0
25 -6 26 -12 0 -10 2 -10 6 0 6 14 113 17 113 3 0 -6 -21 -12 -47 -16 -27 -3
-68 -12 -93 -20 l-45 -14 40 5 c30 3 35 2 20 -5 -24 -12 -9 -13 36 -4 33 7 33
7 9 15 -21 6 -20 7 7 3 18 -2 49 2 70 10 21 7 32 14 26 14 -26 2 -12 21 15 21
22 0 24 -2 12 -11 -12 -8 -9 -9 12 -5 14 3 34 9 45 12 14 4 15 4 3 -4 -37 -24
-224 -72 -264 -67 -30 3 -34 3 -16 -3 21 -7 13 -11 -45 -20 -133 -21 -172 -23
-231 -13 -100 19 -143 71 -91 111 14 11 28 31 31 46 5 18 12 24 22 20 9 -3 24
-6 34 -6z m-320 -25 c-13 -14 -28 -25 -34 -25 -11 1 40 50 51 50 4 0 -4 -11
-17 -25z m659 -229 c9 -11 7 -15 -10 -19 -23 -6 -65 10 -55 20 3 3 12 0 21 -7
9 -7 18 -10 22 -6 3 3 1 6 -5 6 -7 0 -12 5 -12 10 0 15 26 12 39 -4z m36 -36
c-3 -5 -12 -10 -18 -10 -7 0 -6 4 3 10 19 12 23 12 15 0z"/>
<path d="M1901 2539 c-1 -16 39 -59 54 -59 5 0 -1 7 -13 16 -13 9 -27 26 -32
38 -6 14 -9 16 -9 5z"/>
<path d="M1983 2473 c9 -2 25 -2 35 0 9 3 1 5 -18 5 -19 0 -27 -2 -17 -5z"/>
<path d="M2058 2463 c7 -3 16 -2 19 1 4 3 -2 6 -13 5 -11 0 -14 -3 -6 -6z"/>
<path d="M2689 3127 c9 -12 9 -16 -1 -20 -7 -3 -4 -6 8 -6 11 -1 25 -6 31 -12
6 -6 13 -7 16 -2 2 4 -11 18 -31 31 -20 13 -30 17 -23 9z"/>
<path d="M2650 3061 c0 -6 4 -13 10 -16 6 -3 7 1 4 9 -7 18 -14 21 -14 7z"/>
<path d="M2353 3035 c-3 -9 -3 -18 -1 -21 3 -3 8 4 11 16 6 23 -1 27 -10 5z"/>
<path d="M3475 3004 c-18 -33 -66 -82 -150 -153 -51 -43 -21 -27 36 19 71 57
150 152 138 165 -3 2 -13 -11 -24 -31z"/>
<path d="M2090 2350 l-25 -8 25 0 c14 0 36 4 50 8 l25 8 -25 0 c-14 0 -36 -4
-50 -8z"/>
<path d="M1965 2330 c-34 -6 -36 -7 -10 -8 17 0 48 3 70 7 33 7 35 9 10 8 -16
0 -48 -3 -70 -7z"/>
<path d="M1748 2313 c34 -2 88 -2 120 0 31 2 3 3 -63 3 -66 0 -92 -1 -57 -3z"/>
<path d="M2628 2313 c7 -3 16 -2 19 1 4 3 -2 6 -13 5 -11 0 -14 -3 -6 -6z"/>
<path d="M2588 2303 c7 -3 16 -2 19 1 4 3 -2 6 -13 5 -11 0 -14 -3 -6 -6z"/>
<path d="M2498 2293 c12 -2 30 -2 40 0 9 3 -1 5 -23 4 -22 0 -30 -2 -17 -4z"/>
</g>
</svg>
