<?xml version="1.0" standalone="no"?>
<!DOCTYPE svg PUBLIC "-//W3C//DTD SVG 20010904//EN"
 "http://www.w3.org/TR/2001/REC-SVG-20010904/DTD/svg10.dtd">
<svg version="1.0" xmlns="http://www.w3.org/2000/svg"
 width="484.000000pt" height="272.000000pt" viewBox="0 0 484.000000 272.000000"
 preserveAspectRatio="xMidYMid meet">

<g transform="translate(0.000000,272.000000) scale(0.100000,-0.100000)"
fill="#000000" stroke="none">
<path d="M0 1360 l0 -1360 2420 0 2420 0 0 1360 0 1360 -2420 0 -2420 0 0
-1360z m2445 1158 c30 -92 36 -98 110 -98 35 0 67 -4 70 -10 3 -5 -17 -34 -45
-64 l-51 -54 32 -71 c18 -39 29 -74 26 -77 -2 -3 -41 13 -86 35 l-81 41 -81
-41 c-45 -22 -83 -38 -86 -36 -2 3 10 38 26 77 l31 73 -50 53 c-28 30 -48 59
-45 64 3 6 35 10 70 10 74 0 80 6 110 98 9 28 20 52 25 52 5 0 16 -24 25 -52z
m-385 -212 l0 -53 38 -7 c20 -3 49 -6 65 -6 15 0 27 -4 27 -8 0 -4 -29 -25
-65 -47 l-65 -40 0 -62 c0 -37 -4 -63 -10 -63 -6 0 -36 13 -68 29 l-58 29 -65
-28 c-128 -54 -133 -52 -59 35 l49 58 -29 34 c-45 51 -40 63 28 63 84 0 96 6
148 71 26 32 51 56 55 53 5 -3 9 -29 9 -58z m821 -40 c14 -17 31 -21 93 -24
87 -5 93 -12 47 -65 l-30 -33 51 -62 c28 -35 48 -65 45 -68 -3 -3 -43 10 -88
29 l-84 35 -57 -29 c-32 -16 -62 -29 -68 -29 -6 0 -10 26 -10 63 l0 63 -65 38
c-36 21 -65 42 -65 47 0 5 15 9 34 9 18 0 48 3 65 6 30 6 31 8 31 59 0 28 3
55 7 58 5 6 38 -27 94 -97z m-226 -305 c207 -62 392 -195 505 -361 55 -81 114
-207 135 -290 22 -86 32 -210 16 -210 -7 0 -11 20 -11 53 0 72 -34 204 -74
292 -111 240 -300 407 -556 491 -79 26 -96 28 -255 28 -189 1 -242 -9 -372
-69 -403 -186 -608 -619 -498 -1050 18 -70 81 -206 125 -269 32 -48 35 -56 21
-56 -14 0 -98 138 -126 209 -52 128 -68 222 -62 381 6 167 24 246 89 377 119
240 361 430 623 487 103 23 346 16 440 -13z m-215 -43 c32 -70 28 -78 -35 -78
l-54 0 14 39 c33 94 47 101 75 39z m-74 20 c-3 -7 -11 -32 -17 -55 -14 -44
-31 -53 -105 -53 -42 0 -43 8 -1 47 57 54 138 94 123 61z m135 -4 c35 -18 109
-82 109 -95 0 -10 -53 -12 -97 -3 -25 5 -33 13 -42 46 -7 22 -15 46 -18 54 -7
18 11 18 48 -2z m111 -14 c56 -21 121 -59 163 -96 30 -26 30 -26 5 -21 -14 3
-49 9 -78 13 -48 6 -59 13 -117 71 -66 66 -65 68 27 33z m-384 -39 c-54 -54
-64 -59 -115 -66 -31 -4 -63 -9 -72 -13 -11 -3 -8 3 8 21 34 37 181 112 227
116 6 1 -16 -26 -48 -58z m1918 34 c96 -18 196 -65 225 -106 220 -310 -876
-1012 -2176 -1394 -292 -86 -603 -155 -855 -190 -180 -25 -504 -31 -620 -11
-281 49 -351 178 -206 380 132 184 470 428 875 631 105 52 113 55 107 33 -3
-13 -9 -69 -13 -126 l-6 -104 -76 -55 c-154 -114 -241 -224 -241 -307 0 -78
47 -123 161 -152 88 -23 366 -15 534 15 626 111 1392 439 1692 724 94 90 133
154 133 221 0 44 -4 53 -39 86 -60 58 -133 75 -322 75 l-157 1 -85 87 c-46 49
-80 90 -73 92 32 12 319 66 441 85 280 42 533 47 701 15z m-1996 1 c0 -2 -20
-16 -45 -31 -25 -14 -62 -41 -82 -58 -33 -29 -189 -96 -177 -75 16 26 185 125
264 154 43 16 40 15 40 10z m627 -41 c68 -32 186 -105 197 -123 13 -21 -145
47 -185 80 -24 20 -64 48 -89 63 -59 34 -17 24 77 -20z m-450 -77 c-3 -13 -11
-63 -18 -113 -6 -49 -15 -93 -18 -96 -3 -4 -52 -9 -108 -13 l-102 -6 20 57
c11 32 34 85 52 118 34 64 45 69 146 74 30 1 33 -1 28 -21z m148 0 c10 -44 25
-153 25 -180 l0 -28 -90 0 -90 0 0 33 c0 18 5 60 10 93 20 113 13 104 80 104
54 0 60 -2 65 -22z m158 5 c11 -7 56 -99 83 -170 l24 -63 -103 6 c-56 4 -105
9 -108 13 -3 3 -12 47 -18 96 -7 50 -15 101 -18 114 l-6 24 69 -8 c38 -4 72
-9 77 -12z m-499 -55 c-15 -29 -37 -82 -50 -117 l-23 -64 -113 -23 c-62 -13
-114 -24 -116 -24 -8 -1 34 80 72 137 74 112 78 115 169 134 45 9 83 15 85 14
2 -2 -9 -27 -24 -57z m683 32 c17 0 100 -115 139 -192 19 -38 33 -68 32 -68
-2 0 -54 11 -117 24 l-115 23 -21 64 c-12 35 -34 87 -49 116 -14 29 -26 54
-26 57 0 2 33 -3 73 -10 39 -8 77 -14 84 -14z m201 -79 c59 -43 125 -128 176
-228 14 -29 26 -54 26 -57 0 -2 -25 10 -55 28 -30 18 -75 39 -100 46 -44 12
-48 16 -86 93 -22 44 -54 99 -71 121 -18 23 -36 47 -42 54 -12 17 117 -31 152
-57z m-1114 -8 c-26 -38 -59 -95 -74 -129 -26 -57 -31 -62 -74 -74 -26 -7 -71
-28 -101 -46 -30 -18 -55 -30 -55 -28 0 12 57 115 91 165 50 74 116 131 181
157 29 11 59 21 65 21 7 1 -8 -29 -33 -66z m386 -156 c0 -19 -3 -75 -6 -124
l-7 -90 -111 -12 c-62 -6 -118 -11 -125 -11 -13 0 -12 12 15 155 9 44 19 84
23 88 7 7 89 17 194 26 13 1 17 -7 17 -32z m224 -44 c3 -42 6 -98 6 -125 l0
-48 -110 0 -110 0 0 48 c0 27 3 83 6 125 l7 77 97 0 97 0 7 -77z m196 58 c34
-7 35 -8 51 -83 9 -41 19 -97 21 -123 l6 -47 -67 6 c-36 4 -91 9 -122 13 l-56
5 -7 82 c-3 44 -6 100 -6 124 l0 42 73 -6 c39 -4 88 -9 107 -13z m-673 -113
c-11 -57 -21 -112 -23 -123 -3 -17 -20 -24 -106 -43 -57 -12 -114 -25 -127
-28 -23 -7 -23 -6 -16 37 8 56 44 190 54 207 8 13 155 50 206 51 l31 1 -19
-102z m889 77 l71 -16 16 -52 c19 -62 49 -198 44 -204 -3 -2 -200 40 -244 53
-7 2 -13 18 -13 36 0 18 -8 73 -18 122 l-19 88 46 -5 c25 -3 78 -13 117 -22z
m-1142 -73 c-8 -26 -22 -85 -32 -131 l-17 -83 -57 -23 c-31 -13 -77 -37 -103
-55 l-47 -32 7 48 c12 85 35 178 51 201 19 30 79 69 151 99 32 13 59 24 59 24
1 0 -4 -21 -12 -48z m1380 -16 c25 -14 54 -38 65 -52 19 -24 42 -113 56 -212
l5 -43 -46 31 c-25 18 -71 42 -102 55 -49 20 -58 27 -65 56 -30 133 -45 196
-52 212 -7 17 -5 17 44 -2 28 -10 71 -31 95 -45z m-887 -223 c-4 -54 -7 -121
-7 -149 l0 -51 -92 -6 c-51 -4 -108 -9 -127 -13 l-34 -7 5 147 c3 80 7 149 10
151 6 7 139 22 202 24 l49 1 -6 -97z m247 66 c3 -17 6 -83 6 -145 l0 -114
-120 0 -120 0 0 123 c0 179 -8 167 120 167 l108 0 6 -31z m227 14 c36 -5 36
-5 43 -66 3 -33 6 -100 6 -149 l0 -89 -47 7 c-27 4 -83 10 -126 13 l-77 6 -6
149 -6 149 89 -7 c48 -4 104 -10 124 -13z m-747 -160 c-4 -145 -4 -148 -26
-151 -13 -2 -65 -14 -117 -28 -52 -13 -97 -22 -100 -18 -9 8 -7 281 1 290 10
9 186 53 220 53 l27 1 -5 -147z m949 123 c54 -13 101 -27 105 -30 9 -9 16
-209 8 -239 -10 -41 -44 -48 -127 -27 -41 10 -84 20 -97 22 -23 3 -23 5 -27
151 -5 173 -18 161 138 123z m-1218 -187 l0 -150 -64 -34 c-35 -19 -71 -41
-81 -50 -16 -15 -18 -12 -33 47 -9 35 -19 97 -23 138 l-6 76 38 34 c31 27 142
88 164 90 3 0 5 -68 5 -151z m1429 117 c39 -19 84 -48 99 -64 l29 -30 -99 -56
c-55 -31 -101 -56 -104 -56 -2 0 -4 54 -4 120 -1 66 1 120 3 120 3 0 37 -15
76 -34z m-889 -198 c2 -7 5 -81 8 -165 l4 -152 -46 -6 c-25 -3 -73 -9 -106
-14 -33 -5 -61 -8 -63 -6 -8 7 -33 155 -40 234 -9 106 -20 96 118 110 123 12
120 12 125 -1z m249 -110 c-3 -68 -7 -128 -9 -135 -2 -6 -48 -26 -101 -43 -77
-24 -99 -28 -105 -18 -5 7 -9 45 -9 83 0 39 -3 107 -7 153 l-6 82 122 0 122 0
-7 -122z m171 107 c106 -9 101 -5 95 -82 l-5 -68 -122 -46 -123 -47 0 122 c0
68 3 126 7 130 4 4 23 5 43 2 19 -3 67 -8 105 -11z m-681 -99 c3 -46 13 -119
21 -162 8 -43 13 -79 12 -81 -4 -3 -174 -53 -183 -53 -20 0 -114 304 -98 319
5 6 211 60 230 61 7 0 14 -33 18 -84z m879 68 c40 -9 76 -19 80 -23 6 -6 -145
-81 -163 -81 -3 0 -3 27 -2 60 2 33 6 60 8 60 3 0 37 -7 77 -16z m-1139 -106
c6 -43 55 -201 80 -259 5 -13 -2 -20 -34 -33 -22 -9 -49 -16 -59 -16 -23 0
-72 68 -123 176 l-42 87 30 24 c28 22 121 73 135 73 3 0 9 -23 13 -52z m1521
-60 c-19 -62 -95 -196 -151 -266 -120 -153 -296 -269 -481 -317 -222 -58 -477
-27 -673 82 -89 50 -60 53 37 5 462 -233 1009 -35 1224 442 32 71 59 104 44
54z m-89 -105 c-25 -48 -61 -105 -79 -127 l-32 -38 -47 28 c-52 32 -52 33 -14
113 19 41 28 48 116 87 52 23 96 38 98 33 2 -4 -17 -48 -42 -96z m-205 -55
l-19 -46 -60 21 -61 22 77 31 c42 17 78 28 80 24 1 -4 -6 -27 -17 -52z m-826
-4 c-59 -16 -75 -17 -75 -5 0 11 35 18 90 19 32 0 31 -1 -15 -14z m-95 -14 c0
-5 -10 -12 -22 -15 -174 -40 -177 -40 -162 -26 10 11 139 49 167 50 9 1 17 -3
17 -9z m821 -16 c30 -9 58 -20 63 -24 9 -9 -42 -90 -97 -154 l-34 -39 -61 19
c-34 10 -62 21 -62 24 0 3 16 43 35 90 43 106 57 113 156 84z m-151 -21 c-1
-27 -60 -148 -71 -148 -8 0 -45 4 -82 9 l-68 8 3 32 c3 29 8 32 103 68 110 40
115 41 115 31z m325 -74 c0 -14 -131 -128 -172 -150 -20 -11 -26 -10 -40 4
-15 15 -13 19 21 57 20 23 53 66 72 96 l35 55 42 -24 c23 -14 42 -31 42 -38z
m-565 -27 l0 -29 -74 1 c-41 0 -74 2 -72 3 2 3 122 46 144 52 1 1 2 -12 2 -27z
m-13 -84 c-14 -99 -52 -188 -75 -174 -16 10 -50 107 -58 165 l-7 51 73 0 73 0
-6 -42z m-147 -30 c6 -35 18 -78 26 -97 8 -19 12 -36 9 -39 -10 -10 -72 24
-112 61 -40 37 -90 104 -82 111 13 11 70 25 105 25 l41 1 13 -62z m318 48 c19
-20 -88 -144 -147 -171 -23 -10 -43 -16 -46 -13 -3 3 1 20 9 39 8 19 20 63 27
98 l12 64 70 -6 c38 -3 72 -8 75 -11z m89 -23 c29 -9 53 -19 53 -22 0 -15
-134 -95 -195 -117 l-68 -25 54 55 c30 29 63 70 74 90 11 20 22 36 24 36 2 0
28 -8 58 -17z m-552 -48 c20 -30 56 -69 79 -86 39 -29 40 -30 11 -23 -76 18
-221 93 -240 125 -3 4 14 13 37 19 24 6 48 13 53 15 6 2 13 4 16 4 3 1 23 -24
44 -54z m-136 -14 c20 -15 51 -36 69 -45 60 -31 26 -28 -49 4 -86 36 -100 47
-79 60 20 13 17 14 59 -19z m775 23 c28 -11 18 -22 -46 -52 -99 -46 -118 -47
-51 -2 35 23 65 46 68 51 7 11 9 11 29 3z"/>
</g>
</svg>
