<?xml version="1.0" standalone="no"?>
<!DOCTYPE svg PUBLIC "-//W3C//DTD SVG 20010904//EN"
 "http://www.w3.org/TR/2001/REC-SVG-20010904/DTD/svg10.dtd">
<svg version="1.0" xmlns="http://www.w3.org/2000/svg"
 width="500.000000pt" height="500.000000pt" viewBox="0 0 500.000000 500.000000"
 preserveAspectRatio="xMidYMid meet">

<g transform="translate(0.000000,500.000000) scale(0.100000,-0.100000)"
fill="#000000" stroke="none">
<path d="M2485 3138 c-6 -14 -22 -25 -39 -28 l-28 -5 21 -19 c19 -17 19 -21 5
-47 -17 -33 -14 -35 26 -14 27 14 33 14 60 0 40 -21 43 -19 26 13 -14 27 -13
30 7 50 l21 22 -27 0 c-20 0 -31 7 -39 25 -14 31 -20 31 -33 3z"/>
<path d="M2342 3070 c-7 -12 -23 -20 -40 -20 -35 0 -45 -9 -31 -26 7 -9 6 -20
-6 -38 l-17 -25 31 12 c22 8 36 8 55 -1 24 -10 26 -10 26 10 0 12 12 32 28 45
l27 22 -27 1 c-19 0 -28 6 -30 20 l-3 21 -13 -21z"/>
<path d="M2640 3072 c0 -17 -6 -22 -27 -22 l-28 -1 28 -22 c15 -13 27 -32 27
-44 0 -20 2 -20 30 -10 23 9 35 9 50 -1 29 -18 33 -15 16 10 -9 12 -13 31 -10
45 5 20 3 23 -24 23 -21 0 -36 8 -46 22 l-16 22 0 -22z"/>
<path d="M2473 2953 c9 -2 25 -2 35 0 9 3 1 5 -18 5 -19 0 -27 -2 -17 -5z"/>
<path d="M2398 2943 c6 -2 18 -2 25 0 6 3 1 5 -13 5 -14 0 -19 -2 -12 -5z"/>
<path d="M2470 2924 c0 -7 -3 -21 -6 -31 -3 -10 2 -5 12 11 16 28 17 29 30 11
27 -36 18 -45 -48 -46 -35 -1 -51 -4 -36 -6 15 -2 29 -12 31 -21 4 -15 5 -15
6 1 1 13 10 17 35 17 24 0 36 -5 39 -17 4 -17 5 -17 6 0 1 12 10 17 34 17 28
0 37 -6 52 -35 11 -19 21 -32 23 -30 3 2 -3 15 -11 29 -16 24 -16 25 6 29 19
4 18 4 -5 6 -15 0 -32 9 -37 19 -6 9 -11 11 -11 5 0 -8 -13 -13 -29 -13 -21 0
-30 6 -34 22 -8 29 -1 35 25 19 15 -9 18 -10 12 0 -5 9 -2 10 12 5 10 -4 35
-10 54 -12 l35 -4 -35 13 c-27 11 -31 15 -16 18 10 2 -18 4 -63 5 -59 1 -81
-3 -81 -12z"/>
<path d="M2364 2918 c-17 -5 -35 -18 -41 -27 -10 -16 -8 -16 26 1 20 10 51 20
69 22 18 2 36 6 39 10 10 9 -58 5 -93 -6z"/>
<path d="M3227 2923 c18 -2 50 -2 70 0 21 2 7 4 -32 4 -38 0 -55 -2 -38 -4z"/>
<path d="M3123 2913 c15 -2 37 -2 50 0 12 2 0 4 -28 4 -27 0 -38 -2 -22 -4z"/>
<path d="M3353 2913 c9 -2 23 -2 30 0 6 3 -1 5 -18 5 -16 0 -22 -2 -12 -5z"/>
<path d="M3050 2898 c23 -5 14 -5 -25 -2 -45 3 -56 1 -45 -7 11 -8 2 -9 -35
-5 -30 4 -72 0 -104 -9 -30 -8 -59 -11 -64 -8 -6 4 -7 1 -2 -7 5 -8 3 -11 -6
-8 -8 3 -14 10 -14 15 0 6 -4 15 -9 20 -5 5 -6 3 -2 -4 8 -15 -10 -18 -19 -3
-3 6 -11 10 -18 10 -6 0 6 -12 27 -26 30 -21 35 -28 25 -36 -12 -8 -11 -9 1
-6 17 5 28 -3 84 -57 36 -35 39 -36 22 -10 -19 29 -19 30 0 14 14 -12 46 -18
127 -21 135 -6 131 4 -6 12 l-102 7 80 1 c89 2 160 -13 149 -30 -5 -7 -2 -9 8
-5 36 13 60 -50 37 -96 -15 -29 -100 -117 -114 -117 -5 0 11 19 38 41 72 62
93 114 62 155 -13 17 -13 16 -3 -12 17 -47 -2 -82 -85 -153 l-72 -62 -6 28
c-7 28 -7 28 -8 -4 -1 -39 2 -40 40 -12 16 11 29 17 29 12 0 -29 -457 -259
-477 -240 -2 3 31 19 74 36 104 42 241 110 225 110 -10 1 -13 17 -10 66 1 36
0 65 -4 65 -5 0 -9 12 -9 28 -2 23 -2 24 -6 5 -2 -13 -10 -23 -16 -23 -7 0 -4
-5 6 -11 13 -8 17 -24 17 -75 0 -53 -3 -66 -17 -70 -18 -6 -62 -28 -96 -48
-13 -8 -20 -8 -26 2 -6 11 -9 10 -13 -5 -4 -16 -93 -58 -123 -58 -5 0 -17 -8
-26 -17 -18 -20 -168 -69 -292 -95 -53 -11 -127 -18 -207 -18 -108 0 -130 3
-160 21 -19 11 -39 33 -45 48 -14 40 27 109 100 169 54 43 84 60 71 39 -2 -4
-1 -14 5 -22 6 -10 9 8 9 55 0 39 3 81 6 95 6 22 5 23 -7 9 -8 -9 -59 -42
-114 -73 -152 -86 -227 -134 -260 -167 -17 -16 -34 -29 -39 -29 -15 0 8 23 66
66 67 49 71 61 5 15 -60 -42 -197 -176 -197 -192 0 -8 9 0 20 17 11 17 39 46
62 64 40 32 39 30 -14 -28 -32 -35 -58 -68 -58 -73 0 -6 -4 -8 -9 -5 -14 9
-23 -47 -12 -76 5 -14 21 -35 36 -46 29 -23 120 -47 150 -39 14 3 10 5 -11 6
-51 2 -130 29 -150 53 l-19 22 30 -21 c52 -36 112 -47 245 -46 132 1 254 17
427 58 58 14 108 24 110 21 2 -2 -31 -12 -74 -23 l-78 -20 56 1 c31 0 55 4 52
9 -7 12 3 8 47 -17 28 -16 37 -26 28 -30 -7 -3 -3 -3 9 -1 11 3 41 1 66 -5 24
-7 55 -10 69 -8 24 3 24 4 11 33 -13 28 -14 28 -9 4 5 -23 3 -27 -18 -25 -13
0 -23 3 -21 5 3 2 -9 20 -25 39 -16 19 -27 39 -24 44 3 4 0 8 -5 8 -18 0 -13
-13 21 -54 l32 -39 -29 8 c-17 4 -38 7 -48 7 -9 0 -15 3 -12 7 2 5 -3 15 -13
22 -15 13 -16 12 -3 -3 16 -21 11 -22 -24 -6 -26 12 -36 34 -10 24 8 -3 15 -1
15 4 0 6 8 10 18 10 13 0 14 2 3 9 -10 7 -6 11 16 15 68 15 243 76 407 142 15
6 17 4 11 -6 -6 -10 -4 -12 9 -7 10 4 20 7 22 7 3 0 3 4 -1 9 -3 5 5 13 17 17
13 4 81 35 153 70 71 35 131 61 133 59 2 -2 -62 -35 -142 -75 -80 -39 -146
-76 -146 -83 0 -9 2 -9 8 -1 11 18 100 57 112 49 5 -3 10 0 10 7 0 9 3 9 10
-2 8 -13 10 -13 10 2 0 10 29 32 79 59 44 24 77 48 74 53 -4 5 1 7 11 3 10 -4
15 -3 11 3 -3 5 7 16 22 24 141 72 378 276 389 335 6 30 -11 75 -25 66 -5 -2
-15 3 -22 12 -12 15 -12 16 4 10 11 -4 16 -3 12 3 -3 6 -18 7 -32 4 -16 -4
-24 -3 -20 3 4 6 -4 9 -21 6 -19 -2 -22 -1 -10 4 10 5 -78 8 -195 8 -116 0
-196 -3 -177 -7z m-165 -33 c-65 -17 -103 -17 -45 0 25 7 56 13 70 13 14 0 3
-6 -25 -13z m-51 -54 c34 -37 11 -32 -25 5 -21 23 -26 33 -14 26 11 -5 29 -20
39 -31z m689 -33 c-9 -31 -9 -30 -9 20 1 39 3 47 10 32 5 -12 5 -33 -1 -52z
m-2046 -660 c-3 -7 -5 -2 -5 12 0 14 2 19 5 13 2 -7 2 -19 0 -25z"/>
<path d="M2223 2873 c-10 -10 -14 -15 -9 -10 18 13 29 7 15 -10 -9 -10 0 -7
23 8 20 13 35 26 32 28 -2 3 -10 -1 -16 -7 -15 -15 -32 -16 -23 -2 10 15 -1
12 -22 -7z"/>
<path d="M2271 2848 l-25 -19 30 7 c36 8 34 7 26 21 -5 8 -15 5 -31 -9z"/>
<path d="M2355 2860 l-30 -8 27 -1 c15 0 30 4 33 9 3 6 5 9 3 9 -2 -1 -16 -5
-33 -9z"/>
<path d="M2685 2851 c-2 -5 8 -11 23 -14 35 -7 38 -3 7 11 -13 6 -27 7 -30 3z"/>
<path d="M2146 2810 c-21 -23 -33 -46 -30 -54 5 -12 11 -9 30 14 14 16 33 31
43 35 10 3 18 12 18 21 0 9 -14 1 -39 -23 -46 -45 -51 -33 -6 14 18 18 29 33
26 33 -3 0 -22 -18 -42 -40z"/>
<path d="M2340 2798 c-11 -24 -20 -48 -20 -55 0 -6 -5 -13 -12 -15 -23 -8 7
-15 32 -7 16 4 19 7 8 8 -23 1 -22 16 2 69 10 23 17 42 14 42 -3 0 -14 -19
-24 -42z"/>
<path d="M2244 2808 c-4 -7 -14 -24 -22 -38 -14 -24 -13 -24 3 -5 20 24 37 55
31 55 -3 0 -8 -6 -12 -12z"/>
<path d="M2442 2795 c0 -16 2 -22 5 -12 2 9 2 23 0 30 -3 6 -5 -1 -5 -18z"/>
<path d="M2542 2780 c0 -19 2 -27 5 -17 2 9 2 25 0 35 -3 9 -5 1 -5 -18z"/>
<path d="M2764 2763 c14 -24 26 -47 26 -52 0 -5 7 -22 15 -37 10 -19 15 -23
15 -12 0 20 -45 106 -67 128 -9 8 -4 -4 11 -27z"/>
<path d="M2656 2758 c4 -20 1 -27 -13 -31 -15 -4 -14 -5 5 -6 12 0 22 -7 22
-13 0 -9 3 -8 10 2 5 8 6 17 2 20 -4 3 -13 16 -20 30 l-11 25 5 -27z"/>
<path d="M2089 2733 c-13 -16 -12 -17 4 -4 16 13 21 21 13 21 -2 0 -10 -8 -17
-17z"/>
<path d="M2185 2709 c-9 -17 -14 -36 -11 -42 2 -7 5 -4 5 6 1 9 5 17 10 17 5
0 11 11 13 25 7 33 2 32 -17 -6z"/>
<path d="M2412 2733 c12 -3 18 -17 21 -46 l4 -42 1 43 2 42 54 0 55 0 4 -47 3
-48 2 47 c2 35 6 48 20 51 9 3 -28 5 -83 5 -55 0 -92 -2 -83 -5z"/>
<path d="M2900 2720 c6 -11 13 -20 16 -20 2 0 0 9 -6 20 -6 11 -13 20 -16 20
-2 0 0 -9 6 -20z"/>
<path d="M3445 2662 c-34 -36 -114 -100 -185 -148 -138 -93 -157 -114 -28 -30
107 69 215 156 251 201 46 57 27 46 -38 -23z"/>
<path d="M2258 2713 c7 -3 16 -2 19 1 4 3 -2 6 -13 5 -11 0 -14 -3 -6 -6z"/>
<path d="M2718 2713 c7 -3 16 -2 19 1 4 3 -2 6 -13 5 -11 0 -14 -3 -6 -6z"/>
<path d="M2071 2659 c-12 -29 -20 -53 -19 -54 2 -1 14 11 28 28 14 17 19 28
13 24 -16 -10 -16 -2 -2 25 6 11 9 22 6 24 -2 3 -14 -19 -26 -47z"/>
<path d="M2218 2703 c7 -3 16 -2 19 1 4 3 -2 6 -13 5 -11 0 -14 -3 -6 -6z"/>
<path d="M2758 2703 c7 -3 16 -2 19 1 4 3 -2 6 -13 5 -11 0 -14 -3 -6 -6z"/>
<path d="M2899 2682 c16 -31 14 -34 -14 -16 -14 9 -28 14 -32 10 -3 -3 -1 -6
5 -6 22 0 71 -52 78 -83 4 -17 9 -27 11 -21 5 15 -35 122 -49 130 -6 4 -6 -1
1 -14z"/>
<path d="M2124 2674 c-18 -14 -18 -14 6 -3 31 14 36 19 24 19 -6 0 -19 -7 -30
-16z"/>
<path d="M2302 2670 c0 -14 2 -19 5 -12 2 6 2 18 0 25 -3 6 -5 1 -5 -13z"/>
<path d="M2682 2670 c0 -14 2 -19 5 -12 2 6 2 18 0 25 -3 6 -5 1 -5 -13z"/>
<path d="M2930 2665 c0 -5 5 -17 10 -25 5 -8 10 -10 10 -5 0 6 -5 17 -10 25
-5 8 -10 11 -10 5z"/>
<path d="M2161 2634 c0 -11 3 -14 6 -6 3 7 2 16 -1 19 -3 4 -6 -2 -5 -13z"/>
<path d="M2289 2608 c-3 -22 -1 -34 4 -29 5 5 7 21 5 37 -3 27 -4 26 -9 -8z"/>
<path d="M2821 2624 c0 -11 3 -14 6 -6 3 7 2 16 -1 19 -3 4 -6 -2 -5 -13z"/>
<path d="M2692 2605 c0 -16 2 -22 5 -12 2 9 2 23 0 30 -3 6 -5 -1 -5 -18z"/>
<path d="M2152 2590 c0 -14 2 -19 5 -12 2 6 2 18 0 25 -3 6 -5 1 -5 -13z"/>
<path d="M2420 2475 c0 -76 2 -136 4 -134 7 7 9 259 2 266 -3 4 -6 -56 -6
-132z"/>
<path d="M2468 2593 c12 -2 32 -2 45 0 12 2 2 4 -23 4 -25 0 -35 -2 -22 -4z"/>
<path d="M2558 2478 c1 -67 4 -124 7 -126 3 -3 5 52 5 121 0 70 -3 127 -7 127
-5 0 -7 -55 -5 -122z"/>
<path d="M2041 2574 c0 -11 3 -14 6 -6 3 7 2 16 -1 19 -3 4 -6 -2 -5 -13z"/>
<path d="M2343 2583 c9 -2 25 -2 35 0 9 3 1 5 -18 5 -19 0 -27 -2 -17 -5z"/>
<path d="M2613 2583 c9 -2 25 -2 35 0 9 3 1 5 -18 5 -19 0 -27 -2 -17 -5z"/>
<path d="M1919 2537 c-89 -50 -179 -107 -179 -114 0 -3 12 3 28 13 43 28 111
69 182 108 36 20 61 36 55 35 -5 0 -44 -19 -86 -42z"/>
<path d="M2238 2573 c7 -3 16 -2 19 1 4 3 -2 6 -13 5 -11 0 -14 -3 -6 -6z"/>
<path d="M2738 2573 c7 -3 16 -2 19 1 4 3 -2 6 -13 5 -11 0 -14 -3 -6 -6z"/>
<path d="M2198 2563 c7 -3 16 -2 19 1 4 3 -2 6 -13 5 -11 0 -14 -3 -6 -6z"/>
<path d="M2778 2563 c7 -3 16 -2 19 1 4 3 -2 6 -13 5 -11 0 -14 -3 -6 -6z"/>
<path d="M2138 2553 c-2 -5 0 -42 3 -83 l5 -75 2 77 c2 64 5 77 20 81 13 4 12
5 -5 6 -12 0 -23 -2 -25 -6z"/>
<path d="M2280 2490 c0 -49 -4 -70 -12 -70 -9 0 -10 -3 -2 -8 6 -4 14 -14 17
-22 3 -8 6 27 6 78 1 50 -1 92 -4 92 -3 0 -5 -31 -5 -70z"/>
<path d="M2030 2475 c0 -43 2 -76 5 -73 7 7 8 138 1 145 -3 4 -6 -29 -6 -72z"/>
<path d="M2702 2478 c-2 -67 0 -77 14 -71 9 3 12 8 5 12 -5 4 -12 36 -14 71
l-3 65 -2 -77z"/>
<path d="M2870 2536 c0 -2 7 -7 16 -10 8 -3 12 -2 9 4 -6 10 -25 14 -25 6z"/>
<path d="M2949 2519 c-1 -13 -2 -30 -3 -37 0 -7 -14 -21 -31 -32 -16 -11 -25
-20 -20 -20 6 0 23 9 40 20 25 16 29 25 26 52 -4 41 -11 50 -12 17z"/>
<path d="M1923 2378 c-58 -55 -83 -94 -83 -127 0 -22 54 -71 78 -71 9 0 2 8
-17 18 -73 36 -67 78 24 168 76 77 76 85 -2 12z"/>
<path d="M2218 2403 c7 -3 16 -2 19 1 4 3 -2 6 -13 5 -11 0 -14 -3 -6 -6z"/>
<path d="M2758 2403 c7 -3 16 -2 19 1 4 3 -2 6 -13 5 -11 0 -14 -3 -6 -6z"/>
<path d="M2021 2374 c0 -11 3 -14 6 -6 3 7 2 16 -1 19 -3 4 -6 -2 -5 -13z"/>
<path d="M2036 2359 c-8 -42 0 -50 9 -9 4 17 5 34 2 36 -2 3 -7 -10 -11 -27z"/>
<path d="M2124 2375 c-18 -14 -18 -14 2 -9 19 5 23 0 28 -33 4 -21 11 -45 17
-53 7 -10 7 -6 2 15 -4 17 -8 45 -8 63 0 35 -11 40 -41 17z"/>
<path d="M2292 2330 c0 -19 2 -27 5 -17 2 9 2 25 0 35 -3 9 -5 1 -5 -18z"/>
<path d="M2050 2333 c0 -5 5 -15 10 -23 7 -12 9 -10 7 8 -1 19 -17 33 -17 15z"/>
<path d="M2041 2305 c-1 -17 17 -38 33 -41 10 -1 13 3 8 14 -4 12 -7 13 -10 2
-3 -9 -9 -5 -18 11 -7 13 -13 20 -13 14z"/>
<path d="M2301 2274 c0 -11 3 -14 6 -6 3 7 2 16 -1 19 -3 4 -6 -2 -5 -13z"/>
<path d="M2428 2273 c-5 -19 -13 -23 -50 -24 -33 0 -38 -2 -23 -9 11 -5 15 -9
8 -9 -6 -1 -19 -4 -29 -8 -11 -4 -15 -3 -10 5 11 18 -7 21 -39 6 l-30 -13 30
4 30 5 -30 -15 -30 -15 40 6 c52 9 185 52 163 53 -9 1 -18 9 -20 19 -3 14 -5
13 -10 -5z"/>
<path d="M2902 2270 c-6 -11 -12 -23 -12 -27 0 -5 5 -1 10 7 5 8 15 15 21 15
7 0 14 7 16 15 4 12 3 12 -5 1 -6 -9 -11 -10 -13 -2 -2 6 -10 2 -17 -9z"/>
<path d="M2184 2248 c3 -10 9 -25 12 -33 8 -19 -43 -32 -67 -17 -15 10 -17 9
-13 -3 5 -13 -9 -15 -87 -17 l-94 -2 75 -4 c93 -4 256 17 223 29 -12 4 -29 21
-38 36 -9 15 -14 20 -11 11z"/>
<path d="M2700 2235 c-19 -8 -98 -36 -175 -64 -109 -39 -130 -50 -96 -47 23 2
46 8 50 14 3 6 19 14 35 18 26 6 28 5 21 -15 -6 -19 -3 -21 37 -19 37 1 38 2
11 5 -54 7 -44 38 20 61 28 11 53 16 55 12 2 -5 12 0 22 10 11 11 26 17 33 14
8 -3 17 2 20 10 4 9 5 16 4 15 -1 0 -18 -7 -37 -14z"/>
<path d="M2786 2225 c-3 -9 -12 -12 -23 -9 -15 5 -15 4 -3 -5 13 -9 13 -14 -3
-43 l-19 -33 21 25 c11 14 21 29 21 33 0 4 10 3 23 -3 20 -10 20 -10 4 3 -10
9 -15 21 -11 31 3 9 4 16 1 16 -3 0 -7 -7 -11 -15z"/>
<path d="M2086 2217 c3 -10 9 -15 12 -12 3 3 0 11 -7 18 -10 9 -11 8 -5 -6z"/>
<path d="M2228 2213 c7 -3 16 -2 19 1 4 3 -2 6 -13 5 -11 0 -14 -3 -6 -6z"/>
<path d="M2861 2197 c-13 -21 -12 -21 5 -5 10 10 16 20 13 22 -3 3 -11 -5 -18
-17z"/>
<path d="M2637 2145 c-9 -19 -13 -35 -9 -35 8 0 34 61 29 67 -2 1 -11 -13 -20
-32z"/>
<path d="M2830 2170 c0 -7 -7 -21 -15 -30 -13 -15 -13 -17 0 -17 8 0 27 14 42
31 16 17 21 25 12 18 -12 -9 -18 -9 -27 0 -9 9 -12 9 -12 -2z m20 -14 c0 -2
-8 -10 -17 -17 -16 -13 -17 -12 -4 4 13 16 21 21 21 13z"/>
<path d="M2702 2113 c-12 -2 -20 -9 -17 -14 7 -10 -81 -69 -104 -69 -11 0 -10
5 6 23 11 12 23 29 28 37 4 8 -5 0 -20 -18 -34 -41 -65 -59 -75 -42 -5 8 -9 7
-14 -6 -6 -15 -1 -16 52 -11 70 8 94 16 86 29 -4 6 2 8 17 3 17 -4 20 -3 10 3
-11 8 -8 13 13 27 32 21 48 12 20 -11 -17 -15 -16 -15 8 0 33 19 42 20 32 4
-4 -8 -3 -10 2 -5 5 5 9 14 9 20 0 5 6 12 14 15 9 3 11 0 5 -9 -7 -12 -5 -12
9 0 21 17 21 16 -3 18 -11 1 -22 -2 -25 -8 -10 -16 -38 -11 -31 6 3 8 4 14 3
14 -1 -1 -12 -4 -25 -6z"/>
<path d="M2451 2094 c0 -11 3 -14 6 -6 3 7 2 16 -1 19 -3 4 -6 -2 -5 -13z"/>
<path d="M2526 2084 c-4 -14 -5 -28 -3 -31 3 -2 8 8 11 23 4 14 5 28 3 31 -3
2 -8 -8 -11 -23z"/>
<path d="M2005 2039 c-67 -14 -76 -17 -35 -13 57 5 180 32 145 32 -11 -1 -60
-9 -110 -19z"/>
<path d="M1833 2013 c15 -2 39 -2 55 0 15 2 2 4 -28 4 -30 0 -43 -2 -27 -4z"/>
<path d="M1708 2003 c18 -2 45 -2 60 0 15 2 0 4 -33 4 -33 0 -45 -2 -27 -4z"/>
<path d="M2598 2003 c7 -3 16 -2 19 1 4 3 -2 6 -13 5 -11 0 -14 -3 -6 -6z"/>
<path d="M2423 1993 c9 -2 25 -2 35 0 9 3 1 5 -18 5 -19 0 -27 -2 -17 -5z"/>
<path d="M2528 1993 c12 -2 30 -2 40 0 9 3 -1 5 -23 4 -22 0 -30 -2 -17 -4z"/>
</g>
</svg>
