<?xml version="1.0" standalone="no"?>
<!DOCTYPE svg PUBLIC "-//W3C//DTD SVG 20010904//EN"
 "http://www.w3.org/TR/2001/REC-SVG-20010904/DTD/svg10.dtd">
<svg version="1.0" xmlns="http://www.w3.org/2000/svg"
 width="740.000000pt" height="272.000000pt" viewBox="0 0 740.000000 272.000000"
 preserveAspectRatio="xMidYMid meet">

<g transform="translate(0.000000,272.000000) scale(0.100000,-0.100000)"
fill="#000000" stroke="none">
<path d="M0 1360 l0 -1360 3700 0 3700 0 0 1360 0 1360 -3700 0 -3700 0 0
-1360z m878 404 c21 -15 25 -15 41 0 23 21 123 22 140 2 10 -12 9 -40 -4 -128
-9 -62 -18 -125 -21 -141 l-6 -27 242 2 242 3 13 38 13 37 -88 0 c-106 0 -116
7 -107 82 6 45 13 59 54 100 l48 48 260 -2 260 -3 5 -30 c4 -22 8 -26 14 -16
5 7 27 22 50 32 35 16 67 19 221 19 150 0 184 -3 203 -16 21 -15 25 -15 41 1
14 12 34 15 77 13 l59 -3 -3 -85 c-2 -67 0 -82 10 -72 7 7 42 12 90 12 75 0
78 1 78 23 0 14 20 42 53 75 l54 53 59 -3 59 -3 -3 -68 c-1 -38 -10 -87 -18
-110 -9 -23 -15 -58 -14 -77 1 -19 -2 -66 -6 -105 -6 -68 -8 -72 -59 -122 -46
-47 -57 -53 -94 -53 -23 0 -51 5 -63 11 -18 10 -19 17 -13 80 l7 70 -88 -3
c-88 -3 -89 -3 -92 -30 -2 -16 -23 -45 -57 -77 -49 -46 -58 -51 -99 -51 -31 0
-52 6 -63 18 -17 16 -20 16 -55 -1 -33 -16 -58 -18 -205 -15 -153 3 -171 5
-206 26 l-39 22 -30 -25 -30 -25 -243 0 c-210 0 -246 2 -260 16 -13 14 -18 14
-32 2 -12 -10 -70 -14 -238 -16 -196 -3 -224 -2 -239 13 -9 9 -14 21 -11 26 9
14 -1 11 -42 -13 -36 -22 -49 -23 -230 -23 -192 0 -193 0 -218 25 -13 14 -27
39 -31 56 -5 26 0 38 26 67 30 35 31 37 16 66 -18 34 -21 107 -6 146 14 36
118 145 155 161 21 9 84 13 215 14 154 0 189 -3 208 -16z m3034 -74 c-2 -67 0
-82 10 -72 7 7 40 12 85 12 67 0 73 2 73 21 0 11 23 45 51 75 51 53 53 54 110
54 43 0 60 -4 67 -16 9 -16 11 -16 33 0 20 13 53 16 207 16 193 0 216 -4 256
-49 l19 -21 39 35 38 35 238 -2 237 -3 3 -43 c2 -24 -3 -56 -12 -72 -9 -18
-12 -44 -9 -63 5 -30 -3 -74 -22 -119 -18 -44 19 -9 95 90 46 59 106 131 134
160 l50 52 73 0 72 0 57 -120 c31 -66 60 -120 64 -120 15 0 19 14 9 32 -18 33
8 81 76 147 l63 61 186 0 c204 0 236 -6 275 -55 l22 -28 32 30 c54 51 63 53
266 53 183 0 191 -1 216 -22 15 -14 28 -38 31 -59 5 -30 1 -41 -24 -70 l-30
-34 20 -35 c15 -27 18 -46 13 -84 -8 -62 -16 -78 -79 -144 -79 -83 -86 -86
-280 -90 -197 -5 -238 3 -262 49 l-16 31 -21 -20 c-60 -54 -74 -57 -352 -60
-143 -1 -269 0 -281 2 -12 3 -28 22 -39 46 l-18 40 -97 0 c-60 0 -100 4 -108
12 -9 9 -25 -2 -70 -45 l-59 -56 -309 3 c-170 2 -316 4 -324 4 -8 1 -36 -1
-61 -4 -28 -4 -56 -1 -69 6 -20 11 -22 18 -18 61 l5 49 -82 0 -82 0 -61 -61
-61 -61 -53 6 c-66 7 -63 7 -119 0 -28 -4 -56 -1 -69 6 -19 10 -21 17 -15 63
3 29 9 60 12 70 4 16 -3 18 -84 15 -87 -3 -88 -3 -91 -30 -2 -16 -23 -45 -57
-77 -48 -45 -59 -51 -97 -51 -81 0 -83 5 -61 166 l19 139 -44 3 c-25 2 -50 1
-56 -1 -7 -3 -18 -47 -25 -106 l-13 -100 -53 -51 c-48 -44 -59 -50 -97 -50
-25 0 -53 6 -63 14 -18 13 -18 17 -1 142 10 71 23 135 28 142 8 9 -9 12 -80
12 -109 0 -118 7 -109 82 6 45 13 59 54 100 l48 49 325 -3 325 -3 -3 -85z"/>
<path d="M473 1735 c-74 -32 -97 -142 -41 -195 20 -18 35 -20 171 -20 162 0
192 -7 181 -43 -4 -12 -12 -25 -18 -29 -6 -4 -95 -8 -198 -8 l-188 0 0 -23 c0
-51 22 -57 209 -57 193 0 229 8 255 59 25 48 21 117 -9 146 -23 24 -28 25
-177 25 -84 0 -160 4 -168 10 -11 7 -12 15 -4 37 l9 28 193 3 192 2 0 25 c0
47 -29 55 -210 55 -118 -1 -174 -5 -197 -15z"/>
<path d="M950 1738 c0 -7 -11 -92 -25 -188 -14 -96 -25 -178 -25 -182 0 -5 95
-8 210 -8 211 0 211 0 235 25 14 13 25 31 25 40 0 13 -25 15 -190 15 l-191 0
6 33 c12 74 35 238 35 257 0 17 -7 20 -40 20 -25 0 -40 -5 -40 -12z"/>
<path d="M1460 1733 c0 -10 -3 -28 -6 -40 l-6 -23 241 0 241 0 0 40 0 40 -235
0 c-217 0 -235 -1 -235 -17z"/>
<path d="M2067 1736 c-20 -8 -45 -20 -54 -27 -30 -26 -54 -97 -60 -184 -10
-148 16 -165 262 -165 152 0 167 2 185 20 11 11 20 29 20 40 0 19 -7 20 -184
20 -151 0 -186 3 -196 15 -14 17 -6 132 12 171 18 38 49 44 233 44 168 0 175
1 175 20 0 11 -9 29 -20 40 -18 18 -33 20 -177 20 -106 -1 -170 -5 -196 -14z"/>
<path d="M2529 1748 c0 -2 -13 -90 -28 -195 l-27 -193 41 0 41 0 23 168 c13
92 25 179 28 195 5 26 4 27 -36 27 -22 0 -41 -1 -42 -2z"/>
<path d="M2926 1738 c-3 -7 -7 -35 -10 -63 -9 -73 -19 -79 -144 -85 l-107 -5
-3 -32 -3 -33 96 0 c127 0 139 -6 130 -73 -3 -29 -9 -60 -11 -69 -5 -15 1 -18
35 -18 45 0 46 2 56 91 5 36 3 64 -4 78 -9 16 -8 26 5 47 17 26 45 159 36 169
-11 10 -73 4 -76 -7z"/>
<path d="M1625 1515 l-7 -75 -98 0 c-93 0 -98 -1 -104 -22 -16 -61 -28 -58
228 -58 254 0 246 -2 246 56 0 24 -1 24 -96 24 l-96 0 6 58 c4 31 9 65 12 75
5 14 -2 17 -39 17 l-45 0 -7 -75z"/>
<path d="M1746 1534 c-3 -9 -6 -27 -6 -40 0 -22 4 -24 49 -24 46 0 49 1 55 31
9 49 9 49 -43 49 -35 0 -51 -4 -55 -16z"/>
<path d="M2066 1519 c-3 -17 -3 -35 0 -40 3 -5 77 -9 165 -9 l159 0 0 24 c0
13 3 31 6 40 5 14 -12 16 -159 16 l-164 0 -7 -31z"/>
<path d="M3280 1733 c0 -10 -3 -28 -6 -41 l-6 -22 238 2 239 3 3 38 3 37 -235
0 c-218 0 -236 -1 -236 -17z"/>
<path d="M3809 1748 c0 -2 -13 -90 -28 -195 l-27 -193 41 0 41 0 22 168 c13
92 25 179 28 195 5 26 4 27 -35 27 -23 0 -41 -1 -42 -2z"/>
<path d="M4197 1728 c-3 -13 -9 -49 -12 -80 l-7 -57 -117 -3 -116 -3 -3 -35
-3 -35 113 0 c70 0 112 -4 111 -10 0 -5 -4 -40 -8 -77 l-7 -68 39 0 40 0 22
158 c12 86 25 174 28 195 l6 37 -41 0 c-33 0 -41 -4 -45 -22z"/>
<path d="M4355 1725 c-14 -13 -25 -31 -25 -40 0 -13 25 -15 184 -15 149 0 186
-3 196 -15 16 -19 4 -72 -20 -85 -10 -6 -99 -10 -198 -10 l-179 0 -11 -82
c-17 -121 -18 -118 27 -118 l39 0 7 60 7 61 152 -3 151 -3 -1 -58 -1 -58 41 3
41 3 1 80 c1 51 7 94 17 117 22 48 22 107 1 137 -30 42 -71 51 -244 51 -158 0
-161 -1 -185 -25z"/>
<path d="M4920 1743 c-26 -10 -50 -36 -50 -55 0 -17 13 -18 235 -18 217 0 235
1 235 18 0 9 3 27 6 40 l6 22 -208 -1 c-115 0 -216 -3 -224 -6z"/>
<path d="M5529 1618 c-56 -73 -125 -161 -152 -195 l-49 -63 50 0 49 0 123 156
124 156 32 -63 c18 -35 33 -70 34 -76 0 -9 -17 -13 -52 -13 -48 0 -55 -3 -76
-33 l-22 -32 97 -5 98 -5 19 -42 c19 -42 20 -43 69 -43 27 0 47 4 45 9 -1 4
-43 92 -93 195 l-90 186 -52 0 -51 0 -103 -132z"/>
<path d="M6025 1726 c-14 -14 -25 -32 -25 -41 0 -13 24 -15 181 -15 105 0 188
-4 200 -10 35 -19 20 -169 -22 -202 -18 -15 -43 -18 -166 -18 l-145 0 6 58 c4
31 9 65 12 75 5 14 -1 17 -39 17 l-44 0 -12 -97 c-7 -54 -15 -106 -17 -116 -5
-17 6 -18 204 -15 194 3 213 5 238 24 48 35 65 68 80 156 17 100 7 148 -39
182 -26 19 -44 21 -207 24 l-179 4 -26 -26z"/>
<path d="M6615 1736 c-49 -21 -68 -51 -73 -110 -4 -48 -1 -57 21 -80 26 -26
28 -26 176 -26 82 0 156 -3 165 -6 19 -7 21 -45 4 -62 -8 -8 -67 -12 -200 -12
l-188 0 0 -24 c0 -52 17 -56 207 -56 200 0 235 9 259 66 20 48 18 107 -5 135
-18 23 -26 24 -188 29 -166 5 -168 5 -171 28 -7 49 6 52 209 52 l189 0 0 24
c0 48 -29 56 -210 56 -114 -1 -174 -5 -195 -14z"/>
<path d="M3441 1493 c-7 -54 -15 -106 -17 -116 -5 -16 0 -18 38 -15 l43 3 16
113 15 112 -41 0 -42 0 -12 -97z"/>
<path d="M4841 1498 c-7 -51 -15 -103 -18 -115 l-5 -23 241 0 241 0 0 40 0 40
-193 0 -194 0 6 38 6 37 198 3 c186 2 197 3 197 21 0 11 3 26 6 35 6 14 -19
16 -234 16 l-239 0 -12 -92z"/>
<path d="M6096 1534 c-3 -9 -6 -27 -6 -40 0 -24 1 -24 94 -24 101 0 106 3 106
56 0 24 -1 24 -94 24 -76 0 -95 -3 -100 -16z"/>
</g>
</svg>
