<?xml version="1.0" encoding="UTF-8"?>
<svg xmlns="http://www.w3.org/2000/svg" version="1.1" viewBox="0 0 687.9 132">
  <!-- Generator: Adobe Illustrator 28.6.0, SVG Export Plug-In . SVG Version: 1.2.0 Build 709)  -->
  <g>
    <g id="Capa_1">
      <g>
        <path d="M-26.1,101v136h740V-35H-26.1V101ZM61.7,60.6c2.1,1.5,2.5,1.5,4.1,0,2.3-2.1,12.3-2.2,14-.2,1,1.2.9,4-.4,12.8-.9,6.2-1.8,12.5-2.1,14.1l-.6,2.7,24.2-.2,24.2-.3,1.3-3.8,1.3-3.7h-8.8c-10.6,0-11.6-.7-10.7-8.2.6-4.5,1.3-5.9,5.4-10l4.8-4.8,26,.2,26,.3.5,3c.4,2.2.8,2.6,1.4,1.6.5-.7,2.7-2.2,5-3.2,3.5-1.6,6.7-1.9,22.1-1.9s18.4.3,20.3,1.6c2.1,1.5,2.5,1.5,4.1-.1,1.4-1.2,3.4-1.5,7.7-1.3l5.9.3-.3,8.5c-.2,6.7,0,8.2,1,7.2s4.2-1.2,9-1.2c7.5,0,7.8-.1,7.8-2.3s2-4.2,5.3-7.5l5.4-5.3,5.9.3,5.9.3-.3,6.8c-.1,3.8-1,8.7-1.8,11-.9,2.3-1.5,5.8-1.4,7.7s-.2,6.6-.6,10.5c-.6,6.8-.8,7.2-5.9,12.2-4.6,4.7-5.7,5.3-9.4,5.3s-5.1-.5-6.3-1.1c-1.8-1-1.9-1.7-1.3-8l.7-7-8.8.3c-8.8.3-8.9.3-9.2,3-.2,1.6-2.3,4.5-5.7,7.7-4.9,4.6-5.8,5.1-9.9,5.1s-5.2-.6-6.3-1.8c-1.7-1.6-2-1.6-5.5.1-3.3,1.6-5.8,1.8-20.5,1.5-15.3-.3-17.1-.5-20.6-2.6l-3.9-2.2-3,2.5-3,2.5h-24.3c-21,0-24.6-.2-26-1.6-1.3-1.4-1.8-1.4-3.2-.2-1.2,1-7,1.4-23.8,1.6-19.6.3-22.4.2-23.9-1.3s-1.4-2.1-1.1-2.6c.9-1.4-.1-1.1-4.2,1.3-3.6,2.2-4.9,2.3-23,2.3s-19.3,0-21.8-2.5c-1.3-1.4-2.7-3.9-3.1-5.6-.5-2.6,0-3.8,2.6-6.7,3-3.5,3.1-3.7,1.6-6.6-1.8-3.4-2.1-10.7-.6-14.6,1.4-3.6,11.8-14.5,15.5-16.1,2.1-.9,8.4-1.3,21.5-1.4,15.4,0,18.9.3,20.8,1.6ZM365.1,68c-.2,6.7,0,8.2,1,7.2s4-1.2,8.5-1.2c6.7,0,7.3-.2,7.3-2.1s2.3-4.5,5.1-7.5c5.1-5.3,5.3-5.4,11-5.4s6,.4,6.7,1.6c.9,1.6,1.1,1.6,3.3,0,2-1.3,5.3-1.6,20.7-1.6s21.6.4,25.6,4.9l1.9,2.1,3.9-3.5,3.8-3.5,23.8.2,23.7.3.3,4.3c.2,2.4-.3,5.6-1.2,7.2-.9,1.8-1.2,4.4-.9,6.3.5,3-.3,7.4-2.2,11.9-1.8,4.4,1.9.9,9.5-9,4.6-5.9,10.6-13.1,13.4-16l5-5.2h14.5l5.7,12c3.1,6.6,6,12,6.4,12,1.5,0,1.9-1.4.9-3.2-1.8-3.3.8-8.1,7.6-14.7l6.3-6.1h18.6c20.4,0,23.6.6,27.5,5.5l2.2,2.8,3.2-3c5.4-5.1,6.3-5.3,26.6-5.3s19.1.1,21.6,2.2c1.5,1.4,2.8,3.8,3.1,5.9.5,3,.1,4.1-2.4,7l-3,3.4,2,3.5c1.5,2.7,1.8,4.6,1.3,8.4-.8,6.2-1.6,7.8-7.9,14.4-7.9,8.3-8.6,8.6-28,9-19.7.5-23.8-.3-26.2-4.9l-1.6-3.1-2.1,2c-6,5.4-7.4,5.7-35.2,6-14.3.1-26.9,0-28.1-.2-1.2-.3-2.8-2.2-3.9-4.6l-1.8-4h-9.7c-6,0-10-.4-10.8-1.2s-2.5.2-7,4.5l-5.9,5.6-30.9-.3c-17-.2-31.6-.4-32.4-.4-.8-.1-3.6.1-6.1.4-2.8.4-5.6.1-6.9-.6-2-1.1-2.2-1.8-1.8-6.1l.5-4.9h-16.4l-6.1,6.1-6.1,6.1-5.3-.6c-6.6-.7-6.3-.7-11.9,0-2.8.4-5.6.1-6.9-.6-1.9-1-2.1-1.7-1.5-6.3.3-2.9.9-6,1.2-7,.4-1.6-.3-1.8-8.4-1.5-8.7.3-8.8.3-9.1,3-.2,1.6-2.3,4.5-5.7,7.7-4.8,4.5-5.9,5.1-9.7,5.1-8.1,0-8.3-.5-6.1-16.6l1.9-13.9-4.4-.3c-2.5-.2-5-.1-5.6.1-.7.3-1.8,4.7-2.5,10.6l-1.3,10-5.3,5.1c-4.8,4.4-5.9,5-9.7,5s-5.3-.6-6.3-1.4c-1.8-1.3-1.8-1.7-.1-14.2,1-7.1,2.3-13.5,2.8-14.2.8-.9-.9-1.2-8-1.2-10.9,0-11.8-.7-10.9-8.2.6-4.5,1.3-5.9,5.4-10l4.8-4.9,32.5.3,32.5.3-.3,8.5Z"/>
        <path d="M21.2,63.5c-7.4,3.2-9.7,14.2-4.1,19.5,2,1.8,3.5,2,17.1,2s19.2.7,18.1,4.3c-.4,1.2-1.2,2.5-1.8,2.9s-9.5.8-19.8.8H11.9v2.3c0,5.1,2.2,5.7,20.9,5.7s22.9-.8,25.5-5.9c2.5-4.8,2.1-11.7-.9-14.6-2.3-2.4-2.8-2.5-17.7-2.5s-16-.4-16.8-1c-1.1-.7-1.2-1.5-.4-3.7l.9-2.8,19.3-.3,19.2-.2v-2.5c0-4.7-2.9-5.5-21-5.5-11.8.1-17.4.5-19.7,1.5Z"/>
        <path d="M68.9,63.2c0,.7-1.1,9.2-2.5,18.8s-2.5,17.8-2.5,18.2,9.5.8,21,.8q21.1,0,23.5-2.5c1.4-1.3,2.5-3.1,2.5-4,0-1.3-2.5-1.5-19-1.5h-19.1l.6-3.3c1.2-7.4,3.5-23.8,3.5-25.7s-.7-2-4-2-4,.5-4,1.2Z"/>
        <path d="M119.9,63.7c0,1-.3,2.8-.6,4l-.6,2.3h48.2v-8h-23.5c-21.7,0-23.5.1-23.5,1.7Z"/>
        <path d="M180.6,63.4c-2,.8-4.5,2-5.4,2.7-3,2.6-5.4,9.7-6,18.4-1,14.8,1.6,16.5,26.2,16.5s16.7-.2,18.5-2,2-2.9,2-4c0-1.9-.7-2-18.4-2s-18.6-.3-19.6-1.5c-1.4-1.7-.6-13.2,1.2-17.1,1.8-3.8,4.9-4.4,23.3-4.4s17.5-.1,17.5-2-.9-2.9-2-4c-1.8-1.8-3.3-2-17.7-2-10.6.1-17,.5-19.6,1.4Z"/>
        <path d="M226.8,62.2c0,.2-1.3,9-2.8,19.5l-2.7,19.3h8.2l2.3-16.8c1.3-9.2,2.5-17.9,2.8-19.5.5-2.6.4-2.7-3.6-2.7s-4.1.1-4.2.2Z"/>
        <path d="M266.5,63.2c-.3.7-.7,3.5-1,6.3-.9,7.3-1.9,7.9-14.4,8.5l-10.7.5-.3,3.2-.3,3.3h9.6c12.7,0,13.9.6,13,7.3-.3,2.9-.9,6-1.1,6.9-.5,1.5.1,1.8,3.5,1.8s4.6-.2,5.6-9.1c.5-3.6.3-6.4-.4-7.8-.9-1.6-.8-2.6.5-4.7,1.7-2.6,4.5-15.9,3.6-16.9-1.1-1-7.3-.4-7.6.7Z"/>
        <path d="M136.4,85.5l-.7,7.5h-9.8c-9.3,0-9.8.1-10.4,2.2-1.6,6.1-2.8,5.8,22.8,5.8s24.6.2,24.6-5.6-.1-2.4-9.6-2.4h-9.6l.6-5.8c.4-3.1.9-6.5,1.2-7.5.5-1.4-.2-1.7-3.9-1.7h-4.5l-.7,7.5Z"/>
        <path d="M148.5,83.6c-.3.9-.6,2.7-.6,4,0,2.2.4,2.4,4.9,2.4s4.9-.1,5.5-3.1q.9-4.9-4.3-4.9c-3.5,0-5.1.4-5.5,1.6Z"/>
        <path d="M180.5,85.1c-.3,1.7-.3,3.5,0,4s7.7.9,16.5.9h15.9v-2.4c0-1.3.3-3.1.6-4,.5-1.4-1.2-1.6-15.9-1.6h-16.4l-.7,3.1Z"/>
        <path d="M301.9,63.7c0,1-.3,2.8-.6,4.1l-.6,2.2,23.8-.2,23.9-.3.3-3.8.3-3.7h-23.5c-21.8,0-23.6.1-23.6,1.7Z"/>
        <path d="M354.8,62.2c0,.2-1.3,9-2.8,19.5l-2.7,19.3h8.2l2.2-16.8c1.3-9.2,2.5-17.9,2.8-19.5.5-2.6.4-2.7-3.5-2.7s-4.1.1-4.2.2Z"/>
        <path d="M393.6,64.2c-.3,1.3-.9,4.9-1.2,8l-.7,5.7-11.7.3-11.6.3-.3,3.5-.3,3.5h11.3c7,0,11.2.4,11.1,1,0,.5-.4,4-.8,7.7l-.7,6.8h7.9l2.2-15.8c1.2-8.6,2.5-17.4,2.8-19.5l.6-3.7h-4.1c-3.3,0-4.1.4-4.5,2.2Z"/>
        <path d="M409.4,64.5c-1.4,1.3-2.5,3.1-2.5,4,0,1.3,2.5,1.5,18.4,1.5s18.6.3,19.6,1.5c1.6,1.9.4,7.2-2,8.5-1,.6-9.9,1-19.8,1h-17.9l-1.1,8.2c-1.7,12.1-1.8,11.8,2.7,11.8h3.9l.7-6,.7-6.1,15.2.3,15.1.3v5.8c-.1,0-.2,5.8-.2,5.8l4.1-.3,4.1-.3v-8c.2-5.1.8-9.4,1.8-11.7,2.2-4.8,2.2-10.7.1-13.7-3-4.2-7.1-5.1-24.4-5.1s-16.1.1-18.5,2.5Z"/>
        <path d="M465.9,62.7c-2.6,1-5,3.6-5,5.5s1.3,1.8,23.5,1.8,23.5-.1,23.5-1.8.3-2.7.6-4l.6-2.2h-20.8c-11.5.1-21.6.4-22.4.7Z"/>
        <path d="M526.8,75.2c-5.6,7.3-12.5,16.1-15.2,19.5l-4.9,6.3h9.9l12.3-15.6,12.4-15.6,3.2,6.3c1.8,3.5,3.3,7,3.4,7.6,0,.9-1.7,1.3-5.2,1.3s-5.5.3-7.6,3.3l-2.2,3.2,9.7.5,9.8.5,1.9,4.2c1.9,4.2,2,4.3,6.9,4.3s4.7-.4,4.5-.9c-.1-.4-4.3-9.2-9.3-19.5l-9-18.6h-10.3l-10.3,13.2Z"/>
        <path d="M576.4,64.4c-1.4,1.4-2.5,3.2-2.5,4.1,0,1.3,2.4,1.5,18.1,1.5s18.8.4,20,1c3.5,1.9,2,16.9-2.2,20.2-1.8,1.5-4.3,1.8-16.6,1.8h-14.5l.6-5.8c.4-3.1.9-6.5,1.2-7.5.5-1.4-.1-1.7-3.9-1.7h-4.4l-1.2,9.7c-.7,5.4-1.5,10.6-1.7,11.6-.5,1.7.6,1.8,20.4,1.5,19.4-.3,21.3-.5,23.8-2.4,4.8-3.5,6.5-6.8,8-15.6,1.7-10,.7-14.8-3.9-18.2-2.6-1.9-4.4-2.1-20.7-2.4l-17.9-.4-2.6,2.6Z"/>
        <path d="M635.4,63.4c-4.9,2.1-6.8,5.1-7.3,11-.4,4.8-.1,5.7,2.1,8,2.6,2.6,2.8,2.6,17.6,2.6s15.6.3,16.5.6c1.9.7,2.1,4.5.4,6.2s-6.7,1.2-20,1.2h-18.8v2.4c0,5.2,1.7,5.6,20.7,5.6s23.5-.9,25.9-6.6c2-4.8,1.8-10.7-.5-13.5-1.8-2.3-2.6-2.4-18.8-2.9-16.6-.5-16.8-.5-17.1-2.8-.7-4.9.6-5.2,20.9-5.2h18.9v-2.4c0-4.8-2.9-5.6-21-5.6-11.4.1-17.4.5-19.5,1.4Z"/>
        <path d="M318,87.7c-.7,5.4-1.5,10.6-1.7,11.6-.5,1.6,0,1.8,3.8,1.5l4.3-.3,1.6-11.3,1.5-11.2h-8.3l-1.2,9.7Z"/>
        <path d="M458,87.2c-.7,5.1-1.5,10.3-1.8,11.5l-.5,2.3h48.2v-8h-38.7l.6-3.8.6-3.7,19.8-.3c18.6-.2,19.7-.3,19.7-2.1s.3-2.6.6-3.5c.6-1.4-1.9-1.6-23.4-1.6h-23.9l-1.2,9.2Z"/>
        <path d="M583.5,83.6c-.3.9-.6,2.7-.6,4,0,2.4.1,2.4,9.4,2.4s10.6-.3,10.6-5.6-.1-2.4-9.4-2.4-9.5.3-10,1.6Z"/>
      </g>
    </g>
  </g>
</svg>